{"glyphs":{"0":{"ha":473,"x_min":56,"x_max":429,"o":"m 293 0 l 191 0 q 95 39 134 0 q 56 136 56 79 l 56 865 q 95 962 56 922 q 191 1001 134 1001 l 293 1001 q 388 962 349 1001 q 429 865 429 922 l 429 136 q 388 39 429 79 q 293 0 349 0 m 191 921 q 152 905 168 921 q 136 865 136 888 l 136 136 q 152 96 136 113 q 191 80 168 80 l 293 80 q 332 96 316 80 q 349 136 349 113 l 349 865 q 332 905 349 888 q 293 921 316 921 l 191 921 z "},"1":{"ha":307,"x_min":61,"x_max":228,"o":"m 136 14 l 136 850 l 61 850 l 61 924 q 83 977 61 955 q 136 998 104 998 l 214 998 q 224 994 220 998 q 228 985 228 990 l 228 14 q 224 4 228 8 q 214 0 220 0 l 149 0 q 138 4 142 0 q 136 14 136 8 z "},"2":{"ha":418,"x_min":38,"x_max":359,"o":"m 38 928 l 38 983 q 42 993 38 989 q 52 997 45 997 q 194 955 126 993 q 298 856 262 917 q 326 787 317 825 q 326 711 332 750 q 317 675 323 699 q 302 621 311 652 q 264 486 288 563 q 220 332 243 408 q 178 189 197 254 q 148 90 157 122 l 346 90 q 355 85 351 90 q 359 76 359 83 l 359 22 q 355 12 359 15 q 346 8 351 8 l 76 8 q 66 12 71 8 q 62 22 62 15 q 64 90 62 43 q 244 709 123 296 q 187 850 244 791 q 50 914 132 910 q 42 918 45 914 q 38 928 38 922 z "},"3":{"ha":418,"x_min":56,"x_max":350,"o":"m 210 562 q 203 551 203 557 q 210 538 203 543 q 312 420 274 499 q 350 269 350 340 q 269 83 350 161 q 71 0 187 5 q 60 4 64 0 q 56 14 56 8 l 56 61 q 60 71 56 66 q 68 75 64 75 q 209 136 152 80 q 267 267 267 191 q 240 373 267 320 q 167 463 213 427 q 115 492 144 481 q 56 505 87 505 l 56 581 q 186 624 133 590 q 239 730 239 656 q 190 853 239 799 q 68 920 141 906 q 60 925 62 921 q 56 933 56 928 l 56 982 q 61 991 56 987 q 69 996 65 996 l 71 996 q 250 905 178 981 q 321 730 321 830 q 292 631 321 666 q 210 562 260 594 z "},"4":{"ha":473,"x_min":56,"x_max":418,"o":"m 351 1001 l 404 1001 q 414 998 411 1001 q 418 987 418 994 l 418 15 q 414 5 418 9 q 404 1 411 1 l 351 1 q 342 5 346 1 q 338 15 338 9 l 338 487 q 334 496 338 492 q 326 500 330 499 q 142 579 218 507 q 57 758 65 651 l 56 758 l 56 993 q 60 1002 56 998 q 69 1006 64 1006 l 122 1006 q 132 1002 127 1006 q 136 993 136 998 l 136 765 q 195 640 141 690 q 323 585 250 591 q 334 587 330 583 q 338 597 338 591 l 338 987 q 342 998 338 994 q 351 1001 346 1001 z "},"5":{"ha":529,"x_min":56,"x_max":486,"o":"m 138 857 l 138 606 q 141 597 138 601 q 151 593 145 593 l 463 593 q 471 589 467 593 q 475 579 475 586 l 475 152 q 430 45 475 88 q 323 0 385 0 l 208 0 q 100 45 144 0 q 56 152 56 90 l 56 227 q 60 236 56 232 q 69 240 62 240 l 123 240 q 133 236 129 240 q 137 227 137 233 l 137 152 q 157 102 137 122 q 208 81 178 81 l 321 81 q 372 102 351 81 q 392 152 392 122 l 392 498 q 388 507 392 503 q 378 511 385 511 l 69 511 q 60 515 64 511 q 56 524 56 518 l 56 857 q 100 964 56 920 q 208 1009 144 1009 l 473 1009 q 483 1005 479 1009 q 486 996 486 1001 l 486 940 q 483 930 486 935 q 473 928 479 928 l 208 928 q 157 906 178 928 q 138 857 137 886 z "},"6":{"ha":473,"x_min":28,"x_max":442,"o":"m 442 438 l 442 148 q 399 42 442 85 q 293 -1 354 -1 l 164 -1 q 68 46 107 -1 q 28 199 28 95 l 28 990 q 31 1001 28 997 q 42 1005 35 1005 l 95 1005 q 104 1001 100 1005 q 107 990 109 997 l 107 602 q 111 591 107 595 q 121 587 115 587 l 293 587 q 399 544 355 587 q 442 438 442 500 m 293 507 l 121 507 q 111 503 115 507 q 107 494 107 499 l 107 148 q 127 99 107 119 q 176 79 148 79 l 292 79 q 340 99 320 79 q 361 148 361 119 l 361 439 q 342 487 361 468 q 293 507 321 507 z "},"7":{"ha":389,"x_min":50,"x_max":345,"o":"m 58 921 l 50 921 l 50 1002 l 57 1002 q 260 918 176 1002 q 345 715 345 834 l 345 496 l 343 496 l 343 4 l 262 4 l 262 496 l 50 496 l 50 578 l 264 578 l 264 715 q 203 860 264 800 q 58 921 144 921 z "},"8":{"ha":500,"x_min":56,"x_max":458,"o":"m 458 857 l 458 609 l 456 609 q 442 571 452 590 q 418 540 431 553 q 448 498 437 522 q 458 445 458 472 l 458 111 l 456 111 q 410 35 446 65 q 326 5 374 5 l 189 5 q 96 42 134 5 q 56 134 57 80 l 56 444 q 66 496 56 472 q 96 540 77 521 q 68 581 79 557 q 56 632 56 605 l 56 856 q 95 949 56 911 q 189 989 133 989 l 327 989 q 420 949 381 989 q 458 857 458 911 m 331 499 l 182 499 q 178 498 179 498 l 175 498 q 171 496 174 498 q 165 495 170 496 q 163 494 165 494 q 149 483 156 490 q 136 458 138 472 q 134 456 134 457 l 134 138 q 145 103 134 118 q 149 100 148 102 q 189 85 165 85 l 327 85 q 365 100 349 85 q 381 137 380 117 l 381 140 l 380 140 l 380 445 q 363 483 380 467 q 331 499 350 496 m 327 910 l 189 910 q 149 895 165 910 q 134 856 134 879 l 134 635 q 149 597 134 613 q 189 581 165 581 l 326 581 q 363 597 349 581 q 380 635 380 613 l 380 857 q 365 894 380 879 q 327 910 349 910 z "},"9":{"ha":529,"x_min":56,"x_max":468,"o":"m 56 647 l 56 840 q 99 945 56 902 q 205 989 142 989 l 331 989 q 427 941 387 989 q 468 789 467 894 l 468 5 q 464 -4 468 0 q 454 -8 460 -8 l 401 -8 q 392 -4 395 -8 q 388 5 388 0 l 388 486 q 384 495 388 491 q 374 499 380 499 l 205 499 q 99 543 142 499 q 56 647 56 586 m 205 579 l 374 579 q 384 582 380 579 q 388 593 388 586 l 388 840 q 368 888 388 868 q 319 909 347 909 l 205 909 q 156 888 175 909 q 136 840 136 868 l 136 647 q 156 598 136 618 q 205 579 175 579 z "},"\u0000":{"ha":0,"x_min":0,"x_max":0,"o":""}," ":{"ha":374,"x_min":0,"x_max":0,"o":""},"!":{"ha":140,"x_min":24,"x_max":129,"o":"m 66 214 l 24 214 l 24 960 q 37 989 24 977 q 66 1001 49 1001 l 107 1001 l 107 251 q 95 227 104 236 q 66 214 83 214 m 77 5 l 26 5 l 26 56 q 41 92 26 77 q 77 107 56 107 q 114 92 99 107 q 129 56 129 77 q 114 20 129 35 q 77 5 99 5 z "},"\"":{"ha":250,"x_min":28,"x_max":231,"o":"m 28 892 l 28 1001 l 73 1001 q 103 990 91 1001 q 119 962 117 978 l 119 848 l 73 848 q 41 860 54 848 q 28 892 28 873 m 140 892 l 140 1001 l 184 1001 q 214 990 202 1001 q 231 962 228 978 l 231 848 l 184 848 q 152 860 165 848 q 140 892 140 873 z "},"#":{"ha":779,"x_min":35,"x_max":745,"o":"m 665 578 q 654 579 658 578 l 591 579 q 517 395 556 492 l 548 395 l 548 393 l 589 393 l 589 353 q 576 324 589 336 q 548 313 564 313 l 483 313 q 366 30 429 182 q 355 11 363 19 q 327 -1 343 -1 l 302 -1 l 286 -3 l 286 18 q 285 38 285 30 q 293 62 285 52 q 395 313 336 168 l 232 313 q 115 30 178 182 q 104 11 113 19 q 76 -1 94 -1 l 52 -1 l 35 -3 l 35 38 q 41 58 35 49 q 145 313 85 165 l 76 313 l 76 354 q 88 382 76 370 q 117 395 100 395 l 179 395 q 255 579 214 481 l 141 579 l 141 618 q 152 647 141 636 q 180 659 164 659 l 288 659 q 410 955 345 796 q 425 982 411 971 q 450 993 435 993 q 453 991 452 993 q 477 990 461 991 l 494 989 q 492 970 494 981 q 491 948 491 958 q 488 936 490 941 q 374 659 441 819 l 537 659 q 661 960 594 798 q 674 982 663 972 q 703 993 686 993 q 705 991 704 993 q 728 990 712 991 l 745 989 q 743 970 745 981 q 742 948 742 958 q 732 924 741 933 q 624 659 686 812 l 670 659 l 670 658 l 705 658 l 705 618 q 693 590 705 601 q 665 578 681 578 m 266 395 l 429 395 q 505 579 464 480 l 340 579 q 266 395 305 492 z "},"$":{"ha":556,"x_min":27,"x_max":510,"o":"m 216 1001 l 269 1001 q 305 986 290 1001 q 321 949 321 971 l 321 890 q 372 876 349 886 q 456 834 429 852 q 465 818 464 829 q 461 800 467 808 q 442 780 454 793 q 420 755 434 772 q 407 747 415 749 q 392 750 399 746 q 334 777 372 762 q 321 781 328 779 l 321 551 q 403 507 363 530 q 492 408 472 467 q 510 308 510 355 q 498 233 510 269 q 393 127 471 155 q 324 110 358 117 q 321 109 323 110 l 321 -3 l 269 -3 q 232 14 247 -3 q 216 43 218 26 l 216 106 q 148 119 182 110 q 39 168 94 136 q 28 183 31 174 q 27 189 27 186 q 31 199 27 194 q 64 251 42 217 q 77 260 69 259 q 94 259 85 263 q 216 212 161 218 l 216 488 l 214 490 q 152 519 182 505 q 102 549 122 534 q 49 609 68 572 q 31 690 31 646 q 37 741 31 719 q 43 766 42 761 q 99 842 54 799 q 216 891 138 882 l 216 1001 m 357 229 q 403 294 403 245 q 392 377 404 343 q 321 435 384 404 l 321 218 q 357 229 340 222 m 216 784 q 165 761 180 777 q 142 731 145 738 l 142 730 q 136 690 142 728 q 160 632 130 654 q 203 609 176 621 l 216 602 l 216 784 z "},"%":{"ha":557,"x_min":26,"x_max":509,"o":"m 66 1 q 43 0 60 1 l 27 0 l 27 19 q 26 39 26 31 q 30 57 26 49 q 401 979 153 365 q 412 993 406 986 q 439 1002 423 1004 l 442 1002 q 467 1001 450 1002 l 481 1000 q 480 981 481 991 q 479 960 479 968 q 469 935 477 945 q 104 24 346 628 l 103 24 q 95 12 100 18 q 66 1 83 0 m 372 205 q 392 254 372 233 q 439 273 411 273 q 488 254 468 273 q 509 205 509 233 l 509 137 l 439 137 q 392 156 411 137 q 372 205 372 176 m 172 795 q 152 746 172 766 q 104 727 133 727 q 56 746 76 727 q 35 795 35 766 l 35 863 l 104 863 q 152 842 132 863 q 172 795 172 822 z "},"&":{"ha":836,"x_min":43,"x_max":812,"o":"m 646 762 l 595 762 q 587 765 591 762 q 585 772 585 768 q 530 873 574 830 q 420 924 486 917 q 301 894 357 930 q 227 796 247 859 q 221 708 213 751 q 254 631 229 665 l 614 270 q 618 294 617 279 q 621 319 620 308 q 624 326 621 323 q 632 328 628 328 l 684 328 q 692 326 688 328 q 694 317 694 323 q 688 263 693 290 q 673 212 682 237 q 806 77 718 167 q 812 62 812 71 q 806 46 812 53 l 787 27 q 770 20 780 20 q 754 27 761 20 l 636 145 q 521 42 591 80 q 370 4 452 5 l 365 4 q 277 18 319 5 q 197 54 235 31 q 87 170 129 98 q 43 327 45 241 l 43 330 q 83 483 43 414 q 187 598 122 555 q 148 703 157 644 q 157 818 138 760 q 260 955 183 905 q 401 998 326 998 q 426 997 414 998 q 583 924 519 987 q 658 774 647 860 q 655 765 659 769 q 646 762 652 761 m 117 330 q 191 151 117 225 q 370 77 264 77 q 495 110 438 77 q 585 197 551 142 l 237 544 q 151 454 183 510 q 117 330 117 397 z "},"'":{"ha":140,"x_min":26,"x_max":117,"o":"m 26 892 l 26 1001 l 71 1001 q 100 990 88 1001 q 117 962 114 978 l 117 848 l 71 848 q 38 860 52 848 q 26 892 26 873 z "},"(":{"ha":278,"x_min":47,"x_max":250,"o":"m 179 0 q 98 164 129 77 q 54 346 66 252 q 47 460 47 401 l 47 502 q 68 665 52 581 q 133 894 94 804 q 174 987 172 983 q 224 959 193 977 q 244 949 232 955 l 250 947 q 212 861 248 947 q 149 646 174 777 q 133 496 136 570 q 138 355 129 423 q 176 193 149 270 q 250 46 205 115 q 179 0 227 31 m 212 967 q 218 963 214 966 l 212 967 z "},")":{"ha":307,"x_min":56,"x_max":269,"o":"m 132 -15 q 56 34 106 1 q 132 187 103 106 q 172 358 161 269 q 178 506 182 429 q 160 662 175 582 q 96 884 134 798 q 57 972 57 971 q 136 1015 83 987 q 179 917 138 1010 q 248 678 221 823 q 267 509 264 591 q 269 467 269 487 q 262 346 269 406 q 216 157 248 248 q 132 -15 183 66 z "},"*":{"ha":779,"x_min":556,"x_max":780,"o":"m 587 940 q 576 951 583 945 l 571 956 q 579 966 575 960 l 589 975 q 606 982 597 982 l 608 982 q 624 977 617 982 l 642 959 l 642 1001 l 669 1001 q 685 996 678 1001 q 694 979 692 989 l 694 952 q 712 971 703 962 q 723 982 716 974 l 731 989 q 739 981 734 985 l 749 971 q 757 952 757 963 q 749 935 757 941 l 730 916 l 780 916 l 780 890 q 772 872 780 879 q 754 864 765 864 l 736 864 l 765 836 q 757 826 761 831 l 747 817 q 728 810 739 810 q 711 817 718 810 l 694 833 l 694 779 l 669 779 q 650 785 658 779 q 642 804 642 793 l 642 826 l 628 812 q 625 811 627 812 l 609 795 q 601 804 606 799 l 591 814 q 583 830 585 821 l 583 831 q 589 848 583 841 l 605 864 l 556 864 l 556 890 q 563 907 556 899 q 579 916 570 914 l 612 916 l 587 940 z "},"+":{"ha":529,"x_min":31,"x_max":500,"o":"m 209 597 l 209 776 l 263 776 q 300 762 283 776 q 317 728 315 749 l 317 597 l 500 597 l 500 543 q 486 505 500 519 q 446 488 469 488 l 317 488 l 317 307 l 263 307 q 225 323 240 307 q 209 361 209 339 l 209 488 l 85 488 l 85 487 l 31 487 l 31 541 q 45 578 31 563 q 79 597 58 594 l 209 597 z "},",":{"ha":222,"x_min":50,"x_max":195,"o":"m 50 79 l 50 251 l 122 251 q 170 232 149 251 q 195 186 191 213 l 195 5 l 122 5 q 72 27 92 5 q 50 79 50 47 z "},"-":{"ha":502,"x_min":28,"x_max":465,"o":"m 415 473 l 28 473 l 28 524 q 41 557 28 543 q 72 575 54 572 l 465 575 l 465 525 q 450 488 465 503 q 415 473 435 473 z "},".":{"ha":195,"x_min":28,"x_max":144,"o":"m 144 58 q 127 16 144 34 q 85 0 110 0 q 45 18 61 0 q 28 58 28 34 l 28 117 l 85 117 q 126 99 110 117 q 144 58 144 83 z "},"/":{"ha":529,"x_min":39,"x_max":505,"o":"m 464 1012 q 488 1010 472 1012 l 505 1009 q 503 989 503 1001 q 500 968 502 977 q 491 944 499 954 q 119 33 366 639 q 109 15 115 22 q 80 3 98 3 l 39 3 l 39 42 q 46 66 39 56 q 422 989 172 376 q 433 1002 426 997 q 461 1012 445 1012 l 464 1012 z "},":":{"ha":250,"x_min":56,"x_max":199,"o":"m 127 551 l 56 551 l 56 623 q 76 674 56 652 q 127 694 98 694 q 178 674 157 694 q 199 623 199 652 q 178 572 199 594 q 127 551 156 551 m 199 140 q 178 88 199 110 q 127 68 157 68 q 76 90 98 68 q 56 140 56 110 l 56 212 l 127 212 q 178 190 156 212 q 199 140 199 170 z "},";":{"ha":195,"x_min":53,"x_max":180,"o":"m 57 133 l 57 180 l 110 180 q 145 167 130 180 q 163 133 160 153 l 163 0 l 109 0 q 71 15 87 0 q 56 53 56 31 l 56 127 q 57 133 56 129 m 117 571 l 53 571 l 53 635 q 71 680 53 662 q 117 699 90 699 q 161 680 142 699 q 180 635 180 662 q 161 590 180 609 q 117 571 142 571 z "},"<":{"ha":472,"x_min":46,"x_max":415,"o":"m 312 229 q 80 460 235 307 q 72 469 76 464 l 46 496 l 60 510 q 80 532 73 525 q 315 766 159 609 l 316 766 q 346 777 328 777 l 349 777 q 381 762 368 776 q 397 745 388 754 q 415 728 408 735 l 404 716 q 384 697 392 705 q 381 693 382 696 l 183 495 l 384 294 q 395 264 395 281 l 395 260 q 380 229 393 243 l 346 195 l 334 206 l 315 225 q 312 229 313 227 z "},"=":{"ha":612,"x_min":57,"x_max":556,"o":"m 517 420 l 57 420 l 57 469 q 72 505 57 491 q 106 518 85 517 l 556 518 l 556 469 q 543 435 556 449 q 517 420 530 423 m 517 680 l 114 680 l 114 681 l 75 681 l 75 730 q 88 765 75 750 q 114 777 99 774 l 114 779 l 556 779 l 556 730 q 543 694 556 709 q 517 680 530 682 z "},">":{"ha":446,"x_min":28,"x_max":399,"o":"m 129 227 q 110 206 121 217 l 98 195 l 81 212 q 62 229 71 222 q 49 262 49 243 l 49 264 q 60 296 49 282 q 260 498 127 365 l 60 699 q 39 719 50 707 l 28 730 q 45 747 35 736 q 62 765 56 757 q 95 780 76 779 l 98 780 q 129 769 115 780 l 399 499 q 382 481 392 492 l 372 472 q 363 463 368 467 q 132 229 286 384 q 129 227 132 228 z "},"?":{"ha":446,"x_min":28,"x_max":415,"o":"m 415 654 q 393 519 415 579 q 324 415 370 458 q 213 346 274 366 q 118 321 159 327 l 118 161 l 83 161 q 61 170 71 161 q 49 193 50 179 l 49 387 l 53 387 l 91 388 q 176 407 127 391 q 228 429 202 415 q 278 465 255 444 q 330 547 312 499 q 347 654 347 593 q 331 758 347 712 q 278 840 313 806 q 231 876 256 861 q 178 902 203 891 q 92 922 130 920 q 54 925 56 925 l 49 925 l 49 994 l 71 994 q 110 989 85 993 q 214 962 152 983 q 327 887 275 940 q 393 785 372 844 q 415 656 415 727 l 415 654 m 28 49 q 43 87 28 72 q 83 103 60 103 q 121 87 106 103 q 137 49 137 72 l 137 -7 l 83 -7 q 43 9 60 -7 q 28 49 28 26 z "},"@":{"ha":891,"x_min":33,"x_max":863,"o":"m 448 3 q 244 57 336 3 q 95 199 151 111 q 50 302 66 247 q 33 418 33 358 q 87 623 33 529 q 229 770 141 715 q 332 817 277 800 q 448 833 388 833 q 563 817 507 833 q 666 770 618 800 q 808 623 754 715 q 863 418 863 529 l 863 416 q 846 302 863 357 q 800 199 830 247 q 652 57 746 111 q 448 3 560 3 m 669 427 l 669 255 l 758 255 q 799 418 799 330 l 799 419 q 785 515 799 469 q 746 602 772 562 q 621 723 700 677 q 448 769 543 769 q 350 755 397 769 q 263 716 304 742 q 142 591 189 670 q 96 418 96 513 q 110 320 96 368 q 149 233 125 273 q 275 113 197 159 q 448 66 354 66 q 545 80 499 66 q 632 119 593 95 q 711 187 677 148 l 665 187 q 659 186 662 186 l 430 186 q 262 254 335 186 q 186 419 189 323 l 186 429 q 256 600 186 529 q 426 670 327 670 l 437 670 q 602 594 533 667 q 669 427 669 522 m 601 266 l 601 426 q 553 548 601 496 q 434 601 505 598 l 427 601 q 305 551 357 601 q 255 430 255 500 l 255 422 q 309 304 258 351 q 431 255 361 255 l 591 255 q 598 258 595 255 q 601 266 601 262 z "},"A":{"ha":807,"x_min":34,"x_max":779,"o":"m 779 559 l 779 16 q 773 5 779 9 q 762 0 769 0 l 711 0 q 700 5 704 0 q 694 16 694 9 l 694 213 l 117 213 l 117 19 q 113 8 117 12 q 100 3 107 3 l 50 3 q 39 8 43 3 q 34 19 34 12 l 34 563 q 35 583 34 566 q 39 629 35 601 q 73 757 47 681 q 163 894 100 831 q 275 970 212 941 q 416 998 339 998 q 553 968 494 998 q 661 890 613 937 q 713 819 692 857 q 747 745 734 783 q 774 621 772 675 q 779 559 779 567 m 694 560 q 693 608 694 562 q 671 711 690 652 q 643 773 661 742 q 600 833 625 806 q 518 892 564 869 q 410 916 471 916 q 305 892 353 914 q 221 834 256 869 q 176 774 194 807 q 146 712 157 743 q 121 609 125 654 q 117 563 117 564 l 117 289 l 694 289 l 694 560 z "},"B":{"ha":751,"x_min":37,"x_max":708,"o":"m 439 0 l 53 0 q 42 5 46 0 q 37 16 37 9 l 37 985 q 42 997 37 991 q 53 1001 46 1001 l 407 1001 q 586 925 511 1000 q 659 746 659 850 q 637 640 659 690 q 575 556 614 591 q 568 544 568 552 q 576 530 570 534 q 673 429 636 492 q 708 288 708 365 q 631 90 708 174 q 439 0 552 7 m 624 288 q 564 431 624 372 q 420 491 505 491 l 140 491 q 127 486 133 491 q 122 475 122 481 l 122 102 q 127 90 122 95 q 140 85 133 85 l 439 85 q 570 151 517 92 q 624 288 624 209 m 407 917 l 140 917 q 127 911 133 917 q 122 899 122 906 l 122 593 q 127 581 122 586 q 140 576 133 576 l 420 576 q 530 631 486 582 q 575 746 575 680 q 526 867 575 817 q 407 917 476 916 z "},"C":{"ha":918,"x_min":28,"x_max":880,"o":"m 880 136 q 724 37 812 72 q 536 0 635 0 q 395 20 463 0 q 269 76 327 39 q 94 258 160 144 q 28 507 28 372 q 47 650 28 582 q 104 774 68 718 q 285 949 171 883 q 536 1016 399 1016 q 711 985 628 1016 q 860 898 795 952 q 799 836 840 876 q 677 905 743 879 q 534 929 609 929 q 327 875 422 929 q 178 730 233 819 q 130 625 148 682 q 114 509 114 570 q 170 301 114 396 q 313 151 224 208 q 418 104 361 121 q 534 88 473 88 q 689 117 617 88 q 818 198 762 146 l 880 136 z "},"D":{"ha":834,"x_min":68,"x_max":804,"o":"m 804 494 q 741 248 804 359 q 572 69 677 136 q 449 12 515 33 q 312 -11 384 -8 l 84 -11 q 72 -5 77 -11 q 68 7 68 0 l 68 982 q 72 994 68 989 q 84 998 77 998 l 312 998 q 449 977 384 997 q 571 920 515 956 q 741 741 677 852 q 804 494 804 628 m 307 911 l 171 911 q 159 907 163 911 q 153 895 153 902 l 153 92 q 159 80 153 85 q 171 76 163 76 l 307 76 q 422 94 366 76 q 524 141 476 111 q 665 289 612 197 q 718 494 718 382 q 701 609 718 553 q 656 712 685 665 q 510 856 602 800 q 307 911 418 910 z "},"E":{"ha":640,"x_min":33,"x_max":612,"o":"m 591 0 l 49 0 q 38 5 42 0 q 33 16 33 9 l 33 985 q 38 997 33 991 q 49 1001 42 1001 l 594 1001 q 606 996 601 1001 q 612 983 612 990 l 612 937 q 606 926 612 930 q 594 921 601 921 l 129 921 q 117 916 122 921 q 113 903 113 911 l 113 605 q 117 593 113 597 q 129 587 122 587 l 464 587 q 476 582 471 587 q 481 571 481 578 l 481 525 q 476 513 481 518 q 464 507 471 507 l 129 507 q 117 503 122 507 q 113 491 113 498 l 113 76 l 591 76 q 604 71 600 76 q 609 58 609 66 l 609 16 q 604 5 609 9 q 591 0 600 0 z "},"F":{"ha":613,"x_min":28,"x_max":613,"o":"m 597 920 l 125 920 q 114 916 118 920 q 109 903 109 910 l 109 600 q 114 589 109 593 q 125 583 118 583 l 464 583 q 476 578 472 583 q 481 566 481 572 l 481 519 q 476 507 481 513 q 464 502 472 502 l 125 502 q 114 498 118 502 q 109 486 109 492 l 109 11 q 103 -1 109 3 q 91 -7 98 -7 l 45 -7 q 33 -1 38 -7 q 28 11 28 3 l 28 985 q 33 997 28 991 q 45 1001 38 1001 l 597 1001 q 608 996 604 1001 q 613 983 613 990 l 613 937 q 608 925 613 930 q 597 920 604 920 z "},"G":{"ha":1002,"x_min":56,"x_max":943,"o":"m 943 302 q 929 206 943 248 q 884 133 914 165 l 883 132 l 883 130 q 859 110 872 119 q 831 90 846 99 q 699 23 770 47 q 548 0 627 0 q 305 65 416 0 q 129 235 194 129 q 75 357 94 292 q 56 494 56 422 l 56 495 q 76 632 56 567 q 130 754 95 699 q 307 924 195 860 q 549 987 416 987 q 711 960 635 987 q 850 884 788 933 q 857 872 856 880 q 853 860 857 865 l 817 823 q 806 818 811 818 q 795 821 799 818 q 681 882 743 860 q 549 902 618 902 q 434 886 490 902 q 331 840 378 869 q 191 689 243 784 q 141 483 138 595 q 197 289 144 377 q 334 148 248 201 q 431 103 378 119 q 541 85 484 87 q 617 91 579 85 q 688 110 654 98 q 724 126 707 118 l 757 142 q 776 155 766 148 q 795 167 785 160 q 842 225 826 193 q 861 302 860 258 l 861 472 q 857 484 861 479 q 845 488 852 488 l 612 488 q 600 494 605 488 q 595 506 595 499 l 595 557 q 600 568 595 564 q 612 574 605 574 l 926 574 q 939 568 933 574 q 943 557 943 564 l 943 302 z "},"H":{"ha":806,"x_min":56,"x_max":751,"o":"m 681 1008 l 735 1008 q 747 1004 742 1008 q 751 991 751 998 l 751 15 q 747 3 751 8 q 735 -1 742 -1 l 681 -1 q 669 3 674 -1 q 665 15 665 8 l 665 476 q 659 488 665 483 q 647 492 654 492 l 160 492 q 148 488 153 492 q 144 476 144 483 l 144 12 q 138 0 144 5 q 126 -4 133 -4 l 73 -4 q 61 0 65 -4 q 56 12 56 5 l 56 989 q 61 1001 56 996 q 73 1006 65 1006 l 126 1006 q 138 1001 133 1006 q 144 989 144 996 l 144 598 q 148 586 144 591 q 160 581 153 581 l 646 581 q 658 586 652 581 q 663 598 663 591 l 663 991 q 669 1004 663 998 q 681 1008 674 1008 z "},"I":{"ha":195,"x_min":56,"x_max":137,"o":"m 66 0 q 58 3 62 0 q 56 11 56 7 l 56 989 q 60 998 56 994 q 69 1002 64 1002 l 125 1002 q 134 998 130 1002 q 137 989 137 994 l 137 11 q 134 3 137 7 q 126 0 132 0 l 66 0 z "},"J":{"ha":669,"x_min":37,"x_max":620,"o":"m 620 283 q 567 126 620 205 q 439 20 514 49 q 327 -1 381 -1 q 250 11 288 -1 q 104 104 160 37 q 56 186 75 140 q 37 281 38 231 q 41 292 37 288 q 50 296 45 296 l 107 296 q 117 292 113 296 q 121 282 121 288 q 186 142 126 201 q 328 84 245 84 q 472 141 411 84 q 537 279 532 198 l 537 986 q 543 997 537 993 q 555 1002 548 1002 l 604 1002 q 614 997 610 1002 q 620 987 620 993 l 620 283 z "},"K":{"ha":750,"x_min":45,"x_max":731,"o":"m 285 627 q 727 27 433 427 q 731 18 731 23 q 730 9 731 14 q 713 0 724 0 l 648 0 q 642 1 644 0 q 635 7 637 4 q 232 553 500 189 q 218 560 227 560 q 205 555 210 560 l 136 473 q 132 468 133 471 q 130 463 130 465 l 130 19 q 126 7 130 12 q 114 1 121 1 l 61 1 q 49 7 54 1 q 45 19 45 12 l 45 1002 l 88 1002 q 118 989 106 1002 q 130 964 127 978 l 130 646 q 141 629 130 633 q 160 635 152 625 q 397 907 239 726 l 403 913 q 410 914 406 914 l 479 914 q 495 905 490 914 q 492 886 499 894 q 286 648 423 807 q 282 637 282 643 q 285 627 282 632 z "},"L":{"ha":473,"x_min":56,"x_max":446,"o":"m 292 85 l 396 85 q 427 75 411 84 q 446 47 445 64 l 446 1 l 289 1 q 170 38 220 4 q 87 134 118 71 q 61 217 66 179 q 56 255 56 254 l 56 991 l 98 991 q 129 978 115 991 q 141 952 140 967 l 141 258 q 145 227 141 254 q 165 168 151 199 q 216 107 184 127 q 292 85 247 87 z "},"M":{"ha":917,"x_min":56,"x_max":857,"o":"m 125 -3 l 73 -3 q 61 3 65 -3 q 56 15 56 7 l 56 993 q 66 1009 56 1004 q 73 1010 71 1010 q 84 1005 80 1010 l 452 637 q 464 632 457 632 q 476 637 471 632 q 829 990 594 754 q 848 994 837 998 q 857 978 857 990 l 857 18 q 853 5 857 9 q 841 0 848 0 l 788 0 q 776 5 781 0 q 770 18 770 9 l 770 769 q 761 785 770 780 q 742 781 750 789 q 476 514 654 692 q 464 510 471 510 q 452 514 457 510 l 171 795 q 153 799 163 804 q 142 784 142 795 l 142 14 q 137 1 142 7 q 125 -3 133 -3 z "},"N":{"ha":891,"x_min":46,"x_max":861,"o":"m 845 -7 l 795 -7 q 784 -1 788 -7 q 779 9 779 3 l 779 553 l 777 600 q 755 703 774 644 q 727 766 745 734 q 684 825 709 798 q 586 888 643 867 q 457 910 529 910 q 330 888 387 909 q 233 826 274 867 q 187 766 206 799 q 157 704 170 735 q 133 601 136 646 l 129 556 l 129 12 q 123 1 129 5 q 113 -4 119 -4 l 62 -4 q 50 1 56 -4 q 46 12 46 5 l 46 556 q 50 613 46 560 q 81 738 54 667 q 118 812 95 774 q 174 884 141 850 q 298 964 228 939 q 457 991 369 991 q 618 964 547 991 q 743 882 690 936 q 798 811 776 849 q 831 736 818 773 q 859 614 856 669 q 861 553 861 566 l 861 11 q 857 -1 861 3 q 845 -7 852 -7 z "},"O":{"ha":1057,"x_min":41,"x_max":1017,"o":"m 529 -1 q 393 19 458 -1 q 271 72 328 38 q 104 247 168 137 q 41 487 41 355 q 60 623 41 557 q 114 743 80 688 q 289 910 179 846 q 529 974 397 974 q 769 911 659 974 q 944 743 879 848 q 997 623 978 688 q 1017 487 1017 557 q 997 350 1017 415 q 943 229 978 285 q 769 62 879 126 q 529 -1 659 -1 m 533 890 q 420 873 473 890 q 320 829 366 857 q 182 685 233 776 q 129 486 129 594 q 145 373 129 427 q 189 273 160 319 q 334 134 243 186 q 533 81 425 81 q 646 98 591 81 q 746 142 699 113 q 884 286 831 195 q 937 486 937 377 q 884 685 937 594 q 745 829 831 776 q 644 873 699 857 q 533 890 591 890 z "},"P":{"ha":639,"x_min":27,"x_max":627,"o":"m 324 918 q 175 852 236 917 q 113 700 113 788 l 113 503 q 117 494 113 498 q 127 490 121 490 l 327 490 q 479 552 416 490 q 541 704 541 614 q 477 856 541 793 q 326 918 415 918 l 324 918 m 627 700 q 536 490 625 576 q 324 404 448 404 l 126 404 q 117 400 121 404 q 113 391 113 397 l 113 38 q 102 8 113 20 q 75 -5 91 -3 l 27 -5 l 27 700 q 114 913 27 823 q 324 1002 201 1001 l 327 1002 q 408 991 369 1002 q 484 959 449 981 q 589 850 549 918 q 627 703 627 783 l 627 700 z "},"Q":{"ha":1058,"x_min":39,"x_max":1024,"o":"m 532 5 q 395 26 460 5 q 273 80 328 45 q 103 255 167 145 q 39 498 39 365 q 103 741 39 629 q 273 916 167 850 q 395 970 330 951 q 532 990 460 990 q 669 970 602 990 q 791 916 734 951 q 959 741 895 850 q 1024 498 1024 629 q 1004 361 1024 426 q 949 239 985 294 q 887 157 922 194 l 1012 58 q 998 42 1006 52 q 985 24 990 33 q 956 8 974 11 l 949 8 q 924 18 936 9 l 821 99 q 774 69 799 83 q 532 5 663 5 m 667 225 q 681 241 673 232 q 694 258 689 251 q 720 274 705 271 l 728 274 q 750 267 741 274 l 821 210 q 886 296 857 248 q 939 498 939 388 q 922 610 939 556 q 878 712 907 665 q 732 852 823 799 q 532 905 640 905 q 418 888 472 905 q 316 844 363 873 q 176 699 229 791 q 123 498 123 608 q 140 384 123 438 q 184 282 156 330 q 330 142 239 195 q 532 90 422 90 q 644 106 590 90 q 746 151 699 122 l 753 155 l 667 225 z "},"R":{"ha":696,"x_min":28,"x_max":663,"o":"m 646 -8 l 582 -8 q 574 -5 578 -8 q 567 1 568 -3 l 372 400 l 127 400 q 118 396 122 400 q 114 387 114 392 l 114 31 q 103 1 114 14 q 75 -12 91 -11 l 28 -12 l 28 697 q 115 910 28 821 q 326 1001 202 1000 l 334 1001 q 544 911 457 1000 q 628 697 631 822 q 609 598 627 646 q 562 513 591 551 q 545 495 551 502 q 506 460 538 488 l 505 458 q 481 442 494 449 q 457 430 469 435 q 661 18 525 292 q 663 9 663 14 q 661 0 663 4 q 646 -8 655 -8 m 544 703 q 480 856 544 792 q 328 918 416 918 l 326 918 q 176 853 237 917 q 114 699 114 788 l 114 500 q 118 491 114 495 q 127 487 122 487 l 330 487 q 480 551 418 487 q 544 703 544 613 z "},"S":{"ha":667,"x_min":18,"x_max":627,"o":"m 315 -3 l 294 -3 q 275 -1 285 -3 q 151 26 213 4 q 24 87 88 49 q 18 98 19 91 l 18 102 q 20 110 18 106 q 47 153 28 125 q 58 161 52 159 q 71 159 65 163 q 301 81 203 79 q 461 109 399 85 q 530 178 498 122 q 525 345 564 233 q 473 403 515 373 q 381 458 433 431 q 326 487 353 473 q 270 513 297 500 q 189 552 228 533 q 123 590 149 571 q 61 661 81 618 q 41 760 39 704 q 47 822 41 796 q 56 853 54 849 q 62 869 57 857 q 81 899 68 882 q 152 964 103 929 q 290 1005 202 998 q 332 1006 312 1006 q 475 978 414 1006 q 579 922 551 943 q 585 910 585 918 q 581 898 586 903 q 564 879 575 891 q 547 859 559 872 q 536 852 543 853 q 525 856 530 852 q 442 899 502 872 q 297 921 381 928 q 202 894 236 916 q 152 852 167 872 q 140 834 144 842 q 136 825 137 826 l 134 823 q 127 792 134 821 q 126 727 119 762 q 140 692 130 709 q 170 661 151 674 q 229 627 193 644 q 305 590 266 609 q 492 494 404 544 q 604 373 579 442 q 625 271 623 323 q 627 247 627 259 q 618 178 627 210 q 572 85 606 123 q 488 28 538 47 q 401 5 445 14 q 315 -3 358 -3 z "},"T":{"ha":613,"x_min":33,"x_max":581,"o":"m 581 987 l 581 935 q 575 922 581 926 q 563 917 570 917 l 368 917 q 355 911 361 917 q 350 899 350 907 l 350 12 q 345 0 350 4 q 332 -5 340 -5 l 279 -5 q 267 0 273 -5 q 263 12 263 4 l 263 899 q 258 911 263 907 q 245 917 252 917 l 50 917 q 38 922 42 917 q 33 935 33 926 l 33 987 q 38 1000 33 994 q 50 1005 42 1005 l 562 1005 q 574 1000 570 1005 q 581 987 579 994 z "},"U":{"ha":918,"x_min":41,"x_max":871,"o":"m 57 1004 l 109 1004 q 121 998 115 1004 q 125 986 125 993 l 125 434 q 127 387 125 433 q 149 282 130 342 q 178 217 160 250 q 222 157 195 184 q 321 92 263 114 q 453 71 380 71 q 582 92 525 71 q 681 155 639 113 q 727 214 708 183 q 757 279 746 247 q 783 384 780 338 l 787 430 l 787 983 q 792 996 787 990 q 803 1000 796 1000 l 854 1000 q 867 996 861 1000 q 871 983 871 990 l 871 431 q 867 373 871 427 q 836 247 863 317 q 798 170 821 209 q 741 98 774 132 q 614 16 686 43 q 453 -12 543 -12 q 288 16 361 -12 q 161 100 214 45 q 76 237 100 163 q 45 365 52 312 q 41 412 42 393 l 41 986 q 46 998 41 993 q 57 1004 50 1004 z "},"V":{"ha":751,"x_min":56,"x_max":701,"o":"m 130 -1 q 103 0 113 -1 q 60 11 64 5 q 56 22 56 15 l 56 982 q 61 993 56 989 q 72 998 65 998 l 122 998 q 134 993 129 998 q 138 982 138 989 l 138 99 q 144 87 138 92 q 156 83 149 83 q 255 104 195 85 q 377 178 315 125 q 471 289 429 224 q 543 438 513 354 q 598 671 579 541 q 618 958 617 802 q 624 968 618 964 q 635 974 628 974 l 685 974 q 697 968 692 974 q 701 958 701 964 q 680 656 700 795 q 620 408 659 518 q 538 241 586 315 q 430 114 491 167 q 259 19 342 39 q 130 -1 175 -1 z "},"W":{"ha":1058,"x_min":28,"x_max":1028,"o":"m 958 1004 l 1010 1004 q 1023 998 1017 1004 q 1028 986 1028 994 q 935 4 997 659 q 924 -12 935 -8 q 916 -14 920 -14 q 905 -8 910 -14 q 536 361 781 114 q 524 365 530 365 q 511 361 517 365 q 156 5 393 241 q 137 1 148 -3 q 127 18 127 5 q 28 985 94 339 q 33 996 28 991 q 45 1001 38 1001 l 98 1001 q 110 996 104 1001 q 115 985 115 991 q 214 228 148 732 q 225 212 214 216 q 243 216 236 208 q 511 483 332 305 q 522 488 515 488 q 534 483 529 488 q 817 201 629 389 q 836 197 825 193 q 846 213 846 202 l 940 986 q 945 998 940 994 q 958 1004 951 1004 z "},"X":{"ha":891,"x_min":27,"x_max":854,"o":"m 99 989 q 118 865 102 925 q 159 755 133 807 q 279 605 205 662 q 441 548 354 548 q 532 566 488 548 q 614 613 576 582 q 731 770 685 671 q 783 989 777 869 q 787 1002 783 997 q 796 1008 791 1008 l 841 1008 q 850 1001 846 1008 q 854 989 854 996 l 854 987 q 783 703 846 830 q 624 510 720 575 q 616 492 616 503 q 624 475 616 480 q 783 283 720 408 q 853 3 845 157 q 849 -12 853 -5 q 840 -18 845 -18 l 796 -18 q 787 -14 791 -18 q 783 -1 783 -8 q 764 121 779 62 q 723 229 749 179 q 604 378 677 323 q 441 435 529 435 q 350 418 393 435 q 269 370 307 401 q 152 214 198 312 q 99 -1 107 117 q 96 -14 99 -9 q 85 -19 92 -19 l 42 -19 q 33 -14 35 -19 q 28 1 28 -7 q 99 283 35 157 q 258 475 161 408 q 266 492 266 480 q 258 510 266 505 q 98 703 161 575 q 28 987 35 830 l 27 989 q 31 1001 27 996 q 42 1008 35 1008 l 85 1008 q 95 1002 91 1008 q 99 989 99 997 z "},"Y":{"ha":918,"x_min":28,"x_max":887,"o":"m 483 0 l 430 0 q 418 5 423 0 q 414 18 414 9 l 414 194 q 283 222 343 199 q 152 308 208 251 q 96 384 118 343 q 61 461 75 423 q 31 591 35 534 q 28 656 28 648 l 28 989 q 33 1001 28 996 q 45 1005 38 1005 l 98 1005 q 110 1001 106 1005 q 115 989 115 996 l 115 654 l 118 606 q 141 498 119 559 q 170 430 152 464 q 216 369 187 397 q 317 301 258 324 q 454 279 378 279 q 587 301 528 279 q 690 366 647 323 q 738 429 719 395 q 769 495 757 463 q 796 604 792 556 q 800 651 800 650 l 800 985 q 804 997 800 991 q 817 1002 810 1002 l 869 1002 q 882 997 878 1002 q 887 985 887 991 l 887 652 q 882 590 887 647 q 849 461 878 533 q 811 381 834 420 q 751 305 787 340 q 621 221 696 250 q 500 194 566 199 l 500 18 q 495 5 500 9 q 483 0 491 0 z "},"Z":{"ha":807,"x_min":8,"x_max":777,"o":"m 731 0 l 27 0 q 11 8 16 0 q 8 16 8 12 q 12 24 8 20 q 624 901 216 316 q 625 916 629 907 q 612 924 621 924 l 153 924 q 142 929 146 924 q 137 940 137 933 l 137 989 q 142 1000 137 996 q 153 1005 146 1005 l 761 1005 q 774 997 770 1005 q 777 989 777 993 q 773 981 776 985 q 168 104 571 689 q 167 88 161 98 q 180 80 171 80 l 728 80 q 741 76 735 80 q 745 65 745 72 l 745 16 q 741 4 745 9 q 731 0 736 0 z "},"[":{"ha":278,"x_min":47,"x_max":239,"o":"m 239 0 l 186 0 q 88 41 129 0 q 47 138 47 81 l 47 871 q 88 968 47 928 q 186 1009 129 1009 l 239 1009 l 239 926 l 186 926 q 146 910 163 926 q 129 871 129 894 l 129 137 q 146 98 129 114 q 186 81 163 81 l 239 81 l 239 0 z "},"\\":{"ha":500,"x_min":26,"x_max":483,"o":"m 483 41 l 483 1 l 467 1 q 442 3 450 3 q 418 11 429 3 q 404 33 407 20 q 37 933 282 334 q 31 943 33 939 q 28 954 28 948 q 27 974 28 962 q 26 994 26 986 l 41 996 q 65 997 57 997 l 68 997 q 90 991 80 997 q 104 974 100 985 q 477 64 229 670 q 481 53 480 58 q 483 41 483 47 z "},"]":{"ha":251,"x_min":28,"x_max":221,"o":"m 221 863 l 221 137 q 180 39 221 80 q 84 0 141 0 l 28 0 l 28 81 l 84 81 q 123 98 107 81 q 140 137 140 114 l 140 863 q 123 902 140 886 q 84 918 107 918 l 28 918 l 28 1000 l 84 1000 q 180 960 141 1000 q 221 863 221 920 z "},"^":{"ha":334,"x_min":28,"x_max":317,"o":"m 28 841 l 178 990 l 312 856 q 317 842 317 850 l 317 840 q 311 825 317 831 l 301 815 q 293 807 297 810 l 178 922 l 77 822 q 62 817 71 817 l 61 817 q 45 823 52 817 l 37 831 q 28 841 31 837 z "},"_":{"ha":445,"x_min":15,"x_max":433,"o":"m 64 0 l 15 0 l 15 49 q 27 81 15 66 q 57 98 39 95 l 433 98 l 433 49 q 419 15 433 28 q 384 1 404 1 l 64 1 l 64 0 z "},"`":{"ha":195,"x_min":19,"x_max":168,"o":"m 19 975 l 61 994 q 79 998 69 998 q 92 997 85 998 q 119 977 110 991 l 168 873 q 126 854 159 871 q 107 850 117 850 q 91 853 99 850 q 65 876 73 859 l 19 975 z "},"a":{"ha":667,"x_min":42,"x_max":621,"o":"m 621 286 l 621 14 q 617 4 621 7 q 608 0 613 0 l 335 0 q 133 81 220 0 q 42 278 46 163 l 42 289 q 77 429 42 365 q 182 537 117 498 q 258 570 217 559 q 331 579 293 579 l 343 579 q 538 487 457 574 q 621 286 621 400 m 538 95 l 538 286 q 481 431 538 370 q 339 496 423 494 l 332 496 q 186 435 247 496 q 125 289 125 374 l 125 282 q 189 140 127 198 q 335 81 251 81 l 526 81 q 534 85 530 81 q 538 95 538 90 z "},"b":{"ha":667,"x_min":41,"x_max":627,"o":"m 627 297 l 627 292 q 543 87 627 172 q 334 0 456 0 l 54 0 q 45 4 49 0 q 41 14 41 8 l 41 293 q 42 300 41 296 l 42 1001 l 84 1001 q 113 989 102 1001 q 125 960 123 977 l 126 960 l 126 528 q 133 515 126 519 q 148 518 141 513 q 232 567 186 549 q 331 585 279 585 q 538 502 452 586 q 627 297 625 416 m 544 289 l 544 293 q 483 439 544 378 q 334 502 422 502 q 193 446 252 502 q 126 312 133 392 l 126 308 q 125 300 125 304 l 125 95 q 129 87 125 90 q 138 83 133 83 l 331 83 q 480 142 418 83 q 544 289 543 202 z "},"c":{"ha":528,"x_min":27,"x_max":505,"o":"m 457 121 q 472 109 463 117 q 487 96 483 100 q 499 85 492 91 q 505 75 505 81 q 499 65 505 69 q 427 23 465 38 q 347 4 388 8 q 320 3 334 3 q 199 30 259 3 q 76 136 125 61 q 28 271 34 197 q 27 293 27 282 q 56 414 27 355 q 168 541 95 498 q 320 585 240 583 l 321 585 q 404 572 363 585 q 483 534 446 560 q 484 532 484 533 q 483 529 484 530 q 456 503 469 515 l 429 476 q 425 476 426 475 q 258 490 346 518 q 129 366 168 461 q 115 279 113 326 q 140 195 118 235 q 279 90 190 107 q 441 121 370 72 q 449 123 445 123 q 457 121 453 123 z "},"d":{"ha":639,"x_min":27,"x_max":613,"o":"m 530 94 l 530 297 q 529 305 530 301 l 529 309 q 461 444 521 389 q 320 499 403 499 q 171 437 233 499 q 111 290 111 376 l 111 286 q 175 140 113 199 q 324 80 237 80 l 517 80 q 526 84 522 80 q 530 94 530 88 m 613 12 q 609 3 613 7 q 598 -1 605 -1 l 320 -1 q 111 85 198 -1 q 27 289 28 170 l 27 294 q 117 499 30 415 q 323 582 203 583 q 422 563 374 581 q 506 514 468 545 q 521 513 513 509 q 528 525 528 515 l 528 962 q 540 990 528 978 q 570 1002 552 1002 l 613 1002 l 613 12 z "},"e":{"ha":583,"x_min":27,"x_max":538,"o":"m 536 486 q 538 476 538 481 l 538 475 q 536 468 538 471 l 194 126 q 317 83 248 84 q 441 121 385 81 q 449 123 445 123 q 457 119 453 123 l 460 117 q 481 99 472 107 q 502 81 490 92 q 506 72 506 79 q 500 61 506 65 q 320 0 420 0 l 312 0 q 125 75 205 3 q 27 271 37 152 l 27 296 q 94 480 27 399 q 279 585 167 570 q 321 587 301 587 q 486 536 410 587 l 494 529 q 513 511 503 521 q 529 495 522 503 l 536 486 m 129 205 q 140 198 133 199 l 142 198 q 151 202 146 198 l 411 463 q 415 472 415 467 q 415 475 416 473 q 408 484 415 481 q 323 503 366 503 q 278 499 301 503 q 163 433 210 486 q 113 321 121 384 q 111 293 111 307 q 129 205 110 247 z "},"f":{"ha":416,"x_min":56,"x_max":361,"o":"m 56 715 q 140 917 56 833 q 340 1001 222 1001 l 347 1001 q 357 997 353 1001 q 361 987 361 993 l 361 932 q 357 922 361 926 q 347 918 353 918 l 340 918 q 197 859 256 918 q 136 713 136 799 l 136 576 l 335 576 q 345 574 340 576 q 349 564 349 570 l 349 510 q 345 500 349 505 q 336 496 340 496 l 138 496 l 138 11 q 134 1 138 5 q 125 -3 130 -3 l 56 -3 l 56 715 z "},"g":{"ha":640,"x_min":42,"x_max":620,"o":"m 113 -118 q 122 -122 118 -118 q 126 -130 126 -126 q 190 -270 130 -212 q 332 -327 250 -327 q 479 -267 418 -327 q 538 -121 538 -206 l 538 3 l 335 3 q 130 87 217 3 q 42 288 43 170 l 42 292 q 127 495 42 410 q 331 579 212 581 l 334 579 q 536 492 452 579 q 620 288 620 406 l 620 -118 q 534 -324 620 -237 q 331 -411 450 -411 l 330 -411 q 130 -328 213 -410 q 42 -133 47 -248 q 46 -122 42 -126 q 56 -119 50 -119 q 113 -118 75 -118 m 538 286 q 479 434 538 373 q 332 496 418 496 q 186 435 247 496 q 125 289 125 374 q 187 142 126 203 q 335 83 250 83 l 525 83 q 534 87 530 83 q 538 96 538 91 l 538 286 z "},"h":{"ha":669,"x_min":56,"x_max":755,"o":"m 56 11 l 56 1004 l 98 1004 q 127 991 115 1004 q 140 962 140 979 l 140 525 q 148 514 140 517 q 161 515 155 510 q 248 564 199 547 q 349 583 296 583 q 547 506 464 583 q 640 317 631 429 l 640 11 q 637 1 640 5 q 627 -3 633 -3 l 571 -3 q 562 1 566 -3 q 557 11 557 5 l 557 311 q 490 445 549 389 q 349 499 430 499 q 208 445 266 499 q 140 311 148 389 l 140 11 q 136 0 140 4 q 126 -4 132 -4 l 69 -4 q 60 0 64 -4 q 56 11 56 4 m 745 12 l 743 12 l 743 14 l 745 12 m 755 1 l 755 3 l 754 3 l 755 1 m 742 14 l 741 15 l 739 15 l 742 14 m 754 4 l 754 5 l 753 5 l 754 4 z "},"i":{"ha":195,"x_min":56,"x_max":170,"o":"m 113 670 l 56 670 l 56 727 q 72 768 56 751 q 113 784 88 784 q 153 768 136 784 q 170 727 170 750 q 153 688 170 704 q 113 670 137 670 m 72 4 q 62 7 66 4 q 60 16 60 11 l 60 576 q 64 586 60 582 q 73 590 68 590 l 129 590 q 138 586 134 590 q 142 576 142 582 l 142 16 q 138 7 142 11 q 130 4 136 4 l 72 4 z "},"j":{"ha":278,"x_min":0,"x_max":248,"o":"m 237 585 q 245 582 241 585 q 248 572 248 578 l 248 -31 q 178 -201 247 -130 q 12 -278 110 -273 q 4 -275 7 -278 q 0 -266 0 -271 l 0 -217 q 3 -210 0 -213 q 9 -206 5 -206 q 127 -151 79 -201 q 176 -31 175 -100 l 176 572 q 180 582 176 578 q 189 585 183 585 l 237 585 z "},"k":{"ha":612,"x_min":62,"x_max":583,"o":"m 307 385 q 581 20 397 263 q 583 11 583 16 q 582 5 583 8 q 570 -1 578 -1 l 498 -1 q 492 0 495 -1 q 488 4 490 1 q 256 315 411 107 q 245 319 252 319 q 236 315 240 319 q 148 206 206 278 q 146 202 146 203 q 145 198 145 201 l 145 12 q 142 3 145 7 q 133 0 138 0 l 76 0 q 66 3 71 0 q 62 12 62 7 l 62 1002 l 104 1002 q 134 990 122 1002 q 146 962 146 978 l 146 368 q 155 355 146 358 q 170 359 164 353 q 353 576 231 431 q 358 581 355 579 q 363 582 359 582 l 426 582 q 437 575 434 582 q 435 560 441 567 q 307 401 392 507 q 304 393 304 399 q 307 385 304 389 z "},"l":{"ha":361,"x_min":37,"x_max":363,"o":"m 119 952 l 119 285 q 180 144 121 202 q 323 83 240 84 q 351 71 340 83 q 363 42 363 58 l 363 14 q 361 4 363 8 q 350 0 357 0 l 323 0 q 122 84 205 1 q 37 285 38 168 l 37 994 l 77 994 q 107 982 95 994 q 119 952 119 970 z "},"m":{"ha":723,"x_min":28,"x_max":699,"o":"m 699 271 l 699 11 q 694 1 699 5 q 685 -3 692 -3 l 628 -3 q 618 1 623 -3 q 614 11 614 5 l 614 290 q 553 438 614 377 q 406 500 492 500 l 406 12 q 401 3 406 7 q 392 -1 397 -1 l 321 -1 l 321 307 q 256 445 316 388 q 113 500 195 500 l 113 11 q 109 0 113 4 q 99 -4 104 -4 l 42 -4 q 31 0 35 -4 q 28 11 28 4 l 28 551 q 38 575 28 564 q 62 585 47 585 l 113 585 q 228 560 174 585 q 321 496 282 537 l 321 551 q 332 575 321 564 q 357 585 342 585 l 406 585 q 549 541 484 585 q 654 431 616 498 q 686 354 675 395 q 699 271 699 313 z "},"n":{"ha":585,"x_min":33,"x_max":553,"o":"m 553 292 l 553 15 q 551 4 553 8 q 541 1 547 1 q 492 0 525 0 q 483 4 487 0 q 479 14 479 8 l 479 290 q 425 437 479 376 q 293 498 370 498 q 161 437 216 498 q 107 290 107 376 l 107 9 q 102 3 104 5 q 95 1 99 1 l 46 1 q 37 4 41 1 q 33 15 33 8 l 33 292 q 109 495 33 411 q 293 581 184 581 q 476 495 400 581 q 553 292 553 411 z "},"o":{"ha":640,"x_min":33,"x_max":612,"o":"m 321 1 q 117 87 202 1 q 33 292 33 172 q 117 496 33 412 q 321 582 202 582 q 526 496 441 582 q 612 292 612 411 q 526 87 612 172 q 321 1 442 1 m 321 500 q 174 439 235 500 q 113 292 113 378 q 175 144 113 206 q 321 83 236 83 q 469 144 408 83 q 530 292 530 206 q 469 439 530 378 q 321 500 408 500 z "},"p":{"ha":669,"x_min":41,"x_max":635,"o":"m 635 283 q 545 75 633 160 q 335 -11 457 -11 l 138 -11 q 129 -15 133 -11 q 125 -24 125 -18 l 125 -374 q 114 -404 125 -392 q 87 -418 103 -415 l 41 -418 l 41 283 q 126 494 41 406 q 335 583 212 582 l 338 583 q 548 496 461 585 q 635 286 635 410 l 635 283 m 335 499 q 186 434 247 498 q 125 283 125 370 l 125 88 q 129 77 125 81 q 140 73 133 73 l 338 73 q 488 136 426 73 q 551 286 551 198 q 487 437 551 376 q 336 499 425 499 l 335 499 z "},"q":{"ha":667,"x_min":28,"x_max":623,"o":"m 330 590 q 537 500 452 589 q 623 289 623 412 l 623 -410 l 575 -410 q 549 -395 560 -407 q 538 -366 538 -384 l 538 -16 q 534 -7 538 -11 q 525 -4 530 -4 l 330 -4 q 118 81 208 -4 q 28 289 30 167 l 28 293 q 117 503 28 415 q 326 590 203 590 l 330 590 m 114 293 q 176 142 114 205 q 326 81 237 81 l 524 81 q 534 85 530 81 q 538 95 538 88 l 538 289 q 477 441 538 377 q 330 505 416 503 l 328 505 q 176 444 239 505 q 114 293 114 381 z "},"r":{"ha":361,"x_min":49,"x_max":323,"o":"m 133 85 l 133 16 q 129 7 133 11 q 119 3 125 3 l 62 3 q 53 7 57 3 q 49 16 49 11 l 49 294 q 123 488 49 407 q 308 582 199 571 l 311 582 q 319 579 315 582 q 323 570 323 575 l 323 513 q 320 505 323 509 q 311 500 316 500 q 183 431 235 490 q 132 294 132 373 l 132 85 l 133 85 z "},"s":{"ha":389,"x_min":16,"x_max":378,"o":"m 189 0 q 107 12 148 0 q 27 47 66 24 q 18 58 20 52 q 17 64 16 62 q 20 72 18 66 q 45 110 28 84 q 56 117 49 115 q 68 115 61 118 q 180 79 133 77 q 263 94 229 80 q 298 142 297 106 q 290 203 298 179 q 237 247 283 224 q 157 288 191 271 q 111 309 133 298 q 73 331 88 320 q 34 376 47 349 q 20 437 20 403 q 24 473 20 458 q 30 494 28 490 q 72 549 38 517 q 174 587 106 582 q 198 589 186 589 q 275 575 241 589 q 338 544 317 557 q 345 532 345 540 q 342 519 346 525 q 327 503 336 514 q 311 484 321 496 q 301 479 308 480 q 290 481 296 479 q 247 502 275 490 q 180 510 218 513 q 122 488 137 506 q 99 437 106 472 q 118 393 95 410 q 149 376 130 385 q 191 357 170 366 q 298 300 248 330 q 365 227 350 270 q 378 152 378 187 q 369 96 378 123 q 292 18 349 38 q 239 4 264 9 q 189 0 213 0 z "},"t":{"ha":473,"x_min":-1,"x_max":473,"o":"m 225 963 l 225 675 l 381 675 l 381 631 q 369 600 381 612 q 338 586 355 586 l 225 586 l 225 289 q 288 145 228 205 q 431 85 347 85 q 461 72 449 84 q 473 42 473 60 l 473 14 q 469 4 473 8 q 460 0 465 0 l 431 0 q 229 85 313 1 q 142 288 145 170 l 142 586 l -1 586 l -1 628 q 5 654 -1 642 q 26 673 14 667 q 39 675 33 675 l 142 675 l 142 1005 l 183 1005 q 213 993 201 1005 q 225 963 225 981 z "},"u":{"ha":585,"x_min":28,"x_max":551,"o":"m 28 292 l 28 570 q 31 579 28 575 q 42 583 35 583 q 90 585 57 583 q 99 581 95 585 q 103 571 103 576 l 103 292 q 157 144 103 206 q 290 83 213 83 q 422 145 368 83 q 476 293 477 206 l 476 575 q 481 581 477 579 q 488 583 484 583 l 537 583 q 547 579 543 583 q 551 570 551 575 l 551 292 q 475 85 551 171 q 289 0 397 0 q 104 85 182 0 q 28 292 28 171 z "},"v":{"ha":473,"x_min":53,"x_max":427,"o":"m 414 581 q 423 578 419 581 q 427 567 427 574 l 427 290 q 342 85 427 171 q 137 0 258 0 l 53 0 l 53 567 q 57 578 53 574 q 66 581 60 581 l 122 581 q 132 578 127 581 q 134 567 136 574 l 134 83 q 282 144 221 83 q 345 292 345 205 l 345 567 q 349 578 345 574 q 358 581 353 581 l 414 581 z "},"w":{"ha":723,"x_min":28,"x_max":696,"o":"m 403 585 l 403 84 l 404 84 q 552 145 490 84 q 613 293 613 206 l 613 585 l 696 585 l 696 293 q 610 87 696 172 q 404 1 525 1 l 403 1 l 403 0 l 354 0 q 330 9 339 0 q 319 34 319 20 l 319 88 q 227 24 279 49 q 111 1 172 1 l 62 1 q 38 11 47 1 q 28 35 28 20 l 28 585 l 111 585 l 111 84 q 254 141 194 84 q 319 279 313 197 l 319 585 l 403 585 z "},"x":{"ha":556,"x_min":27,"x_max":524,"o":"m 453 12 q 393 156 445 98 q 275 214 343 214 q 157 156 208 214 q 98 12 107 98 q 94 4 98 7 q 87 0 91 0 l 39 0 q 31 4 34 0 q 27 14 27 9 q 28 16 28 15 q 76 175 35 106 q 179 279 117 245 q 186 293 186 283 q 179 305 186 302 q 76 410 117 339 q 28 570 35 480 q 31 581 27 576 q 39 586 34 586 l 87 586 q 94 582 91 586 q 98 572 98 578 q 156 429 106 487 q 275 370 208 370 q 393 429 343 370 q 453 572 445 487 q 457 582 453 578 q 464 586 460 586 l 511 586 q 519 581 517 586 q 522 571 522 576 l 522 570 q 475 410 515 480 q 372 305 433 339 q 365 293 365 302 q 372 279 365 283 q 475 175 433 245 q 522 16 515 104 q 519 4 524 9 q 511 0 517 0 l 464 0 q 457 4 460 0 q 453 12 453 7 z "},"y":{"ha":585,"x_min":26,"x_max":553,"o":"m 553 576 l 553 480 q 491 289 553 370 q 334 190 427 208 l 334 18 q 328 5 334 9 q 316 0 324 0 l 263 0 q 251 5 256 0 q 247 18 247 9 l 247 189 q 90 289 153 206 q 26 479 26 370 l 26 574 q 30 583 26 579 q 41 587 34 587 q 90 589 57 587 q 98 585 94 589 q 102 575 102 581 l 102 495 q 100 488 102 492 l 100 481 q 156 332 100 393 q 290 270 212 270 q 423 332 369 270 q 479 481 479 393 l 479 579 l 484 585 q 492 587 488 587 l 541 587 q 551 583 547 587 q 553 576 553 581 z "},"z":{"ha":514,"x_min":11,"x_max":483,"o":"m 452 0 l 23 0 q 12 7 16 0 q 11 11 11 8 q 14 18 11 15 q 346 496 125 178 q 347 509 350 502 q 336 514 343 514 l 122 514 q 113 518 117 514 q 110 526 110 521 l 110 572 q 113 581 110 576 q 122 585 117 585 l 471 585 q 480 578 477 585 q 481 574 481 575 q 480 566 483 570 q 146 88 369 407 q 146 76 142 83 q 156 71 149 71 l 450 71 q 458 66 454 71 q 463 58 463 62 l 463 11 q 460 3 463 7 q 452 0 456 0 z "},"{":{"ha":278,"x_min":28,"x_max":260,"o":"m 28 549 l 71 549 l 71 863 q 110 960 71 920 q 208 1000 151 1000 l 260 1000 l 260 920 l 208 920 q 168 903 184 920 q 151 863 151 887 l 151 137 q 168 96 151 113 q 208 80 184 80 l 260 80 l 260 0 l 208 0 q 110 41 151 0 q 71 137 71 80 l 71 448 l 28 448 l 28 549 z "},"|":{"ha":167,"x_min":42,"x_max":121,"o":"m 121 964 q 119 958 121 960 l 121 958 l 121 0 l 81 0 q 54 11 65 0 q 42 39 42 23 q 43 50 42 45 l 43 952 q 42 964 42 958 l 42 1002 l 81 1002 q 110 991 98 1002 q 121 964 121 981 z "},"}":{"ha":307,"x_min":33,"x_max":274,"o":"m 228 864 l 228 548 l 274 548 l 274 446 l 228 446 l 228 133 q 187 35 228 76 q 90 -5 146 -5 l 33 -5 l 33 77 l 90 77 q 129 94 113 77 q 145 133 145 110 l 145 864 q 129 903 145 887 q 90 921 113 921 l 33 921 l 33 1002 l 90 1002 q 187 962 146 1002 q 228 864 228 921 z "},"~":{"ha":779,"x_min":203,"x_max":585,"o":"m 203 913 l 203 956 q 214 986 203 974 q 243 1001 227 1000 l 585 1001 l 585 958 q 571 926 585 939 q 540 914 559 914 l 203 913 z "},"¡":{"ha":167,"x_min":56,"x_max":161,"o":"m 140 0 l 99 0 q 69 12 81 0 q 57 41 57 24 l 57 785 l 99 785 q 127 773 115 785 q 138 753 136 764 l 140 753 l 140 0 m 109 890 l 56 890 l 56 943 q 71 981 56 966 q 109 997 87 997 q 146 981 130 997 q 161 943 161 966 q 146 906 161 922 q 109 890 130 890 z "},"£":{"ha":724,"x_min":37,"x_max":684,"o":"m 157 1 q 151 0 155 0 q 137 5 144 -1 q 133 26 127 14 q 157 85 141 46 q 155 237 168 110 q 138 353 149 290 l 37 353 l 37 397 q 50 430 37 416 q 81 442 62 442 l 123 442 q 103 549 114 492 l 103 556 q 109 609 103 559 q 160 707 114 659 q 243 757 194 741 q 342 772 286 772 l 358 772 q 479 750 412 769 q 591 671 545 730 q 617 628 609 650 q 631 591 627 608 q 627 576 632 583 q 613 568 621 568 q 544 563 590 567 l 538 581 q 517 618 534 598 q 452 663 492 647 q 354 681 411 678 q 277 673 309 682 q 222 643 244 663 q 197 598 203 621 q 191 566 191 575 l 191 560 q 206 481 195 541 q 214 442 210 463 l 507 442 l 507 397 q 495 366 507 380 q 469 353 484 355 l 228 353 q 229 349 229 350 q 244 237 240 285 q 251 157 250 191 q 259 144 251 149 q 274 141 266 138 q 336 156 302 149 q 408 168 370 164 q 547 168 476 176 q 675 119 618 160 q 684 106 682 114 l 684 103 q 680 91 684 96 q 646 52 667 77 q 633 45 640 46 q 621 49 627 45 q 487 84 566 87 q 338 65 408 83 q 269 46 300 57 q 217 26 237 35 q 157 1 198 18 z "},"¤":{"ha":640,"x_min":28,"x_max":625,"o":"m 591 503 l 555 467 q 613 293 613 392 q 562 127 613 199 l 625 65 l 612 52 q 598 38 605 43 q 571 27 587 27 q 544 38 555 27 l 510 71 q 320 0 430 0 q 145 57 221 0 l 75 -14 l 47 14 q 35 39 37 24 l 35 41 q 45 65 35 54 l 91 111 q 28 293 28 189 q 95 479 28 400 l 37 537 l 28 547 q 56 574 37 556 q 81 586 66 585 l 83 586 q 107 576 96 586 l 152 532 q 320 585 225 585 q 500 522 423 585 l 564 585 l 591 557 q 602 530 602 547 q 591 503 602 514 m 320 510 q 206 477 256 510 l 205 477 q 167 446 184 464 q 103 293 103 382 q 167 140 103 203 q 320 76 231 76 q 473 140 410 76 q 537 293 537 203 q 473 446 537 382 q 320 510 410 510 z "},"¥":{"ha":723,"x_min":35,"x_max":674,"o":"m 408 327 l 674 327 l 674 278 q 659 244 674 258 q 636 229 650 233 l 408 229 l 408 191 l 674 191 l 674 142 q 659 109 674 122 q 625 94 646 94 l 408 94 l 408 22 q 401 7 408 12 q 388 0 396 0 l 323 0 q 309 5 315 0 q 302 20 302 12 l 302 94 l 35 94 l 35 144 q 50 178 35 163 q 84 191 64 191 l 302 191 l 302 229 l 46 229 l 46 278 q 60 313 46 298 q 95 327 75 327 l 302 327 q 115 445 190 347 q 38 678 38 544 l 38 792 q 42 803 38 799 q 54 808 47 808 l 113 808 q 125 803 119 808 q 130 791 129 798 l 130 678 q 195 499 129 574 q 357 426 262 426 q 518 499 452 426 q 585 680 585 574 l 585 798 q 591 806 587 803 q 601 808 595 808 l 659 808 q 671 803 666 808 q 674 795 674 800 l 674 678 q 597 446 674 545 q 408 327 519 347 z "},"©":{"ha":529,"x_min":23,"x_max":500,"o":"m 262 304 q 94 374 163 304 q 23 543 23 444 q 94 712 23 642 q 262 781 163 781 q 431 712 361 781 q 500 543 500 642 q 431 374 500 444 q 262 304 361 304 m 262 720 q 137 667 189 720 q 85 543 85 616 q 137 418 85 469 q 262 366 189 366 q 387 418 335 366 q 439 543 439 469 q 387 667 439 616 q 262 720 335 720 m 349 457 q 313 434 334 442 q 269 426 293 426 q 186 460 221 426 q 152 543 152 494 q 186 625 152 591 q 269 661 221 661 q 309 652 290 661 q 345 632 330 646 q 330 618 339 628 q 302 633 317 628 q 269 639 286 639 q 201 610 229 639 q 172 543 172 582 q 201 473 172 502 q 269 445 229 445 q 305 452 289 445 q 335 471 321 458 q 342 464 338 467 l 349 457 z "},"®":{"ha":529,"x_min":33,"x_max":507,"o":"m 270 301 q 103 372 172 301 q 33 538 33 441 q 103 707 33 637 q 270 776 172 776 q 438 707 369 776 q 507 538 507 637 q 438 372 507 441 q 270 301 369 301 m 270 716 q 145 665 197 716 q 94 541 94 613 q 145 416 94 468 q 270 365 197 365 q 393 416 342 365 q 445 541 445 468 q 393 665 445 613 q 270 716 342 716 m 349 415 l 332 415 q 330 416 331 415 l 328 418 q 278 521 312 452 l 275 521 l 274 519 l 213 519 l 213 425 q 209 418 213 420 q 202 414 206 415 l 190 414 l 190 595 q 213 651 190 628 q 267 674 235 674 l 269 674 q 323 651 301 674 q 345 595 345 628 q 339 571 345 583 q 327 549 335 559 l 327 548 l 326 548 q 323 544 324 545 l 317 538 q 315 537 316 537 l 313 536 l 313 534 l 312 534 q 307 530 309 533 q 300 528 304 529 l 353 422 l 353 420 q 353 418 354 419 q 349 415 351 415 m 323 597 q 307 636 323 620 q 269 652 290 652 l 267 652 q 228 636 244 652 q 213 597 213 620 l 213 544 q 216 543 214 543 l 267 543 q 307 559 290 543 q 323 597 323 575 z "},"°":{"ha":250,"x_min":28,"x_max":228,"o":"m 127 779 q 57 808 87 779 q 28 879 28 838 q 57 949 28 920 q 127 979 87 979 q 198 949 170 979 q 228 879 228 921 q 198 808 228 837 q 127 779 170 779 m 127 906 q 109 898 117 906 q 102 879 102 890 q 109 860 102 868 q 127 852 117 852 q 146 860 138 852 q 155 879 155 868 q 146 898 155 890 q 127 906 138 906 z "},"µ":{"ha":612,"x_min":30,"x_max":570,"o":"m 30 -122 l 30 568 q 34 578 30 574 q 43 582 38 582 l 94 582 q 103 578 99 582 q 107 568 107 574 l 107 282 q 163 129 107 193 q 300 66 220 66 q 437 129 380 66 q 492 282 492 193 l 492 574 q 498 579 494 578 q 505 582 500 582 l 555 582 q 566 578 562 582 q 570 568 570 574 l 570 281 q 490 68 570 156 q 300 -20 411 -20 q 109 68 187 -20 l 104 72 l 104 -122 q 99 -134 104 -129 q 87 -140 95 -140 l 47 -140 q 34 -134 39 -140 q 30 -122 30 -129 z "},"¿":{"ha":529,"x_min":28,"x_max":500,"o":"m 28 415 q 56 578 28 506 q 140 704 84 651 q 212 758 174 736 q 286 792 250 779 q 393 819 346 812 l 393 1009 l 435 1009 q 464 998 452 1009 q 477 971 476 987 l 477 768 l 476 768 l 476 739 l 471 739 l 425 736 q 320 715 378 735 q 256 688 289 705 q 197 643 224 670 q 133 545 155 602 q 111 415 111 488 q 133 286 111 343 q 195 189 153 231 q 255 142 222 161 q 317 113 286 125 q 422 87 377 91 q 468 84 467 84 l 475 84 l 475 0 l 468 0 q 410 5 464 0 q 285 37 355 9 q 209 73 247 50 q 136 130 170 96 q 54 255 81 183 q 28 415 28 327 m 500 1150 q 481 1104 500 1123 q 434 1084 461 1084 q 387 1104 407 1084 q 368 1150 368 1123 l 368 1217 l 434 1217 q 481 1198 461 1217 q 500 1150 500 1179 z "},"À":{"ha":814,"x_min":34,"x_max":785,"o":"m 785 582 l 785 11 q 780 0 785 4 q 769 -5 776 -5 l 718 -5 q 707 0 711 -5 q 701 11 701 4 l 701 209 l 118 209 l 118 15 q 114 3 118 8 q 102 -3 109 -3 l 52 -3 q 39 3 45 -3 q 34 15 34 8 l 34 563 q 35 583 34 566 q 41 629 35 601 q 75 758 47 682 q 164 897 102 833 q 278 974 213 945 q 420 1002 342 1002 q 559 971 498 1002 q 666 892 620 941 q 750 757 726 830 q 781 629 774 682 q 785 582 784 601 m 701 560 q 699 606 701 562 q 677 712 697 652 q 650 774 666 743 q 605 834 632 807 q 522 895 570 871 q 414 918 475 918 q 308 895 355 918 q 224 836 259 872 q 178 776 195 808 q 148 713 159 745 q 122 609 126 654 q 118 563 118 564 l 118 286 l 701 286 l 701 560 m 396 1168 q 434 1153 418 1168 q 450 1114 450 1137 l 450 1059 l 391 1059 q 353 1076 368 1059 q 336 1114 336 1092 l 336 1168 l 396 1168 z "},"Á":{"ha":812,"x_min":34,"x_max":784,"o":"m 784 557 l 784 11 q 780 -1 784 4 q 768 -5 774 -5 l 718 -5 q 705 -1 711 -5 q 700 11 700 4 l 700 209 l 118 209 l 118 14 q 113 3 118 7 q 100 -3 107 -3 l 50 -3 q 38 3 43 -3 q 34 14 34 7 l 34 582 q 39 629 35 601 q 73 757 47 682 q 163 895 100 833 q 277 972 212 944 q 420 1001 340 1001 q 557 971 498 1001 q 665 892 618 940 q 719 821 697 859 q 753 746 741 783 q 781 621 777 675 q 784 557 784 566 m 700 560 l 699 606 q 677 711 696 652 q 648 774 666 742 q 605 834 631 807 q 522 894 570 871 q 412 918 475 918 q 307 894 354 917 q 222 836 259 872 q 176 776 195 808 q 146 712 159 743 q 121 608 125 654 l 118 563 l 118 286 l 700 286 l 700 560 m 385 1168 l 446 1168 l 446 1114 q 431 1076 446 1092 q 392 1059 415 1059 l 334 1059 l 334 1114 q 349 1153 334 1137 q 385 1168 363 1166 z "},"Â":{"ha":826,"x_min":47,"x_max":798,"o":"m 798 557 l 798 11 q 793 -1 798 4 q 781 -5 788 -5 l 730 -5 q 719 -1 723 -5 q 713 11 713 4 l 713 209 l 130 209 l 130 14 q 126 3 130 7 q 114 -3 121 -3 l 64 -3 q 52 3 57 -3 q 47 14 47 7 l 47 582 q 53 629 49 601 q 87 757 61 682 q 176 895 114 833 q 290 972 225 944 q 434 1001 354 1001 q 571 971 510 1001 q 678 892 632 940 q 732 821 711 859 q 766 746 753 783 q 795 621 791 675 q 798 557 798 566 m 713 560 l 712 606 q 689 711 709 652 q 662 774 680 742 q 617 834 644 807 q 536 894 582 871 q 426 918 488 918 q 320 894 368 917 q 236 836 271 872 q 190 776 209 808 q 160 712 171 743 q 134 608 138 654 l 130 563 l 130 286 l 713 286 l 713 560 m 539 1038 q 535 1034 539 1038 q 525 1031 532 1031 q 514 1035 518 1031 q 435 1115 486 1065 q 425 1119 430 1119 q 414 1115 418 1119 l 336 1038 q 321 1034 330 1032 q 307 1040 313 1034 q 300 1054 300 1047 q 304 1065 300 1061 l 414 1173 q 425 1179 419 1179 q 437 1173 431 1179 l 543 1067 q 547 1054 547 1062 l 547 1053 q 539 1038 547 1044 z "},"Ã":{"ha":812,"x_min":34,"x_max":784,"o":"m 784 583 l 784 14 q 780 1 784 7 q 768 -4 774 -4 l 716 -4 q 705 1 709 -4 q 700 14 700 7 l 700 212 l 117 212 l 117 16 q 113 4 117 9 q 100 0 107 0 l 50 0 q 38 4 43 0 q 34 16 34 9 l 34 564 q 38 624 34 568 q 69 749 42 678 q 107 826 84 787 q 163 898 129 864 q 277 975 212 947 q 420 1004 340 1004 q 557 974 496 1004 q 665 895 618 943 q 749 758 724 833 q 780 632 773 685 q 784 583 784 602 m 700 563 l 699 609 q 675 713 696 655 q 648 777 666 745 q 604 837 631 808 q 521 897 568 873 q 412 920 475 920 q 307 897 354 920 q 222 838 258 875 q 176 779 195 810 q 146 715 157 746 q 121 610 125 656 q 117 564 117 566 l 117 289 l 700 289 l 700 563 m 227 1085 l 227 1128 q 237 1156 227 1145 q 264 1169 248 1168 l 593 1169 l 593 1127 q 581 1097 593 1109 q 551 1085 568 1085 l 227 1085 z "},"Ä":{"ha":804,"x_min":26,"x_max":776,"o":"m 776 583 l 776 14 q 772 1 776 7 q 760 -4 766 -4 l 709 -4 q 697 1 703 -4 q 693 14 693 7 l 693 212 l 110 212 l 110 16 q 104 4 110 9 q 92 0 99 0 l 42 0 q 30 4 35 0 q 26 16 26 9 l 26 564 q 30 624 26 568 q 61 749 35 678 q 99 826 76 787 q 156 898 122 864 q 269 975 205 947 q 412 1004 334 1004 q 549 974 490 1004 q 656 895 610 943 q 741 758 716 833 q 772 632 765 685 q 776 583 776 602 m 693 563 l 690 609 q 669 713 688 655 q 640 777 658 745 q 597 837 623 808 q 514 897 562 873 q 404 920 467 920 q 298 897 347 920 q 214 838 251 875 q 168 779 187 810 q 138 715 151 746 q 113 610 117 656 q 110 564 110 566 l 110 289 l 693 289 l 693 563 m 320 1173 q 361 1157 343 1173 q 377 1116 377 1141 l 377 1059 l 316 1059 q 275 1076 292 1059 q 259 1116 259 1092 l 259 1173 l 320 1173 m 498 1173 l 562 1173 l 562 1116 q 545 1076 562 1092 q 505 1059 528 1059 l 444 1059 l 444 1116 q 460 1157 444 1141 q 498 1173 476 1172 z "},"Å":{"ha":812,"x_min":34,"x_max":784,"o":"m 784 559 l 784 11 q 780 0 784 4 q 768 -5 774 -5 l 718 -5 q 705 0 711 -5 q 701 11 701 4 l 701 209 l 118 209 l 118 15 q 113 3 118 8 q 100 -1 107 -1 l 50 -1 q 38 3 43 -1 q 34 15 34 8 l 34 563 q 38 621 34 567 q 69 747 43 677 q 107 823 84 785 q 164 897 130 863 q 277 974 213 945 q 420 1002 342 1002 q 557 971 498 1002 q 665 892 618 941 q 719 822 697 860 q 753 746 741 784 q 781 621 777 677 q 784 559 784 567 m 701 560 q 699 608 701 562 q 677 712 696 652 q 648 776 666 743 q 605 834 631 807 q 522 895 570 872 q 412 918 475 918 q 307 895 355 918 q 222 837 259 872 q 176 777 195 808 q 146 713 159 745 q 121 609 125 654 q 118 563 118 564 l 118 286 l 701 286 l 701 560 m 422 1023 q 408 1021 415 1021 q 357 1039 380 1021 q 323 1096 328 1061 q 321 1109 321 1103 q 339 1161 321 1138 q 396 1195 361 1190 q 411 1196 404 1196 q 461 1179 438 1196 q 495 1122 491 1158 q 496 1108 496 1115 q 479 1057 496 1080 q 422 1023 457 1028 m 402 1131 q 399 1131 402 1131 q 391 1123 396 1130 q 387 1109 387 1116 l 387 1105 q 396 1090 388 1096 q 406 1086 401 1086 q 416 1086 411 1085 q 429 1095 422 1088 q 433 1108 433 1101 l 433 1112 q 423 1127 431 1122 q 410 1133 416 1131 q 402 1131 408 1133 z "},"Æ":{"ha":1314,"x_min":34,"x_max":1286,"o":"m 1268 911 l 806 911 q 793 906 799 911 q 788 894 788 901 l 788 597 q 793 585 788 589 q 806 579 799 579 l 1139 579 q 1150 574 1146 579 q 1156 563 1156 570 l 1156 517 q 1150 505 1156 510 q 1139 500 1146 500 l 806 500 q 793 495 799 500 q 788 483 788 490 l 788 71 l 1268 71 q 1280 66 1275 71 q 1286 54 1286 61 l 1286 12 q 1280 0 1286 5 q 1268 -5 1275 -5 l 718 -5 q 705 0 711 -5 q 700 11 700 4 l 700 209 l 118 209 l 118 15 q 113 3 118 8 q 100 -1 107 -1 l 50 -1 q 38 3 43 -1 q 34 15 34 8 l 34 563 q 38 621 34 567 q 69 747 43 677 q 107 823 84 785 q 163 897 129 863 q 277 974 212 945 q 420 1002 340 1002 q 557 971 498 1002 q 665 892 618 941 q 709 837 690 867 l 709 974 q 715 986 709 981 q 726 991 719 991 l 788 991 l 788 990 l 1268 990 q 1280 985 1275 990 q 1286 974 1286 981 l 1286 928 q 1280 916 1286 921 q 1268 911 1275 911 m 700 560 q 699 608 700 562 q 677 712 696 652 q 648 776 666 743 q 605 834 631 807 q 522 895 570 872 q 412 918 475 918 q 307 895 354 918 q 222 837 259 872 q 176 777 195 808 q 146 713 159 745 q 121 609 125 654 q 118 563 118 564 l 118 286 l 700 286 l 700 560 z "},"Ç":{"ha":892,"x_min":28,"x_max":854,"o":"m 812 184 q 831 167 822 176 q 849 148 840 157 q 854 136 854 144 q 849 123 854 129 q 700 35 783 68 q 548 4 628 8 q 594 -23 574 -3 q 625 -99 625 -54 l 625 -208 l 507 -208 q 435 -176 465 -206 q 403 -99 403 -144 l 403 8 l 441 8 q 387 23 410 12 q 263 79 320 42 q 92 255 157 144 q 28 499 28 366 l 28 500 q 49 639 28 572 q 103 761 68 704 q 279 932 168 867 q 525 996 391 996 q 688 968 610 996 q 827 892 765 941 q 834 880 834 888 q 829 867 834 872 l 792 830 q 781 826 788 826 q 770 829 776 825 q 656 888 719 867 q 525 910 594 910 q 410 894 465 910 q 308 849 355 878 q 167 701 220 793 q 114 498 113 608 q 132 382 114 438 q 178 281 148 328 q 327 141 233 194 q 530 90 419 88 q 670 117 604 91 q 789 187 736 142 q 800 190 795 190 q 812 184 807 190 z "},"È":{"ha":636,"x_min":33,"x_max":608,"o":"m 591 0 l 49 0 q 38 5 42 0 q 33 16 33 9 l 33 978 q 38 990 33 986 q 49 996 42 996 l 111 996 l 111 994 l 591 994 q 604 990 598 994 q 608 978 608 985 l 608 932 q 604 921 608 925 q 591 916 598 916 l 129 916 q 117 910 122 916 q 111 898 111 906 l 111 601 q 117 589 111 594 q 129 585 122 585 l 461 585 q 473 579 469 585 q 479 567 479 574 l 479 522 q 473 510 479 514 q 461 505 469 505 l 129 505 q 117 500 122 505 q 111 488 111 495 l 111 76 l 591 76 q 604 71 598 76 q 608 58 608 66 l 608 16 q 604 5 608 9 q 591 0 598 0 m 343 1153 q 359 1115 359 1137 l 359 1059 l 301 1059 q 262 1076 278 1059 q 247 1115 247 1092 l 247 1169 l 307 1169 q 343 1153 327 1168 z "},"É":{"ha":644,"x_min":33,"x_max":616,"o":"m 600 0 l 50 0 q 38 5 43 0 q 33 18 33 9 l 33 991 q 38 1004 33 1000 q 50 1009 43 1009 l 113 1009 l 113 1008 l 600 1008 q 612 1004 606 1008 q 616 991 616 998 l 616 945 q 612 933 616 939 q 600 928 606 928 l 130 928 q 118 924 123 928 q 113 911 113 918 l 113 609 q 118 597 113 602 q 130 593 123 593 l 468 593 q 480 587 475 593 q 486 575 486 582 l 486 529 q 480 517 486 522 q 468 511 475 511 l 130 511 q 118 507 123 511 q 113 495 113 502 l 113 77 l 600 77 q 612 72 606 77 q 616 60 616 66 l 616 18 q 612 5 616 9 q 600 0 606 0 m 330 1169 l 389 1169 l 389 1115 q 373 1076 389 1092 q 335 1059 357 1059 l 275 1059 l 275 1115 q 292 1153 275 1137 q 330 1169 308 1169 z "},"Ê":{"ha":640,"x_min":33,"x_max":612,"o":"m 595 0 l 49 0 q 38 5 42 0 q 33 16 33 9 l 33 986 q 38 998 33 993 q 49 1002 42 1002 l 595 1002 q 608 997 602 1002 q 612 985 612 991 l 612 939 q 608 928 612 932 q 595 922 602 922 l 129 922 q 117 917 122 922 q 113 905 113 913 l 113 605 q 117 593 113 598 q 129 589 122 589 l 465 589 q 476 583 472 589 q 481 571 481 578 l 481 525 q 476 514 481 518 q 465 509 472 509 l 129 509 q 117 503 122 509 q 113 491 113 499 l 113 76 l 595 76 q 608 72 602 76 q 612 60 612 66 l 612 16 q 608 5 612 9 q 595 0 602 0 m 437 1038 q 434 1034 437 1038 q 423 1031 430 1031 q 412 1035 416 1031 q 334 1115 384 1065 q 323 1119 328 1119 q 312 1115 316 1119 l 235 1038 q 220 1034 228 1032 q 205 1040 212 1034 q 198 1054 198 1047 q 202 1065 198 1061 l 312 1173 q 323 1179 317 1179 q 335 1173 330 1179 l 441 1067 q 445 1054 445 1062 l 445 1053 q 437 1038 445 1044 z "},"Ë":{"ha":636,"x_min":33,"x_max":608,"o":"m 591 0 l 49 0 q 37 5 42 0 q 33 16 33 9 l 33 978 q 37 990 33 985 q 49 996 42 996 l 111 996 l 111 994 l 591 994 q 602 989 598 994 q 608 978 608 985 l 608 932 q 602 920 608 925 q 591 916 598 916 l 127 916 q 117 910 121 916 q 111 898 111 906 l 111 601 q 117 589 111 594 q 127 583 121 583 l 461 583 q 473 579 468 583 q 477 567 477 574 l 477 522 q 473 510 477 514 q 461 505 468 505 l 127 505 q 117 499 121 505 q 111 488 111 495 l 111 76 l 591 76 q 602 71 598 76 q 608 58 608 66 l 608 16 q 602 5 608 9 q 591 0 598 0 m 170 1173 l 232 1173 q 271 1157 255 1172 q 288 1116 288 1141 l 288 1059 l 227 1059 q 186 1076 203 1059 q 170 1116 170 1093 l 170 1173 m 411 1173 l 472 1173 l 472 1116 q 456 1076 472 1093 q 415 1059 439 1059 l 355 1059 l 355 1116 q 372 1157 355 1141 q 411 1173 388 1173 z "},"Ì":{"ha":194,"x_min":26,"x_max":140,"o":"m 64 -4 q 56 0 60 -4 q 53 8 53 3 l 53 989 q 56 998 53 994 q 65 1001 60 1001 l 122 1001 q 132 998 127 1001 q 134 989 134 994 l 134 8 q 132 0 134 3 q 123 -4 127 -4 l 64 -4 m 26 1168 l 85 1168 q 123 1153 107 1166 q 140 1114 140 1137 l 140 1059 l 80 1059 q 42 1076 57 1059 q 26 1114 26 1092 l 26 1168 z "},"Í":{"ha":167,"x_min":28,"x_max":141,"o":"m 41 -4 q 33 0 35 -4 q 28 8 28 3 l 28 989 q 33 998 28 994 q 42 1001 37 1001 l 98 1001 q 107 998 103 1001 q 111 989 111 994 l 111 8 q 109 0 111 3 q 100 -4 104 -4 l 41 -4 m 80 1169 l 141 1169 l 141 1115 q 125 1076 141 1092 q 87 1059 110 1059 l 28 1059 l 28 1115 q 43 1153 28 1137 q 80 1169 58 1168 z "},"Î":{"ha":250,"x_min":1,"x_max":248,"o":"m 95 -4 q 87 0 90 -4 q 84 8 84 3 l 84 989 q 87 998 84 994 q 96 1001 91 1001 l 152 1001 q 161 998 159 1001 q 165 989 165 994 l 165 8 q 163 0 165 3 q 155 -4 159 -4 l 95 -4 m 241 1038 q 237 1034 241 1038 q 227 1031 233 1031 q 216 1035 220 1031 q 137 1115 187 1065 q 126 1119 132 1119 q 115 1115 119 1119 l 38 1038 q 23 1034 31 1032 q 8 1040 15 1034 q 1 1054 1 1047 q 5 1065 1 1061 l 115 1173 q 126 1179 121 1179 q 138 1173 133 1179 l 244 1067 q 248 1054 248 1062 l 248 1053 q 241 1038 248 1044 z "},"Ï":{"ha":305,"x_min":3,"x_max":307,"o":"m 123 0 q 115 3 119 0 q 113 11 113 7 l 113 993 q 117 1001 113 998 q 126 1005 121 1005 l 182 1005 q 191 1001 187 1005 q 195 993 195 998 l 195 11 q 191 3 195 7 q 183 0 189 0 l 123 0 m 104 1158 q 122 1118 122 1141 l 122 1059 l 61 1059 q 20 1077 37 1059 q 3 1118 3 1093 l 3 1175 l 66 1175 q 104 1158 90 1173 m 248 1059 l 189 1059 l 189 1118 q 205 1158 189 1141 q 241 1175 220 1173 l 307 1175 l 307 1118 q 289 1077 307 1093 q 248 1059 273 1059 z "},"Ñ":{"ha":891,"x_min":38,"x_max":856,"o":"m 840 -3 l 789 -3 q 777 1 783 -3 q 773 14 773 7 l 773 559 l 770 604 q 749 708 769 648 q 722 770 739 739 q 678 830 704 803 q 581 894 637 872 q 450 916 524 916 q 323 894 380 914 q 225 833 267 873 q 180 773 198 804 q 151 711 161 742 q 125 608 129 652 q 122 562 122 563 l 122 18 q 117 5 122 11 q 104 1 111 1 l 54 1 q 43 5 47 1 q 38 18 38 11 l 38 560 q 43 618 38 564 q 75 743 47 673 q 111 818 88 780 q 167 890 133 857 q 292 971 220 943 q 450 998 362 998 q 613 970 541 998 q 738 887 685 943 q 822 753 798 826 q 852 627 846 680 q 856 579 856 598 l 856 14 q 852 1 856 7 q 840 -3 846 -3 m 587 1085 l 264 1085 l 264 1127 q 275 1156 264 1143 q 301 1169 286 1168 l 631 1169 l 631 1127 q 618 1097 631 1109 q 587 1085 606 1085 z "},"Ò":{"ha":1058,"x_min":33,"x_max":1028,"o":"m 530 7 q 285 72 397 7 q 107 243 174 137 q 53 366 72 300 q 33 503 33 433 q 53 642 33 575 q 107 765 72 708 q 285 936 174 871 q 530 1001 397 1001 q 669 982 602 1001 q 792 926 735 963 q 963 749 899 861 q 1028 503 1028 637 q 1009 366 1028 431 q 954 243 989 300 q 776 72 887 137 q 530 7 665 7 m 530 916 q 416 899 471 916 q 313 854 361 883 q 172 707 225 799 q 118 503 118 614 q 134 389 118 444 q 180 288 151 334 q 327 145 235 199 q 530 92 420 92 q 646 109 590 92 q 747 153 701 125 q 890 301 836 209 q 943 503 943 393 q 888 707 943 614 q 747 854 836 799 q 646 899 700 883 q 530 916 590 916 m 543 1153 q 559 1115 559 1137 l 559 1059 l 499 1059 q 461 1076 477 1059 q 445 1115 445 1092 l 445 1169 l 505 1169 q 543 1153 526 1169 z "},"Ó":{"ha":1057,"x_min":28,"x_max":1023,"o":"m 525 7 q 387 27 453 7 q 263 81 320 46 q 92 259 157 148 q 28 503 28 370 q 47 642 28 575 q 103 765 66 708 q 279 936 168 871 q 525 1001 392 1001 q 663 982 597 1001 q 788 926 730 963 q 958 749 894 861 q 1023 503 1023 637 q 1004 366 1023 431 q 948 243 983 300 q 770 72 882 137 q 525 7 659 7 m 525 916 q 411 899 465 916 q 308 854 355 883 q 167 707 221 799 q 114 503 114 614 q 130 389 114 444 q 175 288 146 334 q 323 145 231 199 q 525 92 415 92 q 640 109 586 92 q 742 153 696 125 q 884 301 830 209 q 937 503 937 393 q 884 707 937 614 q 742 854 830 799 q 640 899 694 883 q 525 916 585 916 m 524 1168 l 585 1168 l 585 1114 q 568 1076 585 1092 q 530 1059 552 1059 l 471 1059 l 471 1114 q 487 1153 471 1137 q 524 1168 502 1166 z "},"Ô":{"ha":1057,"x_min":34,"x_max":1029,"o":"m 532 0 q 393 19 460 0 q 270 75 327 39 q 99 252 164 141 q 34 496 34 363 q 99 742 34 631 q 270 920 164 853 q 393 975 327 955 q 532 994 460 994 q 670 975 604 994 q 793 920 736 955 q 964 742 899 854 q 1029 496 1029 631 q 1009 358 1029 425 q 955 235 990 292 q 777 65 888 129 q 532 0 665 0 m 532 909 q 416 892 472 909 q 315 848 362 876 q 174 700 227 792 q 119 496 119 608 q 174 294 119 387 q 315 146 227 201 q 416 100 362 117 q 532 84 472 84 q 647 100 591 84 q 749 146 701 117 q 890 294 837 201 q 944 496 944 387 q 928 612 944 556 q 882 713 911 667 q 734 856 827 802 q 532 909 642 909 m 648 1038 q 644 1034 648 1038 q 633 1031 640 1031 q 623 1035 627 1031 q 544 1115 594 1065 q 533 1119 538 1119 q 522 1115 526 1119 l 445 1038 q 430 1034 438 1032 q 415 1040 422 1034 q 408 1054 408 1047 q 412 1065 408 1061 l 522 1173 q 533 1179 528 1179 q 545 1173 540 1179 l 651 1067 q 655 1054 655 1062 l 655 1053 q 648 1038 655 1044 z "},"Õ":{"ha":1058,"x_min":31,"x_max":1027,"o":"m 529 0 q 391 19 457 0 q 267 75 324 39 q 96 252 161 141 q 31 496 31 363 q 52 635 31 568 q 106 758 71 701 q 283 929 172 864 q 529 994 395 994 q 667 975 601 994 q 791 920 734 955 q 962 742 897 854 q 1027 496 1027 631 q 1008 358 1027 425 q 952 235 987 292 q 774 65 886 129 q 529 0 662 0 m 529 909 q 326 856 418 909 q 179 713 233 802 q 133 612 149 667 q 117 496 117 556 q 133 382 117 437 q 179 279 149 327 q 326 138 233 191 q 529 84 418 84 q 644 100 589 84 q 746 146 699 117 q 887 294 834 201 q 941 496 941 387 q 887 700 941 608 q 746 848 834 792 q 644 892 699 876 q 529 909 589 909 m 346 1085 l 346 1128 q 357 1156 346 1145 q 382 1169 368 1168 l 712 1169 l 712 1127 q 700 1097 712 1109 q 670 1085 688 1085 l 346 1085 z "},"Ö":{"ha":1057,"x_min":28,"x_max":1023,"o":"m 525 0 q 387 19 453 0 q 263 75 320 39 q 92 252 157 141 q 28 496 28 363 q 47 635 28 568 q 103 758 66 701 q 279 929 168 864 q 525 994 392 994 q 663 975 597 994 q 788 920 730 955 q 958 742 894 854 q 1023 496 1023 631 q 1004 358 1023 425 q 948 235 983 292 q 770 65 882 129 q 525 0 659 0 m 525 911 q 411 895 465 911 q 308 849 355 879 q 167 703 221 795 q 114 499 114 610 q 130 384 114 439 q 175 282 146 330 q 323 141 231 194 q 525 87 415 87 q 640 103 586 87 q 742 149 696 119 q 884 296 830 203 q 937 499 937 389 q 884 703 937 610 q 742 849 830 795 q 640 895 694 879 q 525 911 585 911 m 481 1157 q 499 1116 499 1141 l 499 1059 l 435 1059 q 397 1076 412 1059 q 380 1116 380 1093 l 380 1173 l 442 1173 q 481 1157 465 1173 m 623 1173 l 684 1173 l 684 1116 q 666 1076 684 1093 q 627 1059 650 1059 l 566 1059 l 566 1116 q 582 1157 566 1141 q 623 1173 598 1173 z "},"×":{"ha":500,"x_min":35,"x_max":473,"o":"m 72 651 q 49 674 61 661 l 35 688 l 76 728 q 114 746 92 745 l 117 746 q 153 734 137 746 q 243 643 190 696 l 378 779 q 399 758 388 770 q 419 738 411 747 q 435 697 435 720 q 419 656 435 673 l 323 560 q 431 454 373 513 q 457 430 439 446 l 473 414 l 431 372 q 391 355 415 355 q 350 372 366 355 q 241 479 307 415 l 146 384 l 144 378 q 119 355 133 369 l 106 342 l 85 362 q 65 384 75 374 q 47 422 49 399 l 47 425 q 61 460 47 445 q 160 560 102 500 q 76 646 121 601 q 72 651 75 647 z "},"Ø":{"ha":1085,"x_min":27,"x_max":1034,"o":"m 944 1000 q 974 968 954 989 q 986 937 986 956 q 974 907 986 920 l 902 836 q 968 746 939 795 q 1034 499 1034 633 q 1013 361 1034 427 q 959 236 994 294 q 780 65 892 130 q 534 0 667 0 q 395 20 461 0 q 271 75 328 39 q 198 129 232 99 l 99 30 q 81 12 92 22 l 72 1 l 41 33 q 27 61 28 43 l 27 62 q 37 90 27 79 l 140 193 q 99 254 118 221 q 34 499 34 365 q 54 639 34 572 q 110 762 75 705 q 288 935 176 869 q 534 998 400 998 q 673 979 606 998 q 798 924 739 959 q 838 895 818 910 q 913 968 864 920 q 930 987 918 975 l 944 1000 m 330 140 q 534 85 423 85 q 648 102 594 85 q 751 148 704 118 q 894 296 840 202 q 948 499 948 388 q 932 614 948 559 q 886 718 916 670 q 841 776 865 749 l 259 190 q 330 140 290 161 m 534 913 q 330 859 423 913 q 183 718 237 806 q 137 614 153 670 q 121 499 121 559 q 137 385 121 439 q 183 282 153 330 q 201 254 191 267 q 777 833 427 481 q 738 859 758 846 q 534 913 646 913 z "},"Ù":{"ha":891,"x_min":35,"x_max":857,"o":"m 52 1004 l 103 1004 q 114 1000 110 1004 q 119 987 119 994 l 119 441 q 121 395 119 439 q 144 290 123 349 q 171 227 153 259 q 214 167 189 195 q 313 103 255 125 q 444 81 370 81 q 571 103 514 81 q 669 165 627 123 q 713 225 696 193 q 745 288 732 256 q 769 391 766 346 l 773 437 l 773 985 q 779 996 773 991 q 789 1001 783 1001 l 841 1001 q 852 996 848 1001 q 857 985 857 991 l 857 439 q 852 380 857 435 q 821 256 848 326 q 784 180 807 218 q 727 109 761 141 q 602 27 674 54 q 444 0 532 0 q 279 28 353 0 q 155 111 208 56 q 102 182 122 144 q 66 256 80 220 q 39 380 42 326 q 35 444 35 435 l 35 987 q 41 1000 35 994 q 52 1004 45 1004 m 449 1169 q 487 1153 471 1169 q 503 1115 503 1137 l 503 1059 l 444 1059 q 406 1076 420 1059 q 389 1115 389 1092 l 389 1169 l 449 1169 z "},"Ú":{"ha":891,"x_min":35,"x_max":857,"o":"m 52 1001 l 103 1001 q 114 997 110 1001 q 119 985 119 991 l 119 438 q 121 392 119 437 q 144 288 123 347 q 171 224 153 256 q 214 164 189 193 q 313 100 255 122 q 444 80 370 80 q 571 100 514 80 q 669 163 628 121 q 715 222 696 190 q 745 285 732 254 q 769 389 766 343 q 773 435 773 434 l 773 982 q 779 993 773 989 q 789 998 783 998 l 841 998 q 852 993 848 998 q 857 982 857 989 l 857 437 q 852 378 857 433 q 821 254 848 324 q 784 178 807 216 q 727 106 761 140 q 602 24 674 53 q 444 -3 532 -3 q 281 26 353 -3 q 155 109 208 53 q 102 179 122 141 q 66 254 80 217 q 39 378 42 323 q 35 441 35 433 l 35 985 q 41 997 35 991 q 52 1001 45 1001 m 469 1169 l 532 1169 l 532 1114 q 515 1076 532 1092 q 476 1059 499 1059 l 418 1059 l 418 1114 q 434 1153 418 1137 q 469 1169 449 1168 z "},"Û":{"ha":890,"x_min":34,"x_max":854,"o":"m 50 1004 l 100 1004 q 113 1000 107 1004 q 117 987 117 994 l 117 441 q 119 395 117 439 q 141 290 121 350 q 170 227 152 259 q 213 167 186 195 q 311 103 254 125 q 441 83 368 83 q 568 103 511 83 q 666 165 625 123 q 712 225 693 193 q 742 288 730 256 q 768 392 764 346 q 772 438 772 437 l 772 985 q 776 996 772 991 q 788 1001 781 1001 l 838 1001 q 850 996 845 1001 q 854 985 854 991 l 854 439 q 850 381 854 435 q 819 256 845 326 q 781 180 804 218 q 726 109 760 142 q 601 27 671 54 q 441 0 529 0 q 278 28 350 0 q 152 111 206 56 q 99 182 121 144 q 65 256 77 220 q 37 381 41 326 q 34 444 34 435 l 34 987 q 38 1000 34 994 q 50 1004 43 1004 m 561 1038 q 557 1034 561 1038 q 547 1031 553 1031 q 536 1035 540 1031 q 457 1115 507 1065 q 446 1119 452 1119 q 435 1115 439 1119 l 358 1038 q 343 1034 351 1032 q 328 1040 335 1034 q 321 1054 321 1047 q 326 1065 321 1061 l 435 1173 q 446 1179 441 1179 q 458 1173 453 1179 l 564 1067 q 568 1054 568 1062 l 568 1053 q 561 1038 568 1044 z "},"Ü":{"ha":897,"x_min":41,"x_max":863,"o":"m 57 1006 l 109 1006 q 119 1002 115 1006 q 125 990 125 997 l 125 444 q 127 397 125 442 q 149 293 129 351 q 176 229 159 262 q 221 170 194 198 q 319 106 260 127 q 449 84 376 84 q 576 106 519 84 q 674 168 633 126 q 720 228 701 195 q 750 290 738 259 q 774 395 772 349 l 779 439 l 779 987 q 784 998 779 994 q 795 1004 788 1004 l 846 1004 q 857 998 853 1004 q 863 987 863 994 l 863 442 q 857 384 863 438 q 826 259 853 328 q 789 183 812 221 q 732 111 766 144 q 608 30 680 57 q 449 3 537 3 q 286 31 358 3 q 160 114 213 58 q 76 250 100 175 q 46 376 52 323 q 42 423 42 404 q 41 446 41 442 l 41 990 q 46 1002 41 997 q 57 1006 50 1006 m 557 1059 l 496 1059 l 496 1116 q 513 1157 496 1141 q 553 1173 530 1173 l 614 1173 l 614 1116 q 598 1076 614 1093 q 557 1059 581 1059 m 414 1157 q 430 1116 430 1141 l 430 1059 l 369 1059 q 328 1076 345 1059 q 312 1116 312 1093 l 312 1173 l 374 1173 q 414 1157 396 1172 z "},"Ý":{"ha":920,"x_min":28,"x_max":888,"o":"m 486 0 l 433 0 q 420 5 425 0 q 415 18 415 9 l 415 194 q 285 222 345 199 q 153 309 209 251 q 98 384 119 343 q 62 463 76 423 q 33 591 37 534 q 28 658 28 650 l 28 989 q 34 1001 28 997 q 46 1006 39 1006 l 99 1006 q 111 1001 107 1006 q 117 989 117 997 l 117 655 q 119 606 117 654 q 142 498 121 559 q 171 431 153 464 q 217 369 190 397 q 320 302 259 324 q 456 279 380 279 q 590 301 530 279 q 692 368 648 323 q 739 429 720 396 q 770 495 758 463 q 798 604 793 557 q 802 652 802 651 l 802 986 q 807 998 802 993 q 819 1002 811 1002 l 872 1002 q 884 998 879 1002 q 888 986 888 993 l 888 652 q 884 591 888 648 q 852 461 879 534 q 812 381 836 420 q 754 307 788 340 q 623 221 697 250 q 502 194 567 199 l 502 18 q 498 5 502 9 q 486 0 492 0 m 488 1059 l 392 1059 l 392 1131 q 411 1181 392 1160 q 460 1206 431 1204 l 465 1206 q 475 1204 469 1206 q 486 1206 480 1206 l 557 1206 l 557 1134 q 537 1082 557 1105 q 488 1059 517 1061 z "},"à":{"ha":654,"x_min":42,"x_max":621,"o":"m 353 764 q 369 724 369 747 l 369 670 l 311 670 q 271 686 288 670 q 256 724 256 703 l 256 780 l 316 780 q 353 764 336 779 m 621 286 l 621 14 q 617 4 621 7 q 608 0 613 0 l 335 0 q 133 81 220 0 q 42 278 46 163 l 42 289 q 77 429 42 365 q 182 537 117 498 q 258 570 217 559 q 331 579 293 579 l 343 579 q 538 487 457 574 q 621 286 621 400 m 538 95 l 538 286 q 481 431 538 370 q 339 496 423 494 l 332 496 q 186 435 247 496 q 125 289 125 374 l 125 282 q 189 140 127 198 q 335 81 251 81 l 526 81 q 534 85 530 81 q 538 95 538 90 z "},"á":{"ha":667,"x_min":42,"x_max":621,"o":"m 278 670 l 278 726 q 294 765 278 749 q 334 781 311 781 l 395 781 l 395 726 q 378 686 395 703 q 339 670 362 670 l 278 670 m 621 286 l 621 14 q 617 4 621 7 q 608 0 613 0 l 335 0 q 133 81 220 0 q 42 278 46 163 l 42 289 q 77 429 42 365 q 182 537 117 498 q 258 570 217 559 q 331 579 293 579 l 343 579 q 538 487 457 574 q 621 286 621 400 m 538 95 l 538 286 q 481 431 538 370 q 339 496 423 494 l 332 496 q 186 435 247 496 q 125 289 125 374 l 125 282 q 189 140 127 198 q 335 81 251 81 l 526 81 q 534 85 530 81 q 538 95 538 90 z "},"â":{"ha":667,"x_min":42,"x_max":621,"o":"m 449 648 l 445 644 q 434 640 441 640 q 425 644 429 640 l 345 723 q 334 728 340 728 q 323 723 328 728 l 245 647 q 232 642 240 642 q 217 648 222 643 l 213 652 q 209 663 209 656 q 213 673 209 669 l 323 783 q 335 787 328 787 q 346 783 340 787 l 452 675 q 456 663 456 670 l 456 662 q 449 648 456 654 m 621 286 l 621 14 q 617 4 621 7 q 608 0 613 0 l 335 0 q 133 81 220 0 q 42 278 46 163 l 42 289 q 77 429 42 365 q 182 537 117 498 q 258 570 217 559 q 331 579 293 579 l 343 579 q 538 487 457 574 q 621 286 621 400 m 538 95 l 538 286 q 481 431 538 370 q 339 496 423 494 l 332 496 q 186 435 247 496 q 125 289 125 374 l 125 282 q 189 140 127 198 q 335 81 251 81 l 526 81 q 534 85 530 81 q 538 95 538 90 z "},"ã":{"ha":667,"x_min":42,"x_max":621,"o":"m 141 690 l 141 734 q 152 765 141 753 q 180 780 163 777 l 524 780 l 524 736 q 510 704 524 716 q 479 690 498 690 l 141 690 m 621 286 l 621 14 q 617 4 621 7 q 608 0 613 0 l 335 0 q 133 81 220 0 q 42 278 46 163 l 42 289 q 77 429 42 365 q 182 537 117 498 q 258 570 217 559 q 331 579 293 579 l 343 579 q 538 487 457 574 q 621 286 621 400 m 538 95 l 538 286 q 481 431 538 370 q 339 496 423 494 l 332 496 q 186 435 247 496 q 125 289 125 374 l 125 282 q 189 140 127 198 q 335 81 251 81 l 526 81 q 534 85 530 81 q 538 95 538 90 z "},"ä":{"ha":667,"x_min":42,"x_max":621,"o":"m 281 768 q 298 727 298 751 l 298 670 l 237 670 q 197 688 213 670 q 179 727 179 704 l 179 785 l 241 785 q 281 768 264 785 m 419 785 l 483 785 l 483 727 q 465 688 483 704 q 425 670 449 670 l 365 670 l 365 727 q 381 768 365 751 q 419 785 396 784 m 621 286 l 621 14 q 617 4 621 7 q 608 0 613 0 l 335 0 q 133 81 220 0 q 42 278 46 163 l 42 289 q 77 429 42 365 q 182 537 117 498 q 258 570 217 559 q 331 579 293 579 l 343 579 q 538 487 457 574 q 621 286 621 400 m 538 95 l 538 286 q 481 431 538 370 q 339 496 423 494 l 332 496 q 186 435 247 496 q 125 289 125 374 l 125 282 q 189 140 127 198 q 335 81 251 81 l 526 81 q 534 85 530 81 q 538 95 538 90 z "},"å":{"ha":667,"x_min":42,"x_max":621,"o":"m 345 613 q 330 612 336 612 q 279 629 302 612 q 245 686 250 651 q 244 701 244 693 q 260 751 244 728 q 319 785 282 780 q 332 787 326 787 q 384 769 361 787 q 418 712 412 749 q 419 699 419 705 q 401 647 419 670 q 345 613 380 618 m 328 723 q 312 713 319 722 q 308 700 308 708 l 308 696 q 317 681 309 686 q 328 676 323 677 q 338 677 332 675 q 350 685 345 678 q 354 699 354 692 l 354 703 q 345 718 353 712 q 332 723 339 723 l 328 723 m 621 286 l 621 14 q 617 4 621 7 q 608 0 613 0 l 335 0 q 133 81 220 0 q 42 278 46 163 l 42 289 q 77 429 42 365 q 182 537 117 498 q 258 570 217 559 q 331 579 293 579 l 343 579 q 538 487 457 574 q 621 286 621 400 m 538 95 l 538 286 q 481 431 538 370 q 339 496 423 494 l 332 496 q 186 435 247 496 q 125 289 125 374 l 125 282 q 189 140 127 198 q 335 81 251 81 l 526 81 q 534 85 530 81 q 538 95 538 90 z "},"æ":{"ha":1080,"x_min":27,"x_max":1035,"o":"m 1032 481 q 1035 472 1035 477 l 1035 471 q 1032 464 1035 467 q 693 125 920 350 q 815 83 747 83 q 939 119 883 81 q 947 122 941 122 q 998 81 951 122 q 1002 71 1002 77 q 997 61 1002 65 q 819 0 918 0 l 810 0 q 624 73 704 3 q 609 87 616 80 l 609 12 q 605 4 609 8 q 597 0 601 0 l 321 0 q 119 81 206 0 q 28 279 33 164 q 27 292 27 285 q 38 365 27 330 q 71 441 49 407 q 179 547 110 507 q 319 582 243 582 l 331 582 q 528 491 445 578 q 567 438 551 465 q 594 476 579 457 q 779 579 666 564 q 821 582 800 582 q 982 532 909 582 q 1010 507 1001 517 q 1025 491 1019 499 l 1032 481 m 528 95 l 528 300 q 469 434 524 376 q 326 499 411 496 l 319 499 q 172 438 233 499 q 111 292 111 377 l 111 283 q 176 140 114 198 q 321 83 237 83 l 514 83 q 524 85 519 83 q 528 95 528 90 m 629 203 q 639 197 632 198 q 642 195 640 195 q 651 199 647 197 q 909 460 736 286 q 913 468 913 464 l 913 471 q 906 480 911 477 q 821 499 865 499 q 777 495 799 499 q 662 429 709 481 q 613 319 621 381 q 610 290 610 304 q 629 203 610 244 z "},"ç":{"ha":529,"x_min":27,"x_max":505,"o":"m 457 121 q 472 109 463 117 q 487 96 483 100 q 499 85 492 91 q 505 75 505 81 q 499 65 505 69 q 427 23 465 38 q 347 4 388 8 l 334 3 q 361 -15 349 -3 q 381 -66 381 -35 l 381 -140 l 302 -140 q 251 -118 273 -140 q 229 -66 229 -96 l 229 7 l 260 7 q 199 30 228 14 q 76 136 125 61 q 28 271 34 197 q 27 293 27 282 q 56 414 27 355 q 168 541 95 498 q 320 585 240 583 l 321 585 q 404 572 363 585 q 483 534 446 560 q 484 532 484 533 q 483 529 484 530 q 456 503 469 515 l 429 476 q 425 476 426 475 q 258 490 346 518 q 129 366 168 461 q 115 279 113 326 q 140 195 118 235 q 279 90 190 107 q 441 121 370 72 q 449 123 445 123 q 457 121 453 123 z "},"è":{"ha":583,"x_min":27,"x_max":538,"o":"m 536 486 q 538 476 538 481 l 538 475 q 536 468 538 471 l 194 126 q 317 83 248 84 q 441 121 385 81 q 449 123 445 123 q 457 119 453 123 l 502 81 q 506 72 506 79 q 500 61 506 65 q 320 0 420 0 l 312 0 q 125 75 205 3 q 27 271 37 152 l 27 296 q 94 480 27 399 q 279 585 167 570 q 321 587 301 587 q 486 536 410 587 q 513 511 503 521 q 536 486 522 503 m 129 205 q 140 198 133 199 l 142 198 q 151 202 146 198 l 411 463 q 415 472 415 467 l 415 475 q 408 484 415 481 q 323 503 366 503 q 278 499 301 503 q 163 433 210 486 q 113 321 121 384 q 111 293 111 307 q 129 205 110 247 m 312 764 q 328 724 328 747 l 328 670 l 270 670 q 232 686 248 670 q 216 724 216 703 l 216 779 l 275 779 q 312 764 296 777 z "},"é":{"ha":583,"x_min":27,"x_max":538,"o":"m 536 486 q 538 476 538 481 l 538 475 q 536 468 538 471 l 194 126 q 317 83 248 84 q 441 121 385 81 q 449 123 445 123 q 457 119 453 123 l 502 81 q 506 72 506 79 q 500 61 506 65 q 320 0 420 0 l 312 0 q 125 75 205 3 q 27 271 37 152 l 27 296 q 94 480 27 399 q 279 585 167 570 q 321 587 301 587 q 486 536 410 587 q 513 511 503 521 q 536 486 522 503 m 129 205 q 140 198 133 199 l 142 198 q 151 202 146 198 l 411 463 q 415 472 415 467 l 415 475 q 408 484 415 481 q 323 503 366 503 q 278 499 301 503 q 163 433 210 486 q 113 321 121 384 q 111 293 111 307 q 129 205 110 247 m 324 779 l 385 779 l 385 724 q 370 685 385 701 q 331 670 354 670 l 274 670 l 274 724 q 290 762 274 746 q 324 779 304 777 z "},"ê":{"ha":583,"x_min":27,"x_max":538,"o":"m 536 486 q 538 476 538 481 l 538 475 q 536 468 538 471 l 194 126 q 317 83 248 84 q 441 121 385 81 q 449 123 445 123 q 457 119 453 123 l 502 81 q 506 72 506 79 q 500 61 506 65 q 320 0 420 0 l 312 0 q 125 75 205 3 q 27 271 37 152 l 27 296 q 94 480 27 399 q 279 585 167 570 q 321 587 301 587 q 486 536 410 587 q 513 511 503 521 q 536 486 522 503 m 129 205 q 140 198 133 199 l 142 198 q 151 202 146 198 l 411 463 q 415 472 415 467 l 415 475 q 408 484 415 481 q 323 503 366 503 q 278 499 301 503 q 163 433 210 486 q 113 321 121 384 q 111 293 111 307 q 129 205 110 247 m 400 648 l 396 644 q 385 640 392 640 q 376 644 380 640 l 296 723 q 285 728 292 728 q 274 723 279 728 l 197 647 q 183 642 191 642 q 168 648 174 643 l 164 652 q 160 663 160 656 q 164 673 160 669 l 274 783 q 286 787 279 787 q 297 783 292 787 l 403 675 q 407 663 407 670 l 407 662 q 400 648 407 654 z "},"ë":{"ha":583,"x_min":27,"x_max":538,"o":"m 536 486 q 538 476 538 481 l 538 475 q 536 468 538 471 l 194 126 q 317 83 248 84 q 441 121 385 81 q 449 123 445 123 q 457 119 453 123 l 502 81 q 506 72 506 79 q 500 61 506 65 q 320 0 420 0 l 312 0 q 125 75 205 3 q 27 271 37 152 l 27 296 q 94 480 27 399 q 279 585 167 570 q 321 587 301 587 q 486 536 410 587 q 513 511 503 521 q 536 486 522 503 m 129 205 q 140 198 133 199 l 142 198 q 151 202 146 198 l 411 463 q 415 472 415 467 l 415 475 q 408 484 415 481 q 323 503 366 503 q 278 499 301 503 q 163 433 210 486 q 113 321 121 384 q 111 293 111 307 q 129 205 110 247 m 378 670 l 316 670 l 316 727 q 332 768 316 751 q 370 784 347 783 l 434 784 l 434 727 q 418 686 434 703 q 378 670 400 670 m 193 784 q 232 768 216 784 q 250 727 250 751 l 250 670 l 189 670 q 148 686 164 670 q 132 727 132 703 l 132 784 l 193 784 z "},"ì":{"ha":194,"x_min":27,"x_max":141,"o":"m 71 0 q 62 3 65 0 q 58 12 58 7 l 58 570 q 62 579 58 575 q 72 583 66 583 l 127 583 q 137 579 133 583 q 141 570 141 575 l 141 12 q 138 3 141 7 q 129 0 134 0 l 71 0 m 123 764 q 140 724 140 747 l 140 670 l 81 670 q 43 686 58 670 q 27 724 27 703 l 27 779 l 85 779 q 123 764 107 779 z "},"í":{"ha":167,"x_min":26,"x_max":137,"o":"m 39 1 q 31 4 34 1 q 28 12 28 7 l 28 571 q 31 581 28 576 q 41 585 35 585 l 96 585 q 106 581 103 585 q 110 571 110 576 l 110 12 q 107 4 110 7 q 99 1 103 1 l 39 1 m 77 779 l 137 779 l 137 724 q 121 686 137 703 q 83 670 106 670 l 26 670 l 26 724 q 41 764 26 747 q 77 779 56 777 z "},"î":{"ha":279,"x_min":23,"x_max":270,"o":"m 117 1 q 109 4 111 1 q 104 12 104 7 l 104 571 q 109 581 104 576 q 118 585 113 585 l 174 585 q 183 581 179 585 q 187 571 187 576 l 187 12 q 184 4 187 7 q 175 1 180 1 l 117 1 m 263 648 l 259 644 q 248 640 255 640 q 239 644 243 640 l 159 723 q 148 728 155 728 q 137 723 142 728 l 60 647 q 46 642 54 642 q 31 648 37 643 l 27 652 q 23 663 23 656 q 27 673 23 669 l 137 783 q 149 787 142 787 q 160 783 155 787 l 266 675 q 270 663 270 670 l 270 662 q 263 648 270 654 z "},"ï":{"ha":305,"x_min":-4,"x_max":298,"o":"m 123 1 q 115 4 118 1 q 111 12 111 7 l 111 571 q 115 581 111 576 q 125 585 119 585 l 180 585 q 190 581 186 585 q 194 571 194 576 l 194 12 q 190 4 194 7 q 182 1 187 1 l 123 1 m 237 784 l 298 784 l 298 727 q 282 686 298 703 q 241 670 266 670 l 180 670 l 180 727 q 197 768 180 751 q 237 784 214 784 m 57 784 q 98 768 80 784 q 114 727 114 751 l 114 670 l 53 670 q 12 686 28 670 q -4 727 -4 703 l -4 784 l 57 784 z "},"ñ":{"ha":583,"x_min":26,"x_max":547,"o":"m 547 0 l 473 0 l 473 88 l 472 87 l 472 289 q 418 437 472 376 q 286 496 363 496 q 155 437 209 496 q 99 289 99 376 l 99 81 l 100 81 l 100 0 l 26 0 l 26 290 q 102 495 26 410 q 286 581 179 581 q 471 495 395 581 q 547 290 547 411 l 547 0 m 434 690 l 95 690 l 95 735 q 106 766 95 753 q 134 780 117 779 l 477 780 l 477 735 q 464 704 477 718 q 434 690 452 690 z "},"ò":{"ha":640,"x_min":28,"x_max":620,"o":"m 324 0 q 115 87 202 0 q 28 296 28 174 q 115 506 28 419 q 324 591 202 591 q 532 505 445 591 q 620 296 620 418 q 533 87 620 175 q 324 0 446 0 m 324 510 q 172 446 235 510 q 110 296 110 384 q 174 145 110 209 q 324 83 236 83 q 473 145 411 83 q 537 296 537 209 q 475 446 537 384 q 324 510 412 510 m 346 764 q 362 724 362 747 l 362 670 l 305 670 q 266 686 282 670 q 251 724 251 701 l 251 779 l 309 779 q 346 764 330 777 z "},"ó":{"ha":640,"x_min":26,"x_max":617,"o":"m 321 0 q 113 87 199 0 q 26 296 26 174 q 113 505 26 418 q 321 591 199 591 q 530 505 444 591 q 617 296 617 418 q 530 87 617 174 q 321 0 444 0 m 321 509 q 171 446 233 509 q 109 296 109 384 q 171 145 109 208 q 321 83 233 83 q 472 145 410 83 q 534 296 534 208 q 472 446 534 384 q 321 509 410 509 m 332 776 l 389 776 l 389 722 q 374 684 389 700 q 335 667 358 667 l 278 667 l 278 722 q 294 761 278 745 q 332 776 309 776 z "},"ô":{"ha":640,"x_min":22,"x_max":613,"o":"m 317 0 q 109 87 195 0 q 22 296 22 174 q 109 505 22 418 q 317 591 195 591 q 526 505 439 591 q 613 296 613 418 q 526 87 613 174 q 317 0 439 0 m 317 509 q 167 446 229 509 q 104 296 104 384 q 167 145 104 208 q 317 83 229 83 q 468 145 406 83 q 530 296 530 208 q 468 446 530 384 q 317 509 406 509 m 434 648 l 430 644 q 419 640 426 640 q 410 644 414 640 l 330 723 q 319 728 326 728 q 308 723 313 728 l 231 647 q 217 642 225 642 q 202 648 208 643 l 198 652 q 194 663 194 656 q 198 673 194 669 l 308 783 q 320 787 313 787 q 331 783 326 787 l 437 675 q 441 663 441 670 l 441 662 q 434 648 441 654 z "},"õ":{"ha":640,"x_min":27,"x_max":618,"o":"m 323 0 q 114 87 201 0 q 27 296 27 174 q 114 505 27 418 q 323 591 201 591 q 532 505 445 591 q 618 296 618 418 q 532 87 618 174 q 323 0 445 0 m 323 509 q 172 446 235 509 q 110 296 110 384 q 172 145 110 208 q 323 83 235 83 q 473 145 411 83 q 536 296 536 208 q 473 446 536 384 q 323 509 411 509 m 175 690 l 132 690 l 132 735 q 142 765 132 753 q 170 780 153 777 l 514 780 l 514 736 q 500 705 514 718 q 469 692 488 692 l 175 692 l 175 690 z "},"ö":{"ha":639,"x_min":23,"x_max":614,"o":"m 319 0 q 110 87 197 0 q 23 296 23 174 q 110 505 23 418 q 319 591 197 591 q 528 505 441 591 q 614 296 614 418 q 529 87 614 174 q 319 0 442 0 m 319 509 q 168 446 231 509 q 106 296 106 384 q 168 145 106 208 q 319 83 232 83 q 469 145 407 83 q 533 296 533 208 q 471 446 533 384 q 319 509 408 509 m 232 779 q 271 762 255 779 q 289 722 289 746 l 289 665 l 228 665 q 187 681 203 665 q 170 722 170 697 l 170 779 l 232 779 m 418 665 l 355 665 l 355 722 q 372 762 355 746 q 412 779 388 779 l 473 779 l 473 722 q 456 681 473 697 q 418 665 441 666 z "},"÷":{"ha":446,"x_min":28,"x_max":410,"o":"m 365 500 l 28 500 l 28 545 q 39 575 28 563 q 66 589 50 587 l 410 589 l 410 545 q 396 514 410 526 q 365 500 384 500 m 227 642 l 159 642 l 159 711 q 178 760 159 739 q 227 779 198 779 q 275 760 255 779 q 296 711 296 739 q 275 662 296 682 q 227 642 255 642 m 296 378 q 275 331 296 350 q 227 311 255 311 q 178 331 198 311 q 159 378 159 350 l 159 448 l 227 448 q 275 427 255 448 q 296 378 296 408 z "},"ø":{"ha":640,"x_min":27,"x_max":623,"o":"m 557 612 q 587 581 567 601 q 600 551 600 568 q 587 519 600 532 l 551 483 q 623 293 623 403 q 537 87 623 172 q 331 1 452 1 q 141 71 221 1 l 98 27 q 81 9 91 20 l 71 0 l 41 30 q 28 58 28 42 l 27 60 q 37 87 27 76 l 84 134 q 39 293 39 205 q 125 499 39 414 q 331 585 210 585 q 486 540 418 585 l 557 612 m 198 129 q 331 83 255 83 q 479 145 418 83 q 541 293 541 208 q 494 426 541 369 q 198 129 387 319 m 331 505 q 182 442 243 505 q 121 293 121 380 q 144 194 121 239 q 427 480 259 311 q 331 505 384 505 z "},"ù":{"ha":585,"x_min":33,"x_max":556,"o":"m 33 290 l 33 570 q 37 579 33 575 q 46 583 41 583 l 95 583 q 103 579 99 583 q 109 570 107 575 l 109 307 q 107 298 107 302 l 107 292 q 163 144 107 205 q 296 83 217 83 q 427 144 373 83 q 481 293 483 205 l 481 575 q 487 581 483 579 q 494 583 490 583 l 543 583 q 552 579 548 583 q 556 570 556 575 l 556 290 q 480 84 556 170 q 294 -1 403 -1 q 110 84 186 -1 q 33 290 33 170 m 320 764 q 336 724 336 747 l 336 670 l 278 670 q 240 686 256 670 q 224 724 224 701 l 224 779 l 283 779 q 320 764 304 777 z "},"ú":{"ha":585,"x_min":28,"x_max":552,"o":"m 28 292 l 28 571 q 31 581 28 576 q 42 585 35 585 l 90 585 q 99 582 95 585 q 103 572 103 578 l 103 293 q 157 145 103 206 q 290 83 213 83 q 423 145 369 83 q 477 293 477 206 l 477 576 q 481 582 479 579 q 490 585 486 585 l 538 585 q 548 581 544 585 q 552 571 552 576 l 552 292 q 475 85 552 171 q 290 0 399 0 q 104 85 182 0 q 28 292 28 171 m 308 667 l 250 667 l 250 722 q 266 761 250 745 q 304 776 282 776 l 362 776 l 362 722 q 346 684 362 700 q 308 667 330 667 z "},"û":{"ha":585,"x_min":28,"x_max":552,"o":"m 28 292 l 28 571 q 31 581 28 576 q 42 585 35 585 l 90 585 q 99 582 95 585 q 103 572 103 578 l 103 293 q 157 145 103 206 q 290 83 213 83 q 423 145 369 83 q 477 293 477 206 l 477 576 q 481 582 479 579 q 490 585 486 585 l 538 585 q 548 581 544 585 q 552 571 552 576 l 552 292 q 475 85 552 171 q 290 0 399 0 q 104 85 182 0 q 28 292 28 171 m 407 648 l 403 644 q 392 640 399 640 q 382 644 387 640 l 302 723 q 292 728 298 728 q 281 723 286 728 l 203 647 q 190 642 198 642 q 175 648 180 643 l 171 652 q 167 663 167 656 q 171 673 167 669 l 281 783 q 293 787 286 787 q 304 783 298 787 l 410 675 q 414 663 414 670 l 414 662 q 407 648 414 654 z "},"ü":{"ha":585,"x_min":28,"x_max":552,"o":"m 28 292 l 28 571 q 33 581 28 576 q 42 585 37 585 l 91 585 q 99 582 95 585 q 104 572 103 578 l 104 307 q 103 300 103 304 l 103 293 q 159 145 103 206 q 292 83 213 83 q 423 145 369 83 q 477 293 477 206 l 477 576 q 483 582 479 579 q 490 585 486 585 l 538 585 q 548 581 544 585 q 552 571 552 576 l 552 292 q 475 85 552 171 q 290 0 399 0 q 104 85 182 0 q 28 292 28 171 m 245 762 q 262 722 262 746 l 262 665 l 198 665 q 160 681 175 665 q 144 722 144 697 l 144 779 l 206 779 q 245 762 228 777 m 382 779 l 446 779 l 446 722 q 430 681 446 697 q 391 665 412 665 l 328 665 l 328 722 q 345 762 328 746 q 382 779 361 777 z "},"ý":{"ha":585,"x_min":28,"x_max":552,"o":"m 552 570 l 552 476 q 488 286 552 368 q 331 189 425 203 l 331 5 q 327 3 331 7 q 317 0 323 0 l 263 0 q 254 4 258 0 q 250 14 250 8 l 250 189 q 92 285 155 203 q 28 476 28 366 l 28 570 q 31 579 28 575 q 42 583 35 583 q 90 585 57 583 q 99 581 95 585 q 103 571 103 576 l 103 477 q 157 330 103 391 q 290 269 213 269 q 423 330 368 269 q 477 477 477 391 l 477 575 q 483 581 479 579 q 490 583 486 583 l 538 583 q 548 579 544 583 q 552 570 552 575 m 305 779 l 362 779 l 362 724 q 346 686 362 703 q 308 670 331 670 l 251 670 l 251 724 q 266 764 251 747 q 305 779 282 779 z "},"ÿ":{"ha":585,"x_min":28,"x_max":552,"o":"m 552 570 l 552 476 q 488 285 552 368 q 331 187 425 203 l 331 5 l 327 3 q 317 0 323 0 l 263 0 q 254 4 258 0 q 250 14 250 8 l 250 187 q 92 285 155 203 q 28 476 28 366 l 28 570 q 31 579 28 575 q 42 583 35 583 l 90 583 q 99 581 95 583 q 103 570 103 576 l 103 476 q 157 328 103 391 q 290 267 213 267 q 423 330 368 267 q 477 477 477 391 l 477 575 q 483 581 479 578 q 490 583 486 583 l 538 583 q 548 579 544 583 q 552 570 552 575 m 231 762 q 248 722 248 746 l 248 665 l 184 665 q 146 681 161 665 q 129 722 129 697 l 129 779 l 193 779 q 231 762 214 777 m 372 779 l 433 779 l 433 722 q 415 681 433 697 q 376 665 399 665 l 315 665 l 315 722 q 331 762 315 746 q 372 779 347 779 z "},"’":{"ha":140,"x_min":20,"x_max":111,"o":"m 111 1001 l 111 892 q 98 860 111 873 q 65 848 84 848 l 20 848 l 20 962 q 35 990 23 978 q 65 1001 49 1001 l 111 1001 z "},"“":{"ha":779,"x_min":0,"x_max":331,"o":"m 171 1001 l 254 1001 q 308 979 286 1001 q 331 925 331 956 l 331 848 l 248 848 q 194 869 217 848 q 171 925 171 892 l 171 1001 m 0 1001 l 83 1001 q 137 979 114 1001 q 159 925 159 956 l 159 848 l 77 848 q 23 869 45 848 q 0 925 0 892 l 0 1001 z "},"”":{"ha":779,"x_min":445,"x_max":776,"o":"m 522 1001 l 605 1001 l 605 925 q 582 869 605 892 q 528 848 559 848 l 445 848 l 445 925 q 468 979 445 956 q 522 1001 490 1001 m 776 1001 l 776 925 q 753 869 776 892 q 699 848 730 848 l 616 848 l 616 925 q 639 979 616 956 q 693 1001 662 1001 l 776 1001 z "},"€":{"ha":528,"x_min":30,"x_max":517,"o":"m 469 119 q 484 107 473 115 q 499 94 494 99 q 513 84 505 90 q 517 73 517 80 q 511 62 517 66 q 438 20 477 37 q 357 1 397 5 q 330 0 343 0 q 205 27 266 0 q 79 136 129 61 q 31 275 37 198 q 30 297 30 286 q 57 420 30 361 q 172 549 99 506 q 328 594 247 594 l 330 594 q 415 582 372 594 q 496 543 457 568 q 498 540 498 541 q 496 537 498 538 l 467 510 q 439 484 453 498 q 437 483 438 483 l 434 483 q 263 498 355 526 q 149 407 190 475 l 354 407 l 354 366 q 342 338 354 350 q 315 326 331 326 l 119 326 q 118 283 117 305 l 118 277 l 313 277 q 342 264 331 277 q 354 236 354 252 l 354 195 l 144 195 q 286 90 194 107 q 452 121 378 71 q 460 123 456 123 q 469 119 465 122 z "}," ":{"ha":556,"x_min":0,"x_max":0,"o":""},"¢":{"ha":529,"x_min":27,"x_max":505,"o":"m 457 121 q 472 109 463 117 q 487 96 483 100 q 499 85 492 91 q 505 75 505 81 q 499 65 505 69 q 427 23 465 38 q 347 4 388 8 q 320 3 334 3 q 199 28 259 3 q 114 -182 130 -142 q 103 -199 110 -191 q 75 -212 92 -212 l 34 -212 l 34 -172 q 39 -151 34 -160 q 130 72 54 -113 q 76 136 99 99 q 28 271 34 197 q 27 293 27 282 q 56 414 27 355 q 168 541 95 498 q 320 585 240 583 l 338 585 q 416 774 396 723 q 427 788 420 783 q 456 798 439 798 l 458 798 q 483 796 467 798 l 499 795 q 498 774 498 787 q 495 754 496 762 q 486 730 494 739 q 419 567 471 693 q 483 534 453 555 q 484 532 484 533 q 483 529 484 530 q 456 503 469 515 l 429 476 q 425 476 426 475 q 388 491 406 486 q 308 293 343 380 q 231 104 264 187 q 279 90 254 94 q 441 121 370 72 q 449 123 445 123 q 457 121 453 123 m 228 311 q 304 499 260 392 q 258 490 281 496 q 129 366 168 461 q 115 279 113 326 q 140 195 118 235 q 165 157 152 174 q 228 311 193 227 z "},"¦":{"ha":138,"x_min":28,"x_max":110,"o":"m 39 648 q 31 651 34 648 q 28 659 28 654 l 28 987 q 31 997 28 993 q 41 1001 35 1001 l 96 1001 q 106 997 103 1001 q 110 987 110 993 l 110 659 q 107 651 110 654 q 99 648 103 648 l 39 648 m 39 0 q 31 3 34 0 q 28 11 28 5 l 28 339 q 31 349 28 345 q 41 353 35 353 l 96 353 q 106 349 103 353 q 110 339 110 345 l 110 11 q 107 3 110 5 q 99 0 103 0 l 39 0 z "},"§":{"ha":389,"x_min":18,"x_max":382,"o":"m 189 0 q 107 12 148 0 q 27 47 66 24 q 19 58 20 52 q 18 62 18 61 q 20 72 18 66 q 45 110 28 84 q 56 117 49 115 q 68 115 61 118 q 180 79 133 77 q 263 94 229 80 q 298 142 297 106 q 290 203 298 179 q 237 247 283 224 q 157 288 191 271 q 111 309 133 298 q 73 331 88 320 q 34 376 47 349 q 20 437 20 403 q 24 473 20 458 q 30 494 28 490 q 72 549 38 517 q 121 578 91 567 l 115 581 q 77 602 92 591 q 38 647 52 620 q 24 708 24 674 q 28 745 24 730 q 34 765 33 761 q 76 821 42 788 q 178 859 110 853 q 202 860 190 860 q 279 846 245 860 q 342 815 321 829 q 349 803 349 811 q 346 791 350 796 q 331 774 340 785 q 315 755 326 768 q 305 750 312 751 q 294 753 300 750 q 251 773 279 761 q 184 781 222 784 q 126 760 141 777 q 109 739 110 743 l 109 736 q 103 708 109 735 q 122 665 99 681 q 153 647 134 656 q 195 628 174 637 q 302 571 252 601 q 339 543 324 559 l 340 541 q 369 498 361 521 q 382 423 382 458 q 373 368 382 395 q 308 293 354 316 q 365 227 351 266 q 378 152 378 187 q 369 96 378 123 q 292 18 349 38 q 239 4 264 9 q 189 0 213 0 m 247 502 q 180 510 218 513 q 122 488 137 506 q 104 468 106 472 l 104 465 q 99 437 104 464 q 118 393 95 410 q 149 376 130 385 q 191 357 170 366 q 203 350 197 353 q 267 365 240 354 q 302 414 301 377 q 294 475 302 450 l 292 480 l 290 481 q 247 502 275 490 z "},"¨":{"ha":807,"x_min":259,"x_max":562,"o":"m 361 1157 q 377 1116 377 1141 l 377 1059 l 316 1059 q 275 1076 292 1059 q 259 1116 259 1092 l 259 1173 l 320 1173 q 361 1157 343 1173 m 505 1059 l 444 1059 l 444 1116 q 460 1157 444 1141 q 498 1173 476 1172 l 562 1173 l 562 1116 q 545 1076 562 1092 q 505 1059 528 1059 z "},"ª":{"ha":228,"x_min":28,"x_max":212,"o":"m 212 825 q 210 822 212 823 q 208 821 209 821 l 121 821 q 57 846 84 821 q 28 909 30 872 l 28 911 q 39 956 28 936 q 73 990 52 978 q 96 1001 84 997 q 119 1004 107 1004 l 123 1004 q 186 975 160 1002 q 212 911 212 947 l 212 825 m 163 911 q 151 941 163 929 q 122 955 138 954 l 121 955 q 90 943 103 955 q 77 911 77 929 l 77 910 q 91 882 79 894 q 121 869 103 869 l 160 869 l 163 872 l 163 911 z "},"«":{"ha":779,"x_min":0,"x_max":331,"o":"m 171 1001 l 254 1001 q 308 979 286 1001 q 331 925 331 956 l 331 848 l 248 848 q 194 869 217 848 q 171 925 171 892 l 171 1001 m 0 1001 l 83 1001 q 137 979 114 1001 q 159 925 159 956 l 159 848 l 77 848 q 23 869 45 848 q 0 925 0 892 l 0 1001 z "},"¬":{"ha":666,"x_min":49,"x_max":628,"o":"m 132 347 l 62 347 q 53 351 57 347 q 49 361 49 355 l 49 418 q 53 427 49 423 q 62 431 57 431 l 340 431 q 534 357 453 431 q 628 172 617 281 l 628 170 q 625 161 628 165 q 616 157 621 157 l 559 157 q 551 160 555 157 q 547 170 547 164 q 477 297 536 245 q 340 349 419 349 l 132 349 l 132 347 z "},"­":{"ha":502,"x_min":28,"x_max":465,"o":"m 415 473 l 28 473 l 28 524 q 41 557 28 543 q 72 575 54 572 l 465 575 l 465 525 q 450 488 465 503 q 415 473 435 473 z "},"¯":{"ha":589,"x_min":28,"x_max":560,"o":"m 510 1057 l 28 1057 l 28 1107 q 41 1141 28 1126 q 72 1158 54 1156 l 560 1158 l 560 1108 q 545 1072 560 1086 q 510 1057 530 1057 z "},"±":{"ha":446,"x_min":28,"x_max":410,"o":"m 183 598 l 28 598 l 28 643 q 39 673 28 661 q 66 686 50 685 l 183 686 l 183 833 l 227 833 q 258 819 245 833 q 271 788 271 807 l 271 686 l 410 686 l 410 643 q 396 612 410 624 q 365 598 384 598 l 271 598 l 271 452 l 227 452 q 197 463 209 452 q 183 490 184 473 l 183 598 m 365 311 l 28 311 l 28 355 q 39 385 28 373 q 66 399 50 397 l 410 399 l 410 355 q 396 324 410 336 q 365 311 384 311 z "},"´":{"ha":195,"x_min":19,"x_max":168,"o":"m 151 939 q 148 933 149 937 q 122 876 140 914 q 96 853 114 859 q 80 850 88 850 q 61 854 71 850 q 39 864 52 859 q 19 873 28 871 l 27 891 l 39 916 l 68 977 q 95 997 77 991 q 109 998 102 998 q 126 994 118 998 q 148 985 136 990 q 168 975 160 979 l 161 962 q 151 939 155 948 z "},"¶":{"ha":1207,"x_min":27,"x_max":1175,"o":"m 1175 987 l 1175 935 q 1169 922 1175 926 q 1157 917 1164 917 l 962 917 q 949 911 955 917 q 944 899 944 907 l 944 12 q 939 0 944 4 q 926 -5 935 -5 l 873 -5 q 861 0 867 -5 q 857 12 857 4 l 857 899 q 852 911 857 907 q 840 917 846 917 l 627 917 l 627 -5 l 579 -5 q 552 8 563 -3 q 541 38 541 20 l 541 393 q 537 403 541 400 q 528 407 533 407 l 330 407 q 118 492 206 407 q 27 703 28 579 l 27 705 q 65 853 27 785 q 170 962 104 921 q 245 994 205 983 q 327 1005 285 1005 l 1156 1005 q 1168 1000 1164 1005 q 1175 987 1173 994 z "},"·":{"ha":250,"x_min":56,"x_max":199,"o":"m 127 551 l 56 551 l 56 623 q 76 674 56 652 q 127 694 98 694 q 178 674 157 694 q 199 623 199 652 q 178 572 199 594 q 127 551 156 551 z "},"º":{"ha":228,"x_min":28,"x_max":212,"o":"m 119 821 q 56 848 83 821 q 28 913 28 875 q 56 977 28 951 q 119 1004 83 1004 q 184 977 157 1004 q 212 913 212 949 q 184 848 212 875 q 119 821 157 821 m 119 962 q 84 947 99 962 q 71 913 71 933 q 85 878 71 892 q 119 863 99 863 q 155 878 141 863 q 170 913 170 892 q 155 947 170 933 q 119 962 141 962 z "},"»":{"ha":779,"x_min":445,"x_max":776,"o":"m 522 1001 l 605 1001 l 605 925 q 582 869 605 892 q 528 848 559 848 l 445 848 l 445 925 q 468 979 445 956 q 522 1001 490 1001 m 776 1001 l 776 925 q 753 869 776 892 q 699 848 730 848 l 616 848 l 616 925 q 639 979 616 956 q 693 1001 662 1001 l 776 1001 z "},"Ð":{"ha":977,"x_min":68,"x_max":947,"o":"m 210 452 l 68 452 l 68 486 q 79 522 68 511 l 84 528 q 106 537 94 536 l 210 537 l 210 982 q 214 994 210 989 q 227 998 220 998 l 454 998 q 591 977 526 997 q 713 920 658 956 q 883 741 819 852 q 947 494 947 628 q 883 248 947 359 q 715 69 819 136 q 591 12 658 33 q 454 -11 526 -8 l 227 -11 q 214 -5 220 -11 q 210 7 210 0 l 210 452 m 449 911 l 313 911 q 301 907 305 911 q 296 895 296 902 l 296 537 l 438 537 l 438 517 q 438 495 437 505 q 426 465 438 477 q 420 461 423 463 q 395 452 410 453 l 296 452 l 296 92 q 301 80 296 85 q 313 76 305 76 l 449 76 q 564 94 509 76 q 666 141 618 111 q 807 289 754 197 q 860 494 860 382 q 844 609 860 553 q 799 712 827 665 q 652 856 745 800 q 449 911 560 910 z "},"Þ":{"ha":639,"x_min":27,"x_max":627,"o":"m 71 -5 q 27 11 27 -5 l 27 987 q 71 1004 27 1004 q 113 987 113 1004 l 113 705 l 114 707 q 326 798 201 796 q 537 714 448 798 q 627 496 627 631 q 536 286 625 372 q 324 199 448 199 l 126 199 q 113 186 113 199 l 113 11 q 71 -5 113 -5 m 327 285 q 479 347 416 285 q 541 499 541 410 q 478 651 541 589 q 326 713 415 713 q 174 648 236 712 q 113 495 113 583 l 113 298 q 127 285 113 285 l 327 285 z "},"ß":{"ha":783,"x_min":54,"x_max":739,"o":"m 410 553 q 410 540 406 547 q 422 533 414 533 q 571 487 496 533 q 682 377 644 438 q 711 176 739 286 q 586 3 682 68 q 575 0 581 -1 q 566 5 570 1 l 541 46 q 540 57 538 50 q 544 64 541 62 q 632 190 613 113 q 613 332 652 269 q 534 408 585 378 q 425 446 483 441 q 365 445 395 450 q 308 423 335 439 l 269 488 q 357 594 330 537 q 346 711 384 648 q 239 791 309 770 q 137 793 187 804 l 137 11 q 134 3 137 7 q 126 0 132 0 l 66 0 q 58 3 62 0 q 56 11 56 7 l 56 831 q 57 841 54 836 q 61 848 58 846 l 62 849 q 263 865 161 892 q 416 754 363 840 q 442 655 449 700 q 410 553 435 608 z "},"ð":{"ha":631,"x_min":27,"x_max":610,"o":"m 514 608 q 477 703 506 661 l 366 591 l 342 616 q 324 648 324 633 q 326 655 324 652 q 334 678 326 669 l 415 760 q 301 787 363 792 q 294 789 297 787 q 289 799 289 793 q 283 854 283 837 q 285 865 282 861 q 294 871 289 869 q 475 819 395 879 l 568 913 l 583 898 q 598 883 590 888 q 610 854 610 871 q 609 848 610 850 q 597 822 606 834 l 536 761 q 593 623 581 703 l 593 621 q 593 510 600 563 l 593 12 q 589 3 593 7 q 579 -1 585 -1 l 309 -1 q 109 83 193 -1 q 27 281 27 165 l 27 286 q 113 484 28 401 q 312 564 197 566 q 408 548 362 564 q 490 500 453 530 q 503 498 496 495 q 515 529 510 502 q 514 608 521 556 m 107 278 q 168 137 109 194 q 312 79 229 79 l 498 79 q 507 83 503 79 q 511 91 511 85 l 511 289 l 510 297 l 510 301 q 446 431 503 378 q 309 484 388 484 q 165 425 225 484 q 107 282 107 365 l 107 278 z "},"þ":{"ha":1160,"x_min":34,"x_max":628,"o":"m 76 -418 q 34 -403 34 -418 l 34 283 q 37 326 34 305 l 34 326 l 34 986 q 76 1001 34 1001 q 118 986 118 1001 l 118 492 l 119 494 q 332 583 205 582 q 542 496 456 583 q 628 285 628 410 q 538 75 627 160 q 328 -11 450 -11 l 132 -11 q 118 -24 118 -11 l 118 -403 q 76 -418 118 -418 m 331 73 q 481 136 419 73 q 544 286 544 198 q 481 437 544 376 q 330 499 418 499 q 179 434 240 498 q 118 283 118 370 l 118 88 q 133 73 118 73 l 331 73 z "},"‒":{"ha":684,"x_min":28,"x_max":655,"o":"m 605 473 l 28 473 l 28 524 q 41 557 28 543 q 72 575 54 572 l 655 575 l 655 525 q 640 488 655 503 q 605 473 625 473 z "},"–":{"ha":589,"x_min":28,"x_max":560,"o":"m 510 473 l 28 473 l 28 524 q 41 557 28 543 q 72 575 54 572 l 560 575 l 560 525 q 545 488 560 503 q 510 473 530 473 z "},"—":{"ha":684,"x_min":28,"x_max":655,"o":"m 605 473 l 28 473 l 28 524 q 41 557 28 543 q 72 575 54 572 l 655 575 l 655 525 q 640 488 655 503 q 605 473 625 473 z "},"‘":{"ha":183,"x_min":0,"x_max":160,"o":"m 160 848 l 77 848 q 23 869 45 848 q 0 924 0 892 l 0 1001 l 83 1001 q 137 979 114 1001 q 160 924 160 956 l 160 848 z "},"‚":{"ha":182,"x_min":0,"x_max":159,"o":"m 0 153 l 83 153 q 137 132 114 153 q 159 77 159 109 l 159 0 l 77 0 q 23 22 45 0 q 0 77 0 45 l 0 153 z "},"‛":{"ha":183,"x_min":0,"x_max":160,"o":"m 77 1001 l 160 1001 l 160 925 q 137 869 160 892 q 83 848 114 848 l 0 848 l 0 925 q 23 979 0 956 q 77 1001 45 1001 z "},"„":{"ha":354,"x_min":0,"x_max":331,"o":"m 171 153 l 254 153 q 308 132 286 153 q 331 77 331 109 l 331 0 l 248 0 q 194 22 217 0 q 171 77 171 45 l 171 153 m 0 153 l 83 153 q 137 132 114 153 q 159 77 159 109 l 159 0 l 77 0 q 23 22 45 0 q 0 77 0 45 l 0 153 z "},"‟":{"ha":354,"x_min":0,"x_max":331,"o":"m 77 1001 l 160 1001 l 160 925 q 137 869 160 892 q 83 848 114 848 l 0 848 l 0 925 q 23 979 0 956 q 77 1001 45 1001 m 248 1001 l 331 1001 l 331 925 q 308 869 331 892 q 254 848 286 848 l 172 848 l 172 925 q 194 979 172 956 q 248 1001 217 1001 z "},"•":{"ha":250,"x_min":56,"x_max":199,"o":"m 127 551 l 56 551 l 56 623 q 76 674 56 652 q 127 694 98 694 q 178 674 157 694 q 199 623 199 652 q 178 572 199 594 q 127 551 156 551 z "},"…":{"ha":559,"x_min":28,"x_max":507,"o":"m 144 58 q 127 16 144 34 q 85 0 110 0 q 45 18 61 0 q 28 58 28 34 l 28 117 l 85 117 q 126 99 110 117 q 144 58 144 83 m 507 58 q 491 16 507 34 q 449 0 473 0 q 408 18 425 0 q 392 58 392 34 l 392 117 l 449 117 q 490 99 473 117 q 507 58 507 83 m 326 58 q 309 16 326 34 q 267 0 292 0 q 227 18 243 0 q 210 58 210 34 l 210 117 l 267 117 q 308 99 292 117 q 326 58 326 83 z "},"‰":{"ha":761,"x_min":26,"x_max":712,"o":"m 66 1 q 43 0 60 1 l 27 0 l 27 19 q 26 39 26 31 q 30 57 26 49 q 401 979 153 365 q 412 993 406 986 q 439 1002 423 1004 l 442 1002 q 467 1001 450 1002 l 481 1000 q 480 981 481 991 q 479 960 479 968 q 469 935 477 945 q 104 24 346 628 l 103 24 q 95 12 100 18 q 66 1 83 0 m 575 205 q 595 254 575 233 q 643 273 614 273 q 692 254 671 273 q 712 205 712 233 l 712 137 l 643 137 q 595 156 614 137 q 575 205 575 176 m 372 205 q 392 254 372 233 q 439 273 411 273 q 488 254 468 273 q 509 205 509 233 l 509 137 l 439 137 q 392 156 411 137 q 372 205 372 176 m 172 795 q 152 746 172 766 q 104 727 133 727 q 56 746 76 727 q 35 795 35 766 l 35 863 l 104 863 q 152 842 132 863 q 172 795 172 822 z "},"‹":{"ha":140,"x_min":26,"x_max":117,"o":"m 26 892 l 26 1001 l 71 1001 q 100 990 88 1001 q 117 962 114 978 l 117 848 l 71 848 q 38 860 52 848 q 26 892 26 873 z "},"›":{"ha":140,"x_min":26,"x_max":117,"o":"m 26 892 l 26 1001 l 71 1001 q 100 990 88 1001 q 117 962 114 978 l 117 848 l 71 848 q 38 860 52 848 q 26 892 26 873 z "},"‼":{"ha":255,"x_min":24,"x_max":244,"o":"m 66 214 l 24 214 l 24 960 q 37 989 24 977 q 66 1001 49 1001 l 107 1001 l 107 256 q 95 227 107 239 q 66 214 83 214 m 182 214 l 140 214 l 140 960 q 152 989 140 977 q 182 1001 164 1001 l 222 1001 l 222 251 q 210 227 220 236 q 182 214 198 214 m 193 5 l 141 5 l 141 56 q 156 92 141 77 q 193 107 171 107 q 229 92 214 107 q 244 56 244 77 q 229 20 244 35 q 193 5 214 5 m 77 5 l 26 5 l 26 56 q 41 92 26 77 q 77 107 56 107 q 114 92 99 107 q 129 56 129 77 q 114 20 129 35 q 77 5 99 5 z "},"⁄":{"ha":529,"x_min":39,"x_max":505,"o":"m 464 1012 q 488 1010 472 1012 l 505 1009 q 503 989 503 1001 q 500 968 502 977 q 491 944 499 954 q 119 33 366 639 q 109 15 115 22 q 80 3 98 3 l 39 3 l 39 42 q 46 66 39 56 q 422 989 172 376 q 433 1002 426 997 q 461 1012 445 1012 l 464 1012 z "},"₽":{"ha":471,"x_min":30,"x_max":460,"o":"m 460 416 q 407 292 458 343 q 282 241 354 241 l 198 241 q 193 239 194 241 q 190 233 190 237 l 190 193 l 252 193 q 281 180 270 193 q 293 152 293 168 l 293 111 l 190 111 l 190 26 q 183 8 190 15 q 167 0 176 1 l 107 0 l 107 111 l 30 111 l 30 152 q 42 180 30 168 q 69 193 52 191 l 107 193 l 107 241 l 62 241 q 42 254 50 244 q 30 282 30 266 l 30 323 l 107 323 l 107 416 q 157 541 107 488 q 282 594 209 593 l 283 594 q 408 543 357 595 q 460 418 460 491 l 460 416 m 218 484 q 190 416 190 456 l 190 330 q 193 326 190 326 q 197 323 194 323 l 285 323 q 353 350 326 323 q 380 418 380 378 q 351 486 380 457 q 285 513 324 513 q 218 484 244 513 z "},"￼":{"ha":1390,"x_min":27,"x_max":1363,"o":"m 1096 369 l 1130 369 q 1195 229 1175 369 q 1196 195 1196 209 l 1196 170 q 1153 16 1196 73 q 1133 3 1141 3 l 1096 3 q 1093 9 1093 3 l 1093 362 q 1096 369 1095 369 m 198 369 l 251 369 q 282 277 275 369 q 269 202 282 240 q 289 114 289 170 l 289 110 q 255 7 289 28 l 198 7 q 195 12 195 7 l 195 362 q 198 369 197 369 m 1027 369 l 1032 369 q 1078 262 1065 369 q 1080 217 1080 237 l 1080 12 q 1078 7 1080 7 l 1070 7 q 1069 12 1069 7 l 1069 81 l 989 81 l 989 12 q 986 7 989 7 l 979 7 q 977 12 977 7 l 977 198 q 1013 362 977 320 q 1027 369 1021 369 m 616 972 l 620 972 q 666 865 654 972 q 669 812 669 841 l 669 617 q 666 610 669 610 l 659 610 q 656 617 656 610 l 656 686 l 578 686 l 578 617 q 575 610 578 610 l 567 610 q 566 617 566 610 l 566 803 q 605 970 566 932 q 616 972 612 972 m 1105 331 l 1105 41 q 1108 35 1105 35 l 1126 35 q 1183 155 1168 35 q 1184 189 1184 176 q 1138 334 1184 292 q 1122 336 1128 336 l 1108 336 q 1105 331 1105 336 m 724 369 q 760 281 747 369 l 760 258 q 736 160 760 199 q 764 7 764 14 l 761 3 l 751 3 l 722 151 l 690 151 q 688 145 688 151 l 688 12 q 684 0 688 8 l 678 0 q 675 7 675 0 l 675 264 q 708 369 675 339 l 724 369 m 750 977 l 755 977 q 758 970 758 975 l 758 617 q 755 610 758 610 l 715 610 q 675 718 682 610 q 709 822 675 793 l 718 822 q 745 796 731 822 l 746 803 l 746 963 q 750 977 746 968 m 898 822 l 906 822 q 941 743 929 822 l 941 712 q 903 608 936 608 l 876 608 l 871 605 l 871 469 q 867 460 871 465 l 861 460 q 859 467 859 460 l 859 705 q 888 819 859 789 q 898 822 894 822 m 989 189 l 989 110 l 1069 110 l 1069 214 q 1029 336 1063 336 q 991 252 1002 336 q 989 189 989 220 m 578 715 l 656 715 l 656 819 q 618 941 651 941 l 614 941 q 578 825 587 941 l 578 715 m 1058 822 q 1097 743 1085 822 q 1099 718 1099 731 l 1099 617 q 1096 610 1099 610 l 1054 610 q 1017 705 1017 635 l 1017 718 q 1058 822 1024 822 m 807 822 q 848 705 844 822 l 848 617 q 845 610 848 610 l 806 610 q 768 693 779 610 l 766 715 q 807 822 773 822 m 1240 822 l 1246 822 q 1283 734 1271 822 l 1283 715 q 1248 610 1283 637 l 1241 610 q 1202 712 1202 627 l 1202 722 q 1230 819 1202 789 q 1240 822 1236 822 m 438 372 l 446 372 q 449 365 449 370 l 449 224 q 450 217 449 217 l 518 217 l 519 233 l 519 365 q 522 372 519 372 l 529 372 q 532 365 532 370 l 532 12 q 529 7 532 7 l 522 7 q 519 12 519 7 l 519 183 l 514 186 l 450 186 q 449 179 449 184 l 449 12 q 445 3 449 8 l 438 3 q 435 9 435 3 l 435 365 q 438 372 435 372 m 94 979 l 100 979 q 141 941 119 979 l 141 935 q 134 917 141 930 l 132 917 q 96 948 115 948 q 41 825 54 948 q 39 796 39 814 l 39 793 q 88 646 39 681 l 102 646 q 137 684 118 646 q 145 661 138 684 q 100 610 126 610 l 95 610 q 30 743 49 610 q 27 784 27 757 l 27 806 q 80 977 27 922 q 94 979 88 979 m 815 220 q 844 183 831 220 l 844 176 l 796 50 q 811 38 804 38 l 815 38 q 833 50 819 38 q 838 35 838 38 l 838 31 q 814 7 831 7 l 811 7 q 772 91 784 7 l 772 126 q 807 217 781 217 q 815 220 807 220 m 586 220 q 614 179 602 220 l 567 50 q 582 38 576 38 l 586 38 q 602 50 589 38 q 609 31 604 50 q 589 7 600 7 l 582 7 q 543 114 548 7 q 578 217 549 217 q 586 220 578 220 m 208 183 l 208 43 q 210 38 208 38 l 247 38 q 277 107 277 46 l 277 114 q 251 183 271 183 l 208 183 m 688 264 l 688 189 q 690 183 688 183 l 715 183 q 743 224 735 183 q 747 255 747 240 l 747 267 q 720 336 742 336 l 715 336 q 688 264 694 336 m 871 705 l 871 646 q 873 639 871 639 l 903 639 q 930 718 926 639 q 903 791 924 791 l 898 791 q 871 705 875 791 m 688 715 q 726 639 688 646 l 743 639 q 746 646 746 639 l 746 722 q 719 791 741 791 l 715 791 q 688 715 693 791 m 208 336 l 208 217 l 214 214 l 240 214 q 269 274 269 214 q 270 277 270 274 q 236 340 270 340 l 214 340 l 208 336 m 1029 722 l 1029 712 q 1057 643 1035 643 l 1086 643 l 1086 712 q 1059 791 1086 777 l 1058 791 q 1029 722 1029 777 m 779 715 q 804 643 784 643 l 834 643 q 836 648 836 643 l 836 703 q 808 791 833 791 l 806 791 q 779 715 784 791 m 1214 724 l 1214 708 q 1240 643 1214 656 q 1268 686 1260 643 q 1271 722 1271 699 q 1244 791 1265 791 l 1240 791 q 1214 724 1214 776 m 968 977 l 972 977 q 978 963 975 977 l 978 856 l 997 856 q 1000 850 1000 856 l 1000 834 q 994 822 1000 830 l 978 822 l 978 715 q 1010 639 978 652 q 1013 620 1013 629 l 1013 617 q 1010 610 1013 610 l 1002 610 q 966 699 978 610 l 966 822 l 948 822 q 945 829 945 822 l 945 834 q 951 856 945 852 l 966 856 l 966 970 q 968 977 966 977 m 1126 977 l 1133 977 q 1135 967 1134 977 l 1135 856 l 1154 856 q 1157 850 1157 856 l 1157 834 q 1153 822 1157 830 l 1135 822 l 1135 734 q 1166 643 1135 643 l 1171 629 l 1171 617 q 1168 610 1171 610 l 1164 610 q 1124 693 1137 610 q 1123 736 1123 719 l 1123 822 l 1107 822 q 1104 829 1104 822 l 1104 844 q 1109 856 1104 849 l 1123 856 l 1123 970 q 1126 977 1124 977 m 1322 822 l 1331 822 q 1363 731 1354 822 l 1363 617 q 1360 610 1363 610 l 1355 610 q 1352 617 1352 610 l 1352 712 q 1333 791 1352 770 l 1324 791 q 1302 724 1308 791 l 1302 617 q 1299 610 1302 610 l 1294 610 q 1291 617 1291 610 l 1291 734 q 1322 822 1299 822 m 480 825 q 503 803 503 817 q 495 784 503 799 q 486 791 494 784 l 479 791 q 452 722 452 777 l 452 715 q 481 643 452 652 q 499 655 486 643 q 506 639 506 644 q 480 610 498 610 q 438 718 438 629 q 472 822 438 793 l 480 825 m 316 972 l 321 972 q 326 960 323 972 l 326 712 q 357 639 326 651 l 359 629 l 359 617 q 357 610 359 610 l 353 610 q 315 686 327 610 q 313 712 313 699 l 313 967 q 316 972 313 972 m 300 220 l 307 220 q 309 214 309 220 l 309 183 q 335 104 312 104 q 361 179 357 104 l 361 214 q 363 220 361 220 l 369 220 q 372 214 372 220 l 372 176 q 342 76 372 98 l 342 12 q 339 7 342 7 l 331 7 q 328 12 328 7 l 328 76 q 298 176 298 99 l 298 214 q 300 220 298 220 m 156 825 l 161 825 q 164 819 164 823 l 164 791 q 191 708 168 708 q 216 777 210 708 l 216 819 q 218 825 217 825 l 225 825 q 227 819 227 823 l 227 768 q 197 680 218 680 l 197 617 q 194 610 197 610 l 187 610 q 184 617 184 610 l 184 674 l 170 696 q 153 791 153 734 l 153 819 q 156 825 153 825 m 867 220 l 914 220 q 917 214 917 220 q 869 31 876 64 l 911 31 q 914 26 914 30 l 914 12 q 911 7 914 7 l 853 7 l 850 9 l 898 189 l 898 193 l 867 193 q 864 198 864 193 l 864 214 q 867 220 864 220 m 365 972 l 368 972 q 374 963 374 971 l 374 731 q 407 639 377 639 q 410 614 410 637 l 407 610 l 399 610 q 363 712 372 610 l 363 967 q 365 972 363 972 m 275 822 l 277 815 l 277 796 l 263 777 q 250 708 254 777 l 250 684 q 251 614 250 661 l 248 610 l 240 610 q 237 617 237 610 l 237 708 q 267 819 237 792 q 275 822 271 822 m 292 825 l 300 825 q 301 819 301 823 l 301 617 q 300 610 301 610 l 292 610 q 289 617 289 610 l 289 819 q 292 825 290 825 m 1180 825 l 1187 825 q 1190 819 1190 823 l 1190 617 q 1187 610 1190 610 l 1180 610 q 1177 617 1177 610 l 1177 819 q 1180 825 1179 825 m 419 825 l 427 825 q 429 819 429 823 l 429 617 q 427 610 429 610 l 419 610 q 418 617 418 610 l 418 819 q 419 825 418 825 m 784 117 l 784 107 q 787 79 784 99 l 788 79 q 825 176 789 79 l 825 183 q 811 189 817 189 q 784 117 791 189 m 555 114 q 559 79 556 79 l 597 179 q 583 189 590 189 q 555 114 555 175 m 298 898 q 305 882 302 892 l 305 875 q 297 853 305 853 l 290 853 q 289 860 289 853 l 289 869 q 298 898 289 898 m 1187 898 q 1195 875 1190 898 q 1188 853 1192 856 l 1180 853 q 1177 860 1177 853 l 1177 882 q 1187 898 1181 898 m 425 898 q 433 872 431 898 q 427 853 431 859 l 418 853 q 416 860 416 853 l 416 872 q 425 898 418 898 z "},"Ё":{"ha":640,"x_min":30,"x_max":605,"o":"m 589 0 l 46 0 q 34 5 39 0 q 30 16 30 9 l 30 978 q 34 990 30 985 q 46 996 39 996 l 109 996 l 109 994 l 589 994 q 600 989 595 994 q 605 978 605 985 l 605 932 q 600 920 605 925 q 589 916 595 916 l 125 916 q 114 910 118 916 q 109 898 109 906 l 109 601 q 114 589 109 594 q 125 583 118 583 l 458 583 q 471 579 465 583 q 475 567 475 574 l 475 522 q 471 510 475 514 q 458 505 465 505 l 125 505 q 114 499 118 505 q 109 488 109 495 l 109 76 l 589 76 q 600 71 595 76 q 605 58 605 66 l 605 16 q 600 5 605 9 q 589 0 595 0 m 167 1173 l 229 1173 q 269 1157 252 1172 q 285 1116 285 1141 l 285 1059 l 224 1059 q 183 1076 201 1059 q 167 1116 167 1093 l 167 1173 m 408 1173 l 469 1173 l 469 1116 q 453 1076 469 1093 q 412 1059 437 1059 l 353 1059 l 353 1116 q 369 1157 353 1141 q 408 1173 385 1173 z "},"Є":{"ha":918,"x_min":28,"x_max":880,"o":"m 880 136 q 724 37 812 72 q 536 0 635 0 q 395 20 463 0 q 269 76 327 39 q 94 258 160 144 q 28 507 28 372 q 47 650 28 582 q 104 774 68 718 q 285 949 171 883 q 536 1016 399 1016 q 711 985 628 1016 q 860 898 795 952 q 799 836 840 876 q 677 905 743 879 q 534 929 609 929 q 327 875 422 929 q 178 730 233 819 q 130 625 148 682 q 118 570 122 598 l 118 568 q 122 556 118 560 q 134 551 127 551 l 469 551 q 481 545 476 551 q 487 534 487 541 l 487 483 q 481 471 487 476 q 469 465 476 465 l 134 465 q 122 461 127 465 q 118 449 118 456 l 118 448 q 170 301 129 369 q 313 151 224 208 q 418 104 361 121 q 534 88 473 88 q 689 117 617 88 q 818 198 762 146 l 880 136 z "},"І":{"ha":195,"x_min":56,"x_max":137,"o":"m 66 0 q 58 3 62 0 q 56 11 56 7 l 56 989 q 60 998 56 994 q 69 1002 64 1002 l 125 1002 q 134 998 130 1002 q 137 989 137 994 l 137 11 q 134 3 137 7 q 126 0 132 0 l 66 0 z "},"Ї":{"ha":305,"x_min":3,"x_max":307,"o":"m 123 0 q 115 3 119 0 q 113 11 113 7 l 113 993 q 117 1001 113 998 q 126 1005 121 1005 l 182 1005 q 191 1001 187 1005 q 195 993 195 998 l 195 11 q 191 3 195 7 q 183 0 189 0 l 123 0 m 104 1158 q 122 1118 122 1141 l 122 1059 l 61 1059 q 20 1077 37 1059 q 3 1118 3 1093 l 3 1175 l 66 1175 q 104 1158 90 1173 m 248 1059 l 189 1059 l 189 1118 q 205 1158 189 1141 q 241 1175 220 1173 l 307 1175 l 307 1118 q 289 1077 307 1093 q 248 1059 273 1059 z "},"Ў":{"ha":947,"x_min":41,"x_max":899,"o":"m 60 311 l 60 313 q 64 321 60 317 q 73 326 68 326 l 132 326 q 145 321 141 326 q 151 311 151 316 q 153 304 152 308 q 182 236 164 270 q 228 175 199 203 q 330 107 270 130 q 467 85 391 85 q 600 107 540 85 q 703 172 659 129 q 750 235 731 201 q 781 301 769 269 q 808 410 804 362 q 812 457 812 456 l 812 578 q 764 519 791 547 q 633 435 708 464 q 467 407 559 407 q 296 437 372 407 q 164 522 220 465 q 109 598 130 557 q 73 675 87 637 q 43 806 47 749 q 41 871 41 863 l 41 986 q 45 998 41 993 q 57 1002 50 1002 l 110 1002 q 122 998 118 1002 q 127 986 127 993 l 127 868 l 130 821 q 153 712 132 773 q 182 644 164 678 q 228 583 199 612 q 330 515 270 538 q 467 494 391 494 q 600 515 540 494 q 703 581 659 537 q 750 643 731 609 q 781 709 769 677 q 808 818 804 770 q 812 865 812 864 l 812 982 q 817 994 812 989 q 829 1000 822 1000 l 882 1000 q 894 994 890 1000 q 899 982 899 989 l 899 458 q 894 396 899 453 q 861 267 890 339 q 823 187 846 227 q 764 111 799 146 q 633 27 708 56 q 467 -1 559 -1 q 296 28 372 -1 q 164 114 220 57 q 109 190 130 149 q 73 267 87 229 q 60 311 65 290 m 349 1138 l 347 1158 q 349 1179 347 1169 q 381 1171 373 1176 q 415 1105 389 1131 q 471 1080 439 1080 q 526 1105 502 1080 q 560 1171 552 1131 q 593 1179 571 1177 q 594 1158 594 1169 l 593 1138 q 544 1057 585 1088 q 471 1031 510 1031 q 397 1057 431 1031 q 349 1138 357 1088 z "},"А":{"ha":807,"x_min":34,"x_max":779,"o":"m 779 559 l 779 16 q 773 5 779 9 q 762 0 769 0 l 711 0 q 700 5 704 0 q 694 16 694 9 l 694 213 l 117 213 l 117 19 q 113 8 117 12 q 100 3 107 3 l 50 3 q 39 8 43 3 q 34 19 34 12 l 34 563 q 35 583 34 566 q 39 629 35 601 q 73 757 47 681 q 163 894 100 831 q 275 970 212 941 q 416 998 339 998 q 553 968 494 998 q 661 890 613 937 q 713 819 692 857 q 747 745 734 783 q 774 621 772 675 q 779 559 779 567 m 694 560 q 693 608 694 562 q 671 711 690 652 q 643 773 661 742 q 600 833 625 806 q 518 892 564 869 q 410 916 471 916 q 305 892 353 914 q 221 834 256 869 q 176 774 194 807 q 146 712 157 743 q 121 609 125 654 q 117 563 117 564 l 117 289 l 694 289 l 694 560 z "},"Б":{"ha":738,"x_min":37,"x_max":694,"o":"m 122 670 q 126 661 122 663 q 136 656 130 656 l 363 656 q 595 563 498 656 q 694 332 693 468 l 694 330 q 654 167 694 241 q 538 47 610 92 q 456 12 500 24 q 366 0 412 0 l 363 0 q 132 98 228 1 q 37 332 37 197 l 37 985 q 42 997 37 991 q 53 1001 46 1001 l 605 1001 q 616 996 612 1001 q 621 982 621 990 l 621 935 q 616 921 621 926 q 605 916 612 916 l 133 916 q 127 911 130 914 q 122 899 122 906 l 122 670 m 365 85 q 537 156 467 85 q 609 328 609 227 q 538 500 609 430 q 366 571 468 571 l 140 571 q 127 567 132 571 q 122 556 122 562 l 122 334 q 193 161 122 233 q 362 85 263 87 l 365 85 z "},"В":{"ha":751,"x_min":37,"x_max":708,"o":"m 439 0 l 53 0 q 42 5 46 0 q 37 16 37 9 l 37 985 q 42 997 37 991 q 53 1001 46 1001 l 407 1001 q 586 925 511 1000 q 659 746 659 850 q 637 640 659 690 q 575 556 614 591 q 568 544 568 552 q 576 530 570 534 q 673 429 636 492 q 708 288 708 365 q 631 90 708 174 q 439 0 552 7 m 624 288 q 564 431 624 372 q 420 491 505 491 l 140 491 q 127 486 133 491 q 122 475 122 481 l 122 102 q 127 90 122 95 q 140 85 133 85 l 439 85 q 570 151 517 92 q 624 288 624 209 m 407 917 l 140 917 q 127 911 133 917 q 122 899 122 906 l 122 593 q 127 581 122 586 q 140 576 133 576 l 420 576 q 530 631 486 582 q 575 746 575 680 q 526 867 575 817 q 407 917 476 916 z "},"Г":{"ha":613,"x_min":28,"x_max":613,"o":"m 597 920 l 125 920 q 114 916 118 920 q 109 903 109 910 l 109 11 q 103 -1 109 3 q 91 -7 98 -7 l 45 -7 q 33 -1 38 -7 q 28 11 28 3 l 28 985 q 33 997 28 991 q 45 1001 38 1001 l 597 1001 q 608 996 604 1001 q 613 983 613 990 l 613 937 q 608 925 613 930 q 597 920 604 920 z "},"Д":{"ha":1168,"x_min":34,"x_max":1139,"o":"m 834 998 q 861 997 852 998 q 873 996 872 996 q 895 991 880 994 q 905 986 901 991 q 909 975 909 982 l 909 98 q 914 90 910 92 q 926 84 920 84 l 1122 84 q 1134 79 1128 84 q 1139 66 1139 75 l 1139 18 q 1133 5 1138 11 q 1120 0 1128 0 l 53 0 q 41 5 45 0 q 34 18 35 11 l 34 66 q 39 79 34 75 q 52 84 45 84 l 247 84 q 259 90 254 84 q 263 96 262 92 q 285 340 267 227 q 345 589 305 479 q 426 755 378 682 q 534 883 473 830 q 705 978 623 958 q 834 998 789 998 m 347 102 q 353 90 347 94 q 365 84 358 84 l 808 84 q 821 90 815 84 q 826 102 826 94 l 826 898 q 821 910 826 905 q 808 914 815 914 q 709 892 769 911 q 587 819 650 872 q 494 708 536 773 q 422 559 452 643 q 366 326 385 456 q 346 102 351 221 l 347 102 z "},"Е":{"ha":640,"x_min":33,"x_max":612,"o":"m 591 0 l 49 0 q 38 5 42 0 q 33 16 33 9 l 33 985 q 38 997 33 991 q 49 1001 42 1001 l 594 1001 q 606 996 601 1001 q 612 983 612 990 l 612 937 q 606 926 612 930 q 594 921 601 921 l 129 921 q 117 916 122 921 q 113 903 113 911 l 113 605 q 117 593 113 597 q 129 587 122 587 l 464 587 q 476 582 471 587 q 481 571 481 578 l 481 525 q 476 513 481 518 q 464 507 471 507 l 129 507 q 117 503 122 507 q 113 491 113 498 l 113 76 l 591 76 q 604 71 600 76 q 609 58 609 66 l 609 16 q 604 5 609 9 q 591 0 600 0 z "},"Ж":{"ha":1351,"x_min":45,"x_max":1332,"o":"m 646 16 l 646 463 q 644 468 646 465 q 640 473 643 471 l 571 555 q 557 560 566 560 q 544 553 549 560 q 141 7 275 189 q 134 1 138 4 q 127 0 132 0 l 62 0 q 46 9 52 0 q 45 18 45 14 q 49 27 45 23 q 491 627 343 427 q 494 637 494 632 q 490 648 494 643 q 283 886 353 807 q 281 905 277 894 q 297 914 286 914 l 366 914 q 373 913 370 914 l 378 907 q 616 635 537 726 q 635 629 624 625 q 646 646 646 633 l 646 898 q 651 909 646 905 q 665 914 656 914 l 712 914 q 726 909 720 914 q 731 898 731 905 l 731 646 q 742 629 731 633 q 761 635 753 625 q 998 907 840 726 l 1004 913 q 1010 914 1006 914 l 1080 914 q 1096 905 1090 914 q 1093 886 1100 894 q 887 648 1024 807 q 883 637 883 643 q 886 627 883 632 q 1328 27 1034 427 q 1332 18 1332 23 q 1331 9 1332 14 q 1314 0 1325 0 l 1249 0 q 1242 1 1245 0 q 1236 7 1238 4 q 833 553 1101 189 q 819 560 827 560 q 806 555 811 560 l 736 473 q 732 468 734 471 q 731 463 731 465 l 731 16 q 726 5 731 9 q 712 0 720 0 l 665 0 q 651 5 656 0 q 646 16 646 9 z "},"З":{"ha":524,"x_min":37,"x_max":480,"o":"m 90 917 q 61 918 76 917 q 52 922 56 918 q 46 930 47 925 l 38 983 q 41 994 37 989 q 50 1001 45 1000 l 179 1001 q 358 925 283 1000 q 431 746 431 850 q 410 640 431 690 q 347 556 387 591 q 340 544 340 552 q 349 530 342 534 q 445 429 408 492 q 480 288 480 365 q 403 90 480 174 q 212 0 324 7 l 50 0 q 41 7 45 1 q 38 18 37 12 l 46 72 q 52 80 47 77 q 61 84 56 84 q 90 85 76 85 l 212 85 q 342 151 289 92 q 396 288 396 209 q 336 431 396 372 q 170 494 277 491 q 127 495 149 495 l 127 571 q 170 572 149 571 q 302 631 258 582 q 347 746 347 680 q 298 867 347 817 q 179 917 248 916 l 90 917 z "},"И":{"ha":918,"x_min":41,"x_max":871,"o":"m 871 983 l 871 4 q 867 -8 871 -3 q 854 -12 861 -12 l 803 -12 q 792 -8 796 -12 q 787 4 787 -3 l 787 152 q 741 98 766 123 q 614 16 686 43 q 453 -12 543 -12 q 288 16 361 -12 q 161 100 214 45 q 76 237 100 163 q 45 365 52 312 q 41 412 42 393 l 41 986 q 46 998 41 993 q 57 1004 50 1004 l 109 1004 q 121 998 115 1004 q 125 986 125 993 l 125 434 q 127 387 125 433 q 149 282 130 342 q 178 217 160 250 q 222 157 195 184 q 321 92 263 114 q 453 71 380 71 q 582 92 525 71 q 681 155 639 113 q 727 214 708 183 q 757 279 746 247 q 783 384 780 338 l 787 430 l 787 983 q 792 996 787 990 q 803 1000 796 1000 l 854 1000 q 867 996 861 1000 q 871 983 871 990 z "},"Й":{"ha":918,"x_min":41,"x_max":871,"o":"m 57 1004 l 109 1004 q 121 998 115 1004 q 125 986 125 993 l 125 434 q 127 387 125 433 q 149 282 130 342 q 178 217 160 250 q 222 157 195 184 q 321 92 263 114 q 453 71 380 71 q 582 92 525 71 q 681 155 639 113 q 727 214 708 183 q 757 279 746 247 q 783 384 780 338 l 787 430 l 787 983 q 792 996 787 990 q 803 1000 796 1000 l 854 1000 q 867 996 861 1000 q 871 983 871 990 l 871 4 q 867 -8 871 -3 q 854 -12 861 -12 l 803 -12 q 792 -8 796 -12 q 787 4 787 -3 l 787 152 q 741 98 766 123 q 614 16 686 43 q 453 -12 543 -12 q 288 16 361 -12 q 161 100 214 45 q 76 237 100 163 q 45 365 52 312 q 41 412 42 393 l 41 986 q 46 998 41 993 q 57 1004 50 1004 m 334 1138 l 332 1158 q 334 1179 332 1169 q 366 1171 358 1176 q 400 1105 374 1131 q 456 1080 425 1080 q 511 1105 487 1080 q 545 1171 537 1131 q 578 1179 556 1177 q 579 1158 579 1169 l 578 1138 q 529 1057 570 1088 q 456 1031 495 1031 q 382 1057 416 1031 q 334 1138 342 1088 z "},"К":{"ha":750,"x_min":45,"x_max":731,"o":"m 285 627 q 727 27 433 427 q 731 18 731 23 q 730 9 731 14 q 713 0 724 0 l 648 0 q 642 1 644 0 q 635 7 637 4 q 232 553 500 189 q 218 560 227 560 q 205 555 210 560 l 136 473 q 132 468 133 471 q 130 463 130 465 l 130 19 q 126 7 130 12 q 114 1 121 1 l 61 1 q 49 7 54 1 q 45 19 45 12 l 45 1002 l 88 1002 q 118 989 106 1002 q 130 964 127 978 l 130 646 q 141 629 130 633 q 160 635 152 625 q 397 907 239 726 l 403 913 q 410 914 406 914 l 479 914 q 495 905 490 914 q 492 886 499 894 q 286 648 423 807 q 282 637 282 643 q 285 627 282 632 z "},"Л":{"ha":751,"x_min":56,"x_max":701,"o":"m 627 977 q 666 974 644 977 q 697 964 693 970 q 701 954 701 960 l 701 -7 q 696 -18 701 -14 q 685 -23 692 -23 l 635 -23 q 623 -18 628 -23 q 618 -7 618 -14 l 618 876 q 613 888 618 883 q 601 892 608 892 q 502 871 562 890 q 380 798 442 850 q 286 686 328 751 q 214 537 244 621 q 159 304 178 434 q 138 18 140 174 q 133 7 138 11 q 122 1 129 1 l 72 1 q 60 7 65 1 q 56 18 56 11 q 77 319 57 180 q 137 567 98 457 q 218 734 171 661 q 327 861 266 808 q 498 956 415 936 q 627 977 582 977 z "},"М":{"ha":917,"x_min":56,"x_max":857,"o":"m 125 -3 l 73 -3 q 61 3 65 -3 q 56 15 56 7 l 56 993 q 66 1009 56 1004 q 73 1010 71 1010 q 84 1005 80 1010 l 452 637 q 464 632 457 632 q 476 637 471 632 q 829 990 594 754 q 848 994 837 998 q 857 978 857 990 l 857 18 q 853 5 857 9 q 841 0 848 0 l 788 0 q 776 5 781 0 q 770 18 770 9 l 770 769 q 761 785 770 780 q 742 781 750 789 q 476 514 654 692 q 464 510 471 510 q 452 514 457 510 l 171 795 q 153 799 163 804 q 142 784 142 795 l 142 14 q 137 1 142 7 q 125 -3 133 -3 z "},"Н":{"ha":806,"x_min":56,"x_max":751,"o":"m 681 1008 l 735 1008 q 747 1004 742 1008 q 751 991 751 998 l 751 15 q 747 3 751 8 q 735 -1 742 -1 l 681 -1 q 669 3 674 -1 q 665 15 665 8 l 665 476 q 659 488 665 483 q 647 492 654 492 l 160 492 q 148 488 153 492 q 144 476 144 483 l 144 12 q 138 0 144 5 q 126 -4 133 -4 l 73 -4 q 61 0 65 -4 q 56 12 56 5 l 56 989 q 61 1001 56 996 q 73 1006 65 1006 l 126 1006 q 138 1001 133 1006 q 144 989 144 996 l 144 598 q 148 586 144 591 q 160 581 153 581 l 646 581 q 658 586 652 581 q 663 598 663 591 l 663 991 q 669 1004 663 998 q 681 1008 674 1008 z "},"О":{"ha":1057,"x_min":41,"x_max":1017,"o":"m 529 -1 q 393 19 458 -1 q 271 72 328 38 q 104 247 168 137 q 41 487 41 355 q 60 623 41 557 q 114 743 80 688 q 289 910 179 846 q 529 974 397 974 q 769 911 659 974 q 944 743 879 848 q 997 623 978 688 q 1017 487 1017 557 q 997 350 1017 415 q 943 229 978 285 q 769 62 879 126 q 529 -1 659 -1 m 533 890 q 420 873 473 890 q 320 829 366 857 q 182 685 233 776 q 129 486 129 594 q 145 373 129 427 q 189 273 160 319 q 334 134 243 186 q 533 81 425 81 q 646 98 591 81 q 746 142 699 113 q 884 286 831 195 q 937 486 937 377 q 884 685 937 594 q 745 829 831 776 q 644 873 699 857 q 533 890 591 890 z "},"П":{"ha":891,"x_min":46,"x_max":861,"o":"m 845 -7 l 795 -7 q 784 -1 788 -7 q 779 9 779 3 l 779 553 l 777 600 q 755 703 774 644 q 727 766 745 734 q 684 825 709 798 q 586 888 643 867 q 457 910 529 910 q 330 888 387 909 q 233 826 274 867 q 187 766 206 799 q 157 704 170 735 q 133 601 136 646 l 129 556 l 129 12 q 123 1 129 5 q 113 -4 119 -4 l 62 -4 q 50 1 56 -4 q 46 12 46 5 l 46 556 q 50 613 46 560 q 81 738 54 667 q 118 812 95 774 q 174 884 141 850 q 298 964 228 939 q 457 991 369 991 q 618 964 547 991 q 743 882 690 936 q 798 811 776 849 q 831 736 818 773 q 859 614 856 669 q 861 553 861 566 l 861 11 q 857 -1 861 3 q 845 -7 852 -7 z "},"Р":{"ha":639,"x_min":27,"x_max":627,"o":"m 627 700 q 536 490 625 576 q 324 404 448 404 l 126 404 q 117 400 121 404 q 113 391 113 397 l 113 38 q 102 8 113 20 q 75 -5 91 -3 l 27 -5 l 27 700 q 114 913 27 823 q 324 1002 201 1001 l 327 1002 q 408 991 369 1002 q 484 959 449 981 q 589 850 549 918 q 627 703 627 783 l 627 700 m 324 918 q 175 852 236 917 q 113 700 113 788 l 113 503 q 117 494 113 498 q 127 490 121 490 l 327 490 q 479 552 416 490 q 541 704 541 614 q 477 856 541 793 q 326 918 415 918 l 324 918 z "},"С":{"ha":918,"x_min":28,"x_max":880,"o":"m 880 136 q 724 37 812 72 q 536 0 635 0 q 395 20 463 0 q 269 76 327 39 q 94 258 160 144 q 28 507 28 372 q 47 650 28 582 q 104 774 68 718 q 285 949 171 883 q 536 1016 399 1016 q 711 985 628 1016 q 860 898 795 952 q 799 836 840 876 q 677 905 743 879 q 534 929 609 929 q 327 875 422 929 q 178 730 233 819 q 130 625 148 682 q 114 509 114 570 q 170 301 114 396 q 313 151 224 208 q 418 104 361 121 q 534 88 473 88 q 689 117 617 88 q 818 198 762 146 l 880 136 z "},"Т":{"ha":613,"x_min":33,"x_max":581,"o":"m 581 987 l 581 935 q 575 922 581 926 q 563 917 570 917 l 368 917 q 355 911 361 917 q 350 899 350 907 l 350 12 q 345 0 350 4 q 332 -5 340 -5 l 279 -5 q 267 0 273 -5 q 263 12 263 4 l 263 899 q 258 911 263 907 q 245 917 252 917 l 50 917 q 38 922 42 917 q 33 935 33 926 l 33 987 q 38 1000 33 994 q 50 1005 42 1005 l 562 1005 q 574 1000 570 1005 q 581 987 579 994 z "},"У":{"ha":947,"x_min":41,"x_max":899,"o":"m 60 311 q 64 321 60 317 q 73 326 68 326 l 133 326 q 145 321 141 326 q 151 311 151 316 q 153 304 152 308 q 182 236 164 270 q 228 175 199 203 q 330 107 270 130 q 467 85 391 85 q 600 107 540 85 q 703 172 659 129 q 750 235 731 201 q 781 301 769 269 q 808 410 804 362 q 812 457 812 456 l 812 578 q 764 519 791 547 q 633 435 708 464 q 467 407 559 407 q 296 437 372 407 q 164 522 220 465 q 109 598 130 557 q 73 675 87 637 q 43 806 47 749 q 41 871 41 863 l 41 986 q 45 998 41 993 q 57 1002 50 1002 l 110 1002 q 122 998 118 1002 q 127 986 127 993 l 127 868 l 130 821 q 153 712 132 773 q 182 644 164 678 q 228 583 199 612 q 330 515 270 538 q 467 494 391 494 q 600 515 540 494 q 703 581 659 537 q 750 643 731 609 q 781 709 769 677 q 808 818 804 770 q 812 865 812 864 l 812 982 q 817 994 812 989 q 829 1000 822 1000 l 882 1000 q 894 994 890 1000 q 899 982 899 989 l 899 458 q 894 396 899 453 q 861 267 890 339 q 823 187 846 227 q 764 111 799 146 q 633 27 708 56 q 467 -1 559 -1 q 296 28 372 -1 q 164 114 220 57 q 109 190 130 149 q 73 267 87 229 q 60 311 65 290 z "},"Ф":{"ha":1137,"x_min":11,"x_max":1124,"o":"m 525 987 q 530 998 525 994 q 544 1004 536 1004 l 591 1004 q 605 998 600 1004 q 610 987 610 994 l 610 707 l 612 708 q 822 798 699 796 l 825 798 q 906 787 867 798 q 982 754 947 776 q 1086 646 1047 713 q 1124 498 1124 578 l 1124 495 q 1034 285 1123 372 q 822 199 945 199 l 624 199 q 614 195 618 199 q 610 186 610 193 l 610 11 q 605 0 610 4 q 591 -5 600 -5 l 544 -5 q 530 0 536 -5 q 525 11 525 4 l 525 189 q 521 195 524 193 q 511 199 517 199 l 313 199 q 102 285 190 199 q 11 495 12 372 l 11 498 q 49 646 11 578 q 153 754 88 713 q 229 787 189 776 q 311 798 269 798 l 313 798 q 524 708 437 796 l 525 707 l 525 987 m 822 713 q 673 647 734 712 q 610 503 613 586 l 610 298 q 614 289 610 293 q 625 285 618 285 l 825 285 q 977 347 914 285 q 1039 499 1039 410 q 975 651 1039 589 q 823 713 913 713 l 822 713 m 525 298 l 525 503 q 463 647 521 586 q 313 713 401 712 l 312 713 q 160 651 222 713 q 96 499 96 589 q 159 347 96 410 q 311 285 221 285 l 510 285 q 521 289 517 285 q 525 298 525 293 z "},"Х":{"ha":891,"x_min":27,"x_max":854,"o":"m 99 989 q 118 865 102 925 q 159 755 133 807 q 279 605 205 662 q 441 548 354 548 q 532 566 488 548 q 614 613 576 582 q 731 770 685 671 q 783 989 777 869 q 787 1002 783 997 q 796 1008 791 1008 l 841 1008 q 850 1001 846 1008 q 854 989 854 996 l 854 987 q 783 703 846 830 q 624 510 720 575 q 616 492 616 503 q 624 475 616 480 q 783 283 720 408 q 853 3 845 157 q 849 -12 853 -5 q 840 -18 845 -18 l 796 -18 q 787 -14 791 -18 q 783 -1 783 -8 q 764 121 779 62 q 723 229 749 179 q 604 378 677 323 q 441 435 529 435 q 350 418 393 435 q 269 370 307 401 q 152 214 198 312 q 99 -1 107 117 q 96 -14 99 -9 q 85 -19 92 -19 l 42 -19 q 33 -14 35 -19 q 28 1 28 -7 q 99 283 35 157 q 258 475 161 408 q 266 492 266 480 q 258 510 266 505 q 98 703 161 575 q 28 987 35 830 l 27 989 q 31 1001 27 996 q 42 1008 35 1008 l 85 1008 q 95 1002 91 1008 q 99 989 99 997 z "},"Ц":{"ha":1059,"x_min":41,"x_max":1012,"o":"m 697 201 q 678 216 689 208 l 667 225 q 681 241 673 232 q 694 258 689 251 q 720 274 705 271 l 728 274 q 750 267 741 274 l 751 266 l 757 279 q 783 384 780 338 l 787 430 l 787 983 q 792 996 787 990 q 803 1000 796 1000 l 854 1000 q 867 996 861 1000 q 871 983 871 990 l 871 431 q 867 373 871 427 q 836 247 863 317 q 819 212 829 229 l 978 84 q 998 69 985 80 l 1012 58 q 998 42 1006 52 q 985 24 990 33 q 956 9 974 11 q 949 9 952 8 q 924 18 936 9 l 774 137 q 741 98 760 117 q 614 16 686 43 q 453 -12 543 -12 q 288 16 361 -12 q 161 100 214 45 q 76 237 100 163 q 45 365 52 312 q 41 412 42 393 l 41 986 q 46 998 41 993 q 57 1004 50 1004 l 109 1004 q 121 998 115 1004 q 125 986 125 993 l 125 434 q 127 387 125 433 q 149 282 130 342 q 178 217 160 250 q 222 157 195 184 q 321 92 263 114 q 453 71 380 71 q 582 92 525 71 q 681 155 639 113 q 711 189 697 171 q 700 198 705 194 l 697 201 z "},"Ч":{"ha":891,"x_min":46,"x_max":861,"o":"m 857 997 q 861 985 861 993 l 861 12 q 856 0 861 4 q 845 -5 852 -5 l 793 -5 q 783 0 788 -5 q 779 12 779 4 l 779 557 q 743 517 762 536 q 618 434 690 463 q 457 407 547 407 q 298 434 369 407 q 174 514 228 460 q 118 586 141 548 q 81 661 95 624 q 50 785 54 731 q 46 842 46 838 l 46 983 q 50 994 46 990 q 62 1000 56 1000 l 113 1000 q 123 994 119 1000 q 129 983 129 990 l 129 842 l 133 798 q 157 694 136 753 q 187 632 170 663 q 233 572 206 600 q 330 510 274 532 q 457 488 387 490 q 586 510 529 488 q 684 574 643 532 q 727 632 709 601 q 755 696 745 665 q 777 799 774 754 l 779 845 l 779 986 q 784 997 779 993 q 795 1002 788 1002 l 845 1002 q 857 997 852 1002 z "},"Ш":{"ha":1641,"x_min":46,"x_max":1594,"o":"m 1590 998 q 1594 986 1594 994 l 1594 18 q 1590 5 1594 9 q 1577 0 1584 0 l 1527 0 q 1516 5 1520 0 q 1511 16 1511 9 l 1511 138 q 1476 98 1495 117 q 1351 15 1423 43 q 1190 -12 1279 -12 q 1031 15 1101 -12 q 906 95 960 41 q 850 167 873 129 q 822 220 834 194 q 798 168 811 194 q 743 98 776 130 q 618 15 690 43 q 457 -12 547 -12 q 298 15 369 -12 q 174 95 228 41 q 118 167 141 129 q 81 241 95 205 q 50 366 54 312 q 46 423 46 419 l 46 985 q 50 996 46 991 q 62 1001 56 1001 l 113 1001 q 123 996 119 1001 q 129 985 129 991 l 129 423 l 133 378 q 157 275 136 334 q 187 213 170 244 q 233 153 206 180 q 330 91 274 113 q 457 69 387 71 q 586 91 529 69 q 684 155 643 113 q 727 213 709 182 q 755 277 745 245 q 777 380 774 335 l 779 426 l 779 985 q 783 996 779 991 q 795 1001 788 1001 l 845 1001 q 856 996 852 1001 q 861 985 861 991 l 861 423 l 865 378 q 890 275 868 334 q 920 213 902 244 q 966 153 939 180 q 1062 91 1006 113 q 1190 69 1119 71 q 1318 91 1261 69 q 1416 155 1375 113 q 1459 213 1442 182 q 1488 277 1477 245 q 1510 380 1507 335 l 1511 426 l 1511 987 q 1516 998 1511 994 q 1527 1004 1520 1004 l 1577 1004 q 1590 998 1584 1004 z "},"Щ":{"ha":1782,"x_min":46,"x_max":1735,"o":"m 1590 998 q 1594 986 1594 994 l 1594 426 q 1591 365 1594 414 q 1564 243 1588 311 q 1549 208 1557 225 l 1735 61 q 1721 45 1729 54 q 1708 27 1713 35 q 1679 12 1697 14 q 1672 12 1675 11 q 1647 20 1659 12 l 1506 132 q 1476 98 1492 114 q 1351 15 1423 43 q 1190 -12 1279 -12 q 1031 15 1101 -12 q 906 95 960 41 q 850 167 873 129 q 822 220 834 194 q 798 168 811 194 q 743 98 776 130 q 618 15 690 43 q 457 -12 547 -12 q 298 15 369 -12 q 174 95 228 41 q 118 167 141 129 q 81 241 95 205 q 50 366 54 312 q 46 423 46 419 l 46 985 q 50 996 46 991 q 62 1001 56 1001 l 113 1001 q 123 996 119 1001 q 129 985 129 991 l 129 423 l 133 378 q 157 275 136 334 q 187 213 170 244 q 233 153 206 180 q 330 91 274 113 q 457 69 387 71 q 586 91 529 69 q 684 155 643 113 q 727 213 709 182 q 755 277 745 245 q 777 380 774 335 l 779 426 l 779 985 q 783 996 779 991 q 795 1001 788 1001 l 845 1001 q 856 996 852 1001 q 861 985 861 991 l 861 423 l 865 378 q 890 275 868 334 q 920 213 902 244 q 966 153 939 180 q 1062 91 1006 113 q 1190 69 1119 71 q 1318 91 1261 69 q 1416 155 1375 113 q 1440 184 1430 168 l 1435 190 l 1392 227 q 1405 243 1397 233 q 1419 259 1413 252 q 1444 275 1430 273 l 1453 275 q 1476 267 1465 275 l 1482 262 l 1488 277 q 1510 380 1507 335 l 1511 426 l 1511 987 q 1516 998 1511 994 q 1527 1004 1520 1004 l 1577 1004 q 1590 998 1584 1004 z "},"Ъ":{"ha":964,"x_min":33,"x_max":910,"o":"m 581 0 l 278 0 q 263 15 263 0 l 263 898 q 258 910 263 906 q 245 916 252 916 l 50 916 q 38 921 42 916 q 33 933 33 925 l 33 983 q 38 996 33 990 q 50 1001 42 1001 l 312 1001 q 349 955 347 1001 l 349 591 q 355 578 349 583 l 362 576 q 373 582 368 576 q 581 656 464 656 q 812 562 715 656 q 910 330 909 467 q 814 96 910 193 q 581 0 718 0 m 587 85 q 761 155 689 85 q 836 328 833 224 q 764 500 836 429 q 590 571 693 571 q 427 508 496 571 q 350 351 358 445 l 349 338 l 349 100 q 363 85 349 85 l 587 85 z "},"Ы":{"ha":933,"x_min":37,"x_max":875,"o":"m 354 0 l 52 0 q 37 15 37 0 l 37 1001 l 85 1001 q 122 955 121 1001 l 122 591 q 129 578 122 583 l 136 576 q 146 582 141 576 q 354 656 237 656 q 585 562 488 656 q 684 330 682 467 q 587 96 684 193 q 354 0 491 0 m 361 85 q 534 155 463 85 q 609 328 606 224 q 538 500 609 429 q 363 571 467 571 q 201 508 270 571 q 123 351 132 445 l 122 338 l 122 100 q 137 85 122 85 l 361 85 m 804 0 q 796 3 800 0 q 793 11 793 7 l 793 987 q 798 997 793 993 q 807 1001 802 1001 l 863 1001 q 872 997 868 1001 q 875 987 875 993 l 875 11 q 872 3 875 7 q 864 0 869 0 l 804 0 z "},"Ь":{"ha":738,"x_min":37,"x_max":684,"o":"m 354 0 l 52 0 q 37 15 37 0 l 37 1001 l 85 1001 q 122 955 121 1001 l 122 591 q 129 578 122 583 l 136 576 q 146 582 141 576 q 354 656 237 656 q 585 562 488 656 q 684 330 682 467 q 587 96 684 193 q 354 0 491 0 m 361 85 q 534 155 463 85 q 609 328 606 224 q 538 500 609 429 q 363 571 467 571 q 201 508 270 571 q 123 351 132 445 l 122 338 l 122 100 q 137 85 122 85 l 361 85 z "},"Э":{"ha":918,"x_min":28,"x_max":880,"o":"m 28 136 l 91 198 q 220 117 146 146 q 374 88 292 88 q 491 104 435 88 q 595 151 548 121 q 739 301 685 208 q 791 448 779 369 l 791 449 q 787 461 791 456 q 774 465 781 465 l 439 465 q 427 471 433 465 q 422 483 422 476 l 422 534 q 427 545 422 541 q 439 551 433 551 l 774 551 q 787 556 781 551 q 791 568 791 560 l 791 570 q 779 625 787 598 q 731 730 761 682 q 582 875 675 819 q 374 929 487 929 q 232 905 300 929 q 110 836 165 879 q 49 898 69 876 q 198 985 114 952 q 373 1016 281 1016 q 624 949 510 1016 q 804 774 738 883 q 861 650 841 718 q 880 507 880 582 q 815 258 880 372 q 640 76 749 144 q 514 20 582 39 q 373 0 446 0 q 184 37 274 0 q 28 136 96 72 z "},"Ю":{"ha":1435,"x_min":56,"x_max":1396,"o":"m 907 -1 q 772 19 837 -1 q 650 72 707 38 q 483 247 547 137 q 419 484 419 354 q 416 488 418 486 q 404 492 411 492 l 160 492 q 148 488 153 492 q 144 476 144 483 l 144 12 q 138 0 144 5 q 126 -4 133 -4 l 73 -4 q 61 0 65 -4 q 56 12 56 5 l 56 989 q 61 1001 56 996 q 73 1006 65 1006 l 126 1006 q 138 1001 133 1006 q 144 989 144 996 l 144 598 q 148 586 144 591 q 160 581 153 581 l 403 581 q 426 586 420 581 l 430 590 q 438 623 433 606 q 492 743 458 688 q 667 910 557 846 q 907 974 776 974 q 1147 911 1038 974 q 1322 743 1257 848 q 1375 623 1356 688 q 1396 487 1396 557 q 1375 350 1396 415 q 1321 229 1356 285 q 1147 62 1257 126 q 907 -1 1038 -1 m 911 890 q 799 873 852 890 q 699 829 745 857 q 560 685 612 776 q 507 486 507 594 q 524 373 507 427 q 567 273 538 319 q 712 134 621 186 q 911 81 803 81 q 1024 98 970 81 q 1124 142 1077 113 q 1263 286 1210 195 q 1316 486 1316 377 q 1263 685 1316 594 q 1123 829 1210 776 q 1023 873 1077 857 q 911 890 970 890 z "},"Я":{"ha":696,"x_min":28,"x_max":663,"o":"m 31 0 q 28 9 28 4 q 31 18 28 14 q 235 430 167 292 q 210 442 222 435 q 187 458 198 449 l 186 460 q 147 495 153 488 q 130 513 141 502 q 83 598 100 551 q 64 697 65 646 q 148 911 61 822 q 358 1001 235 1000 l 366 1001 q 576 910 490 1000 q 663 697 663 821 l 663 -12 l 617 -12 q 589 1 601 -11 q 578 31 578 14 l 578 387 q 574 396 578 392 q 564 400 570 400 l 320 400 l 125 1 q 118 -5 123 -3 q 110 -8 114 -8 l 46 -8 q 31 0 37 -8 m 212 551 q 362 487 274 487 l 564 487 q 574 491 570 487 q 578 500 578 495 l 578 699 q 515 853 578 788 q 366 918 454 917 l 363 918 q 212 856 275 918 q 148 703 148 792 q 212 551 148 613 z "},"а":{"ha":667,"x_min":42,"x_max":621,"o":"m 621 286 l 621 14 q 617 4 621 7 q 608 0 613 0 l 335 0 q 133 81 220 0 q 42 278 46 163 l 42 289 q 77 429 42 365 q 182 537 117 498 q 258 570 217 559 q 331 579 293 579 l 343 579 q 538 487 457 574 q 621 286 621 400 m 538 95 l 538 286 q 481 431 538 370 q 339 496 423 494 l 332 496 q 186 435 247 496 q 125 289 125 374 l 125 282 q 189 140 127 198 q 335 81 251 81 l 526 81 q 534 85 530 81 q 538 95 538 90 z "},"б":{"ha":644,"x_min":42,"x_max":621,"o":"m 43 290 l 43 708 q 129 914 43 827 q 332 1001 213 1001 l 334 1001 q 533 918 450 1000 q 621 723 616 838 q 617 712 621 716 q 608 709 613 709 q 551 708 589 708 q 541 712 545 708 q 537 720 537 716 q 473 860 533 802 q 331 917 414 917 q 184 857 245 917 q 125 711 125 796 l 125 511 q 132 499 125 503 q 145 502 138 496 q 227 549 182 532 q 323 566 273 566 q 522 486 438 567 q 608 288 606 403 l 608 282 q 526 84 608 167 q 326 0 442 0 l 56 0 q 46 4 50 0 q 42 14 42 8 l 42 283 q 43 290 42 286 m 528 279 l 528 283 q 469 426 528 366 q 326 486 410 486 q 189 433 247 486 q 125 302 132 380 l 125 298 q 123 290 123 294 l 123 92 q 127 84 123 87 q 137 80 132 80 l 323 80 q 467 138 406 80 q 528 279 526 195 z "},"в":{"ha":475,"x_min":53,"x_max":444,"o":"m 369 176 q 336 250 369 220 q 260 281 305 281 l 137 281 q 130 278 133 281 q 127 273 127 275 l 127 83 q 130 76 127 79 q 137 75 133 75 l 270 75 q 339 107 312 77 q 369 176 369 137 m 251 510 l 137 510 q 130 507 133 510 q 127 502 127 505 l 127 362 q 130 357 127 359 q 137 355 133 355 l 259 355 q 316 380 293 358 q 340 431 340 401 q 315 487 340 464 q 251 510 288 509 m 288 0 l 62 0 q 56 3 58 0 q 53 9 53 5 l 53 574 q 56 581 53 578 q 62 583 58 583 l 269 583 q 373 538 330 582 q 415 434 415 495 q 403 373 415 401 q 366 324 389 345 q 362 317 362 321 q 368 309 363 311 q 423 250 401 286 q 444 167 444 213 q 399 52 444 102 q 288 0 353 4 z "},"г":{"ha":389,"x_min":16,"x_max":378,"o":"m 206 0 q 156 4 182 0 q 103 18 130 9 q 26 96 46 38 q 16 152 16 123 q 30 227 16 187 q 96 300 45 270 q 203 357 146 330 q 245 376 225 366 q 277 393 264 385 q 296 437 300 410 q 273 488 289 472 q 214 510 258 506 q 148 502 176 513 q 104 481 119 490 q 94 479 99 479 q 84 484 87 480 q 68 503 73 496 q 53 519 58 514 q 50 532 49 525 q 57 544 50 540 q 119 575 77 557 q 197 589 153 589 q 221 587 209 589 q 323 549 289 582 q 365 494 357 517 q 370 473 366 490 q 374 437 374 458 q 361 376 374 403 q 321 331 347 349 q 283 309 307 320 q 237 288 262 298 q 157 247 203 271 q 104 203 111 224 q 96 142 96 179 q 132 94 98 106 q 214 79 165 80 q 327 115 262 77 q 339 117 334 118 q 350 110 346 115 q 374 72 366 84 q 378 64 377 66 q 377 58 378 62 q 368 47 374 52 q 288 12 328 24 q 206 0 247 0 z "},"д":{"ha":640,"x_min":42,"x_max":620,"o":"m 113 -118 q 122 -122 118 -118 q 126 -130 126 -126 q 190 -270 130 -212 q 332 -327 250 -327 q 479 -267 418 -327 q 538 -121 538 -206 l 538 3 l 335 3 q 130 87 217 3 q 42 288 43 170 l 42 292 q 127 495 42 410 q 331 579 212 581 l 334 579 q 536 492 452 579 q 620 288 620 406 l 620 -118 q 534 -324 620 -237 q 331 -411 450 -411 l 330 -411 q 130 -328 213 -410 q 42 -133 47 -248 q 46 -122 42 -126 q 56 -119 50 -119 q 113 -118 75 -118 m 538 286 q 479 434 538 373 q 332 496 418 496 q 186 435 247 496 q 125 289 125 374 q 187 142 126 203 q 335 83 250 83 l 525 83 q 534 87 530 83 q 538 96 538 91 l 538 286 z "},"е":{"ha":583,"x_min":27,"x_max":538,"o":"m 536 486 q 538 476 538 481 l 538 475 q 536 468 538 471 l 194 126 q 317 83 248 84 q 441 121 385 81 q 449 123 445 123 q 457 119 453 123 l 502 81 q 506 72 506 79 q 500 61 506 65 q 320 0 420 0 l 312 0 q 125 75 205 3 q 27 271 37 152 l 27 296 q 94 480 27 399 q 279 585 167 570 q 321 587 301 587 q 486 536 410 587 q 513 511 503 521 q 536 486 522 503 m 129 205 q 140 198 133 199 l 142 198 q 151 202 146 198 l 411 463 q 415 472 415 467 l 415 475 q 408 484 415 481 q 323 503 366 503 q 278 499 301 503 q 163 433 210 486 q 113 321 121 384 q 111 293 111 307 q 129 205 110 247 z "},"ж":{"ha":1009,"x_min":22,"x_max":981,"o":"m 544 15 q 540 4 544 8 q 530 0 536 0 l 473 0 q 463 4 467 0 q 460 15 460 8 l 460 199 q 458 202 458 201 q 457 206 458 203 q 369 315 399 278 q 359 319 365 319 q 349 315 353 319 q 117 4 194 107 q 113 0 115 1 q 107 -1 110 -1 l 35 -1 q 23 5 27 -1 q 22 11 22 8 q 24 20 22 16 q 298 385 208 263 q 301 393 301 389 q 298 401 301 399 q 170 560 213 507 q 168 575 164 567 q 179 582 171 582 l 241 582 q 247 581 245 582 q 252 576 250 579 q 437 359 374 431 q 452 355 442 353 q 460 368 460 358 l 460 567 q 463 578 460 574 q 473 582 467 582 l 530 582 q 540 578 536 582 q 544 567 544 574 l 544 368 q 552 355 544 358 q 567 359 562 353 q 750 576 628 431 q 755 581 753 579 q 761 582 757 582 l 823 582 q 834 575 831 582 q 833 560 838 567 q 704 401 789 507 q 701 393 701 399 q 704 385 701 389 q 978 20 795 263 q 981 11 981 16 q 979 5 981 8 q 967 -1 975 -1 l 895 -1 q 890 0 892 -1 q 886 4 887 1 q 654 315 808 107 q 643 319 650 319 q 633 315 637 319 q 547 206 604 278 q 545 202 545 203 q 544 198 544 201 l 544 15 z "},"з":{"ha":368,"x_min":52,"x_max":336,"o":"m 129 283 l 104 283 l 104 353 l 129 353 q 209 380 186 358 q 233 431 233 401 q 208 487 233 464 q 144 510 180 509 l 66 510 q 61 514 62 510 q 57 522 58 517 l 53 567 q 54 578 52 574 q 60 583 57 582 l 161 583 q 266 538 222 582 q 308 434 308 495 q 296 373 308 401 q 259 324 282 345 q 255 317 255 321 q 260 309 256 311 q 316 250 294 286 q 336 167 336 213 q 292 52 336 102 q 180 0 245 4 l 60 0 q 54 5 57 1 q 53 16 52 9 l 57 62 l 60 71 q 66 73 62 73 q 83 75 75 75 l 163 75 q 232 107 205 77 q 262 176 262 137 q 229 250 262 220 q 129 283 198 281 z "},"и":{"ha":585,"x_min":28,"x_max":551,"o":"m 28 292 l 28 570 q 31 579 28 575 q 42 583 35 583 l 90 583 q 99 579 95 583 q 103 570 103 575 l 103 292 q 157 144 103 206 q 290 83 213 83 q 422 145 368 83 q 476 293 477 206 l 476 575 q 481 581 477 579 q 488 583 484 583 l 537 583 q 547 579 543 583 q 551 570 551 575 l 551 14 q 547 4 551 8 q 537 0 543 0 l 488 0 q 481 3 484 0 q 476 8 477 4 l 476 87 l 475 85 q 289 0 397 0 q 104 85 182 0 q 28 292 28 171 z "},"й":{"ha":585,"x_min":28,"x_max":551,"o":"m 28 292 l 28 570 q 31 579 28 575 q 42 583 35 583 l 90 583 q 99 579 95 583 q 103 570 103 575 l 103 292 q 157 144 103 206 q 290 83 213 83 q 422 145 368 83 q 476 293 477 206 l 476 575 q 481 581 477 579 q 488 583 484 583 l 537 583 q 547 579 543 583 q 551 570 551 575 l 551 14 q 547 4 551 8 q 537 0 543 0 l 488 0 q 481 3 484 0 q 476 8 477 4 l 476 87 l 475 85 q 289 0 397 0 q 104 85 182 0 q 28 292 28 171 m 168 747 l 167 768 q 168 788 167 779 q 201 780 193 785 q 235 715 209 741 q 290 689 259 689 q 346 715 321 689 q 380 780 372 741 q 412 788 391 787 q 414 768 414 779 l 412 747 q 363 666 404 697 q 290 640 330 640 q 217 666 251 640 q 168 747 176 697 z "},"к":{"ha":612,"x_min":62,"x_max":583,"o":"m 145 12 q 142 3 145 7 q 133 0 138 0 l 76 0 q 66 3 71 0 q 62 12 62 7 l 62 582 l 104 582 q 134 570 122 582 q 146 541 146 557 l 146 368 q 155 355 146 358 q 170 359 164 353 q 353 576 231 431 q 358 581 355 579 q 363 582 359 582 l 426 582 q 437 575 434 582 q 435 560 441 567 q 307 401 392 507 q 304 393 304 399 q 307 385 304 389 q 581 20 397 263 q 583 11 583 16 q 582 5 583 8 q 570 -1 578 -1 l 498 -1 q 492 0 495 -1 q 488 4 490 1 q 256 315 411 107 q 245 319 252 319 q 236 315 240 319 q 148 206 206 278 q 146 202 146 203 q 145 198 145 201 l 145 12 z "},"л":{"ha":473,"x_min":53,"x_max":427,"o":"m 66 0 q 57 3 61 0 q 53 14 53 7 l 53 290 q 138 495 53 410 q 343 581 222 581 l 427 581 l 427 14 q 423 3 427 7 q 414 0 420 0 l 358 0 q 349 3 353 0 q 346 14 345 7 l 346 498 q 198 437 259 498 q 136 289 136 376 l 136 14 q 132 3 136 7 q 122 0 127 0 l 66 0 z "},"м":{"ha":506,"x_min":28,"x_max":481,"o":"m 71 -4 q 28 11 28 -4 l 28 559 q 37 568 28 564 q 149 463 42 568 q 259 354 255 354 q 266 358 263 354 l 465 557 l 471 560 l 476 559 q 481 549 481 557 l 481 11 q 439 -3 481 -3 q 397 11 397 -3 l 397 349 q 392 358 397 355 l 387 359 l 381 357 l 266 240 l 259 239 l 252 240 l 129 363 q 122 368 126 368 q 113 358 113 363 l 113 11 q 71 -4 113 -4 z "},"н":{"ha":473,"x_min":39,"x_max":441,"o":"m 377 583 l 431 583 q 438 581 435 583 q 441 574 441 578 l 441 11 q 438 4 441 7 q 431 1 435 1 l 377 1 q 370 4 373 1 q 368 11 368 7 l 368 264 q 365 271 368 269 q 357 274 361 274 l 123 274 q 117 271 121 274 q 114 264 114 269 l 114 9 q 111 3 114 5 q 104 0 109 0 l 49 0 q 42 3 45 0 q 39 9 39 5 l 39 572 q 42 579 39 576 q 49 582 45 582 l 104 582 q 111 579 109 582 q 114 572 114 576 l 114 359 q 117 353 114 355 q 123 349 121 349 l 357 349 q 363 353 361 349 q 366 359 366 355 l 366 574 q 370 581 366 578 q 377 583 373 583 z "},"о":{"ha":640,"x_min":33,"x_max":612,"o":"m 321 1 q 117 87 202 1 q 33 292 33 172 q 117 496 33 412 q 321 582 202 582 q 526 496 441 582 q 612 292 612 411 q 526 87 612 172 q 321 1 442 1 m 321 500 q 174 439 235 500 q 113 292 113 378 q 175 144 113 206 q 321 83 236 83 q 469 144 408 83 q 530 292 530 206 q 469 439 530 378 q 321 500 408 500 z "},"п":{"ha":585,"x_min":33,"x_max":553,"o":"m 553 292 l 553 15 q 551 4 553 8 q 541 1 547 1 q 492 0 525 0 q 483 4 487 0 q 479 14 479 8 l 479 290 q 425 437 479 376 q 293 498 370 498 q 161 437 216 498 q 107 290 107 376 l 107 9 q 102 3 104 5 q 95 1 99 1 l 46 1 q 37 4 41 1 q 33 15 33 8 l 33 292 q 109 495 33 411 q 293 581 184 581 q 476 495 400 581 q 553 292 553 411 z "},"р":{"ha":669,"x_min":41,"x_max":635,"o":"m 635 283 q 545 75 633 160 q 335 -11 457 -11 l 138 -11 q 129 -15 133 -11 q 125 -24 125 -18 l 125 -374 q 114 -404 125 -392 q 87 -418 103 -415 l 41 -418 l 41 283 q 126 494 41 406 q 335 583 212 582 l 338 583 q 548 496 461 585 q 635 286 635 410 l 635 283 m 335 499 q 186 434 247 498 q 125 283 125 370 l 125 88 q 129 77 125 81 q 140 73 133 73 l 338 73 q 488 136 426 73 q 551 286 551 198 q 487 437 551 376 q 336 499 425 499 l 335 499 z "},"с":{"ha":528,"x_min":27,"x_max":505,"o":"m 457 121 q 472 109 463 117 q 487 96 483 100 q 499 85 492 91 q 505 75 505 81 q 499 65 505 69 q 427 23 465 38 q 347 4 388 8 q 320 3 334 3 q 199 30 259 3 q 76 136 125 61 q 28 271 34 197 q 27 293 27 282 q 56 414 27 355 q 168 541 95 498 q 320 585 240 583 l 321 585 q 404 572 363 585 q 483 534 446 560 q 484 532 484 533 q 483 529 484 530 q 456 503 469 515 l 429 476 q 425 476 426 475 q 258 490 346 518 q 129 366 168 461 q 115 279 113 326 q 140 195 118 235 q 279 90 190 107 q 441 121 370 72 q 449 123 445 123 q 457 121 453 123 z "},"т":{"ha":723,"x_min":28,"x_max":699,"o":"m 699 271 l 699 11 q 694 1 699 5 q 685 -3 692 -3 l 628 -3 q 618 1 623 -3 q 614 11 614 5 l 614 290 q 553 438 614 377 q 406 500 492 500 l 406 12 q 401 3 406 7 q 392 -1 397 -1 l 321 -1 l 321 307 q 256 445 316 388 q 113 500 195 500 l 113 11 q 109 0 113 4 q 99 -4 104 -4 l 42 -4 q 31 0 35 -4 q 28 11 28 4 l 28 551 q 38 575 28 564 q 62 585 47 585 l 113 585 q 228 560 174 585 q 321 496 282 537 l 321 551 q 332 575 321 564 q 357 585 342 585 l 406 585 q 549 541 484 585 q 654 431 616 498 q 686 354 675 395 q 699 271 699 313 z "},"у":{"ha":585,"x_min":24,"x_max":551,"o":"m 28 292 l 28 570 q 31 579 28 575 q 42 583 35 583 l 90 583 q 99 579 95 583 q 103 570 103 575 l 103 292 q 157 144 103 206 q 290 83 213 83 q 422 145 368 83 q 476 293 477 206 l 476 575 q 481 581 477 579 q 488 583 484 583 l 537 583 q 547 579 543 583 q 551 570 551 575 l 551 -107 q 473 -313 551 -227 q 288 -400 396 -400 l 286 -400 q 104 -317 180 -399 q 24 -122 30 -237 q 28 -111 24 -115 q 37 -109 31 -109 q 88 -109 54 -107 q 98 -113 94 -109 q 100 -121 100 -117 q 159 -259 104 -201 q 289 -316 213 -316 q 422 -256 366 -316 q 476 -110 476 -195 l 476 87 l 475 85 q 289 0 397 0 q 104 85 182 0 q 28 292 28 171 z "},"ф":{"ha":1166,"x_min":28,"x_max":1133,"o":"m 581 -418 q 538 -403 538 -418 l 538 -20 q 525 -11 536 -11 l 328 -11 q 118 75 206 -11 q 28 285 30 160 q 115 496 28 410 q 326 583 201 583 q 537 494 452 582 l 538 492 l 538 986 q 581 1001 538 1001 q 623 986 623 1001 l 623 492 l 624 494 q 837 583 709 582 q 1046 496 960 583 q 1133 285 1133 410 q 1043 75 1131 160 q 833 -11 955 -11 l 636 -11 q 623 -24 623 -11 l 623 -403 q 581 -418 623 -418 m 836 73 q 986 136 924 73 q 1048 286 1048 198 q 985 437 1048 376 q 834 499 922 499 q 684 434 745 498 q 623 292 625 373 l 623 88 q 637 73 623 73 l 836 73 m 524 73 q 538 88 538 73 l 538 292 q 477 434 534 373 q 328 499 416 498 q 176 437 239 499 q 113 286 113 376 q 175 136 113 198 q 326 73 237 73 l 524 73 z "},"х":{"ha":556,"x_min":27,"x_max":524,"o":"m 453 12 q 393 156 445 98 q 275 214 343 214 q 157 156 208 214 q 98 12 107 98 q 94 4 98 7 q 87 0 91 0 l 39 0 q 31 4 34 0 q 27 14 27 9 q 28 16 28 15 q 76 175 35 106 q 179 279 117 245 q 186 293 186 283 q 179 305 186 302 q 76 410 117 339 q 28 570 35 480 q 31 581 27 576 q 39 586 34 586 l 87 586 q 94 582 91 586 q 98 572 98 578 q 156 429 106 487 q 275 370 208 370 q 393 429 343 370 q 453 572 445 487 q 457 582 453 578 q 464 586 460 586 l 511 586 q 519 581 517 586 q 522 571 522 576 l 522 570 q 475 410 515 480 q 372 305 433 339 q 365 293 365 302 q 372 279 365 283 q 475 175 433 245 q 522 16 515 104 q 519 4 524 9 q 511 0 517 0 l 464 0 q 457 4 460 0 q 453 12 453 7 z "},"ц":{"ha":720,"x_min":28,"x_max":686,"o":"m 686 57 q 674 43 681 52 q 662 27 667 35 q 636 14 652 15 q 609 20 620 14 l 495 110 q 475 85 486 98 q 289 0 397 0 q 104 85 182 0 q 28 292 28 171 l 28 570 q 31 579 28 575 q 42 583 35 583 l 90 583 q 99 579 95 583 q 103 570 103 575 l 103 292 q 157 144 103 206 q 290 83 213 83 q 422 145 368 83 q 434 159 427 152 l 411 180 q 431 203 416 186 q 458 222 445 220 l 467 222 q 476 293 476 255 l 476 575 q 481 581 477 579 q 488 583 484 583 l 537 583 q 547 579 543 583 q 551 570 551 575 l 551 292 q 530 178 551 231 l 686 57 z "},"ч":{"ha":593,"x_min":39,"x_max":560,"o":"m 483 285 q 300 199 407 199 q 115 285 191 199 q 39 488 39 369 l 39 568 q 43 579 39 575 q 53 582 47 582 l 102 582 q 109 581 106 582 q 114 574 111 578 l 114 490 q 168 343 114 404 q 300 282 222 282 q 431 343 377 282 q 486 490 486 404 l 486 570 q 490 579 486 575 q 499 583 494 583 q 548 582 532 583 q 557 579 553 582 q 560 568 560 575 l 560 15 q 557 4 560 8 q 548 1 553 1 q 499 0 532 0 q 490 4 494 0 q 486 14 486 8 l 486 288 l 483 285 z "},"ш":{"ha":1031,"x_min":33,"x_max":1000,"o":"m 922 85 q 739 0 846 0 q 555 85 631 0 q 515 140 532 111 q 476 85 499 111 q 293 0 400 0 q 109 85 184 0 q 33 289 33 170 l 33 570 q 37 581 33 576 q 46 583 41 583 l 95 583 q 102 582 99 583 q 107 575 104 579 l 107 290 q 161 144 107 205 q 293 83 216 83 q 425 144 370 83 q 479 277 475 199 l 479 570 q 483 581 479 576 q 492 583 487 583 l 541 583 q 548 582 545 583 q 553 575 551 579 l 553 290 q 608 144 553 205 q 739 83 662 83 q 871 144 817 83 q 925 290 925 205 l 925 571 q 929 581 925 576 q 939 585 933 585 q 987 583 971 585 q 997 581 993 583 q 1000 570 1000 576 l 1000 15 q 997 4 1000 8 q 987 1 993 1 q 939 0 971 0 q 929 4 933 0 q 925 14 925 8 l 925 88 l 922 85 z "},"щ":{"ha":1166,"x_min":33,"x_max":1135,"o":"m 922 85 q 739 0 846 0 q 555 85 631 0 q 515 140 532 111 q 476 85 499 111 q 293 0 400 0 q 109 85 184 0 q 33 289 33 170 l 33 570 q 37 581 33 576 q 46 583 41 583 l 95 583 q 102 582 99 583 q 107 575 104 579 l 107 290 q 161 144 107 205 q 293 83 216 83 q 425 144 370 83 q 479 277 475 199 l 479 570 q 483 581 479 576 q 492 583 487 583 l 541 583 q 548 582 545 583 q 553 575 551 579 l 553 277 q 608 144 557 199 q 739 83 662 83 q 871 144 817 83 q 883 159 878 151 q 869 171 876 165 l 860 180 q 880 203 865 186 q 907 222 894 220 l 916 222 q 925 290 925 254 l 925 571 q 929 581 925 576 q 939 585 933 585 q 987 583 971 585 q 997 581 993 583 q 1000 570 1000 576 l 1000 289 q 979 176 1000 228 l 1135 57 q 1123 43 1130 52 q 1111 27 1116 35 q 1085 14 1101 15 q 1058 20 1069 14 l 944 110 l 943 110 q 922 85 933 98 z "},"ъ":{"ha":595,"x_min":-1,"x_max":564,"o":"m 228 544 l 228 354 q 233 346 228 349 q 243 349 239 345 q 300 381 269 369 q 366 392 331 392 q 505 336 446 393 q 564 199 563 279 l 564 195 q 507 58 564 115 q 368 0 449 0 l 153 0 q 146 3 149 0 q 144 9 144 5 l 144 486 q 138 495 142 491 q 126 500 133 500 l 16 500 q 4 506 8 500 q -1 518 -1 510 l -1 567 q 4 579 -1 574 q 16 585 8 585 l 186 585 q 216 572 203 585 q 228 544 228 560 m 480 195 l 480 198 q 444 277 480 243 q 354 309 407 309 q 269 279 305 309 q 228 208 233 251 l 228 92 q 231 88 228 88 q 235 85 233 85 l 353 85 q 442 118 404 85 q 480 195 479 149 z "},"ы":{"ha":666,"x_min":53,"x_max":640,"o":"m 137 544 l 137 342 q 142 334 137 336 q 152 336 148 332 q 209 369 178 357 q 275 380 240 380 q 414 324 355 381 q 473 187 472 267 l 473 183 q 416 46 473 103 q 277 -12 358 -12 l 62 -12 q 56 -9 58 -12 q 53 -3 53 -7 l 53 585 l 95 585 q 125 572 113 585 q 137 544 137 560 m 570 -8 q 560 -5 564 -8 q 557 4 557 -1 l 557 571 q 562 581 557 576 q 571 585 566 585 l 627 585 q 636 581 632 585 q 640 571 640 576 l 640 4 q 636 -5 640 -1 q 628 -8 633 -8 l 570 -8 m 389 183 l 389 186 q 353 264 389 231 q 263 297 316 297 q 178 267 214 297 q 137 195 142 239 l 137 80 q 140 76 137 76 q 144 73 142 73 l 262 73 q 351 106 313 73 q 389 183 388 137 z "},"ь":{"ha":505,"x_min":53,"x_max":473,"o":"m 137 544 l 137 354 q 142 346 137 349 q 152 349 148 345 q 209 381 178 369 q 275 392 240 392 q 414 336 355 393 q 473 199 472 279 l 473 195 q 416 58 473 115 q 277 0 358 0 l 62 0 q 56 3 58 0 q 53 9 53 5 l 53 585 l 95 585 q 125 572 113 585 q 137 544 137 560 m 389 195 l 389 198 q 353 277 389 243 q 263 309 316 309 q 178 279 214 309 q 137 208 142 251 l 137 92 q 140 88 137 88 q 144 85 142 85 l 262 85 q 351 118 313 85 q 389 195 388 149 z "},"э":{"ha":528,"x_min":27,"x_max":505,"o":"m 75 121 q 83 123 79 123 q 91 121 87 123 q 252 90 161 72 q 392 195 342 107 q 414 254 408 222 l 414 258 q 411 266 414 262 q 404 269 408 269 l 213 269 q 205 273 209 269 q 202 281 202 275 l 202 316 q 205 323 202 320 q 213 327 209 327 l 404 327 q 411 331 408 327 l 414 334 q 403 366 410 350 q 274 490 363 461 q 107 476 186 518 q 103 476 106 475 l 76 503 q 49 529 62 515 q 47 532 47 530 q 49 534 47 533 q 127 572 85 560 q 210 585 168 585 l 212 585 q 363 541 292 583 q 476 414 437 498 q 505 293 505 355 q 503 271 505 282 q 456 136 498 197 q 332 30 407 61 q 212 3 273 3 q 184 4 198 3 q 104 23 144 8 q 33 65 66 38 q 27 75 27 69 q 33 85 27 81 l 75 121 z "},"ю":{"ha":857,"x_min":39,"x_max":829,"o":"m 538 1 q 334 87 419 1 q 250 267 258 163 q 248 271 250 270 q 240 274 244 274 l 123 274 q 117 271 121 274 q 114 264 114 269 l 114 9 q 111 3 114 5 q 104 0 109 0 l 49 0 q 42 3 45 0 q 39 9 39 5 l 39 572 q 42 579 39 576 q 49 582 45 582 l 104 582 q 111 579 109 582 q 114 572 114 576 l 114 359 q 117 353 114 355 q 123 349 121 349 l 240 349 q 255 353 251 349 q 334 496 271 434 q 538 582 419 582 q 743 496 658 582 q 829 292 829 411 q 743 87 829 172 q 538 1 659 1 m 538 500 q 391 439 452 500 q 330 292 330 378 q 392 144 330 206 q 538 83 453 83 q 686 144 625 83 q 747 292 747 206 q 686 439 747 378 q 538 500 625 500 z "},"я":{"ha":450,"x_min":53,"x_max":419,"o":"m 54 5 q 53 11 53 8 q 54 16 53 14 l 172 254 l 157 260 q 138 274 151 264 q 109 304 123 285 q 84 350 95 323 q 73 407 75 377 q 122 530 72 479 q 243 582 172 582 l 247 582 q 369 530 319 582 q 419 407 419 479 l 419 -1 l 359 -1 q 343 7 350 0 q 336 23 336 14 l 336 228 q 335 233 336 232 q 330 236 332 236 l 255 236 q 144 7 182 83 q 140 3 142 4 q 136 1 137 1 l 62 1 q 54 5 57 1 m 183 346 q 245 319 209 319 l 331 319 q 335 320 334 319 q 336 324 336 323 l 336 407 q 311 472 336 445 q 248 499 285 499 l 247 499 q 183 473 209 499 q 156 410 156 446 q 183 346 156 372 z "},"ё":{"ha":583,"x_min":27,"x_max":538,"o":"m 536 486 q 538 476 538 481 l 538 475 q 536 468 538 471 l 194 126 q 317 83 248 84 q 441 121 385 81 q 449 123 445 123 q 457 119 453 123 l 502 81 q 506 72 506 79 q 500 61 506 65 q 320 0 420 0 l 312 0 q 125 75 205 3 q 27 271 37 152 l 27 296 q 94 480 27 399 q 279 585 167 570 q 321 587 301 587 q 486 536 410 587 q 513 511 503 521 q 536 486 522 503 m 129 205 q 140 198 133 199 l 142 198 q 151 202 146 198 l 411 463 q 415 472 415 467 l 415 475 q 408 484 415 481 q 323 503 366 503 q 278 499 301 503 q 163 433 210 486 q 113 321 121 384 q 111 293 111 307 q 129 205 110 247 m 378 670 l 316 670 l 316 727 q 332 768 316 751 q 370 784 347 783 l 434 784 l 434 727 q 418 686 434 703 q 378 670 400 670 m 193 784 q 232 768 216 784 q 250 727 250 751 l 250 670 l 189 670 q 148 686 164 670 q 132 727 132 703 l 132 784 l 193 784 z "},"є":{"ha":528,"x_min":27,"x_max":505,"o":"m 457 121 l 499 85 q 505 75 505 81 q 499 65 505 69 q 427 23 465 38 q 347 4 388 8 q 320 3 334 3 q 199 30 259 3 q 76 136 125 61 q 28 271 34 197 q 27 293 27 282 q 56 414 27 355 q 168 541 95 498 q 320 585 240 583 l 321 585 q 404 572 363 585 q 483 534 446 560 q 484 532 484 533 q 483 529 484 530 q 456 503 469 515 l 429 476 q 425 476 426 475 q 258 490 346 518 q 129 366 168 461 q 118 334 122 350 l 121 331 q 127 327 123 327 l 319 327 q 327 323 323 327 q 330 316 330 320 l 330 281 q 327 273 330 275 q 319 269 323 269 l 127 269 q 121 266 123 269 q 118 258 118 262 l 118 254 q 140 195 123 222 q 279 90 190 107 q 441 121 370 72 q 449 123 445 123 q 457 121 453 123 z "},"і":{"ha":195,"x_min":56,"x_max":170,"o":"m 72 4 q 62 7 66 4 q 60 16 60 11 l 60 576 q 64 586 60 582 q 73 590 68 590 l 129 590 q 138 586 134 590 q 142 576 142 582 l 142 16 q 138 7 142 11 q 130 4 136 4 l 72 4 m 113 670 l 56 670 l 56 727 q 72 768 56 751 q 113 784 88 784 q 153 768 136 784 q 170 727 170 750 q 153 688 170 704 q 113 670 137 670 z "},"ї":{"ha":305,"x_min":-4,"x_max":298,"o":"m 123 1 q 115 4 118 1 q 111 12 111 7 l 111 571 q 115 581 111 576 q 125 585 119 585 l 180 585 q 190 581 186 585 q 194 571 194 576 l 194 12 q 190 4 194 7 q 182 1 187 1 l 123 1 m 237 784 l 298 784 l 298 727 q 282 686 298 703 q 241 670 266 670 l 180 670 l 180 727 q 197 768 180 751 q 237 784 214 784 m 57 784 q 98 768 80 784 q 114 727 114 751 l 114 670 l 53 670 q 12 686 28 670 q -4 727 -4 703 l -4 784 l 57 784 z "},"ў":{"ha":585,"x_min":24,"x_max":551,"o":"m 28 292 l 28 570 q 31 579 28 575 q 42 583 35 583 l 90 583 q 99 579 95 583 q 103 570 103 575 l 103 292 q 157 144 103 206 q 290 83 213 83 q 422 145 368 83 q 476 293 477 206 l 476 575 q 481 581 477 579 q 488 583 484 583 l 537 583 q 547 579 543 583 q 551 570 551 575 l 551 -107 q 473 -313 551 -227 q 288 -400 396 -400 l 286 -400 q 104 -317 180 -399 q 24 -122 30 -237 q 28 -111 24 -115 q 37 -109 31 -109 q 88 -109 54 -107 q 98 -113 94 -109 q 100 -121 100 -117 q 159 -259 104 -201 q 289 -316 213 -316 q 422 -256 366 -316 q 476 -110 476 -195 l 476 87 l 475 85 q 289 0 397 0 q 104 85 182 0 q 28 292 28 171 m 165 747 l 164 768 q 165 788 164 779 q 198 780 190 785 q 232 715 206 741 q 288 689 256 689 q 343 715 319 689 q 377 780 369 741 q 410 788 388 787 q 411 768 411 779 l 410 747 q 361 666 401 697 q 288 640 327 640 q 214 666 248 640 q 165 747 174 697 z "},"Ґ":{"ha":613,"x_min":28,"x_max":613,"o":"m 567 920 l 125 920 q 114 916 118 920 q 109 903 109 910 l 109 11 q 103 -1 109 3 q 91 -7 98 -7 l 45 -7 q 33 -1 38 -7 q 28 11 28 3 l 28 985 q 33 997 28 991 q 45 1001 38 1001 l 514 1001 q 524 1006 519 1002 q 529 1019 529 1012 l 529 1214 q 534 1226 529 1222 q 547 1232 538 1232 l 595 1232 q 608 1226 602 1232 q 613 1214 613 1222 l 613 955 q 567 920 613 920 z "},"ґ":{"ha":454,"x_min":0,"x_max":425,"o":"m 237 585 q 245 582 241 585 q 248 572 248 578 l 248 566 q 297 453 251 500 q 415 399 346 404 q 422 395 419 399 q 425 388 425 392 l 425 339 q 420 330 425 334 q 412 327 418 327 q 248 403 315 332 l 248 247 q 178 77 247 148 q 12 0 110 5 q 4 3 7 0 q 0 12 0 7 l 0 61 q 3 68 0 65 q 9 72 5 72 q 127 127 79 77 q 176 247 175 178 l 176 572 q 180 582 176 578 q 189 585 183 585 l 237 585 z "},"Ӂ":{"ha":1351,"x_min":45,"x_max":1332,"o":"m 646 16 l 646 463 q 644 468 646 465 q 640 473 643 471 l 571 555 q 557 560 566 560 q 544 553 549 560 q 141 7 275 189 q 134 1 138 4 q 127 0 132 0 l 62 0 q 46 9 52 0 q 45 18 45 14 q 49 27 45 23 q 491 627 343 427 q 494 637 494 632 q 490 648 494 643 q 283 886 353 807 q 281 905 277 894 q 297 914 286 914 l 366 914 q 373 913 370 914 l 378 907 q 616 635 537 726 q 635 629 624 625 q 646 642 644 632 l 646 898 q 651 909 646 905 q 665 914 656 914 l 712 914 q 726 909 720 914 q 731 898 731 905 l 731 646 q 742 629 731 633 q 761 635 753 625 q 998 907 840 726 l 1004 913 q 1010 914 1006 914 l 1080 914 q 1096 905 1090 914 q 1093 886 1100 894 q 887 648 1024 807 q 883 637 883 643 q 886 627 883 632 q 1328 27 1034 427 q 1332 18 1332 23 q 1331 9 1332 14 q 1314 0 1325 0 l 1249 0 q 1242 1 1245 0 q 1236 7 1238 4 q 833 553 1101 189 q 819 560 827 560 q 806 555 811 560 l 736 473 q 732 468 734 471 q 731 463 731 465 l 731 16 q 726 5 731 9 q 712 0 720 0 l 665 0 q 651 5 656 0 q 646 16 646 9 m 567 1138 l 566 1158 q 567 1179 566 1169 q 600 1171 591 1176 q 633 1105 608 1131 q 689 1080 658 1080 q 745 1105 720 1080 q 779 1171 770 1131 q 811 1179 789 1177 q 812 1158 812 1169 l 811 1138 q 762 1057 803 1088 q 689 1031 728 1031 q 616 1057 650 1031 q 567 1138 575 1088 z "},"ӂ":{"ha":1009,"x_min":22,"x_max":981,"o":"m 544 15 q 540 4 544 8 q 530 0 536 0 l 473 0 q 463 4 467 0 q 460 15 460 8 l 460 199 q 458 202 458 201 q 457 206 458 203 q 369 315 399 278 q 359 319 365 319 q 349 315 353 319 q 117 4 194 107 q 113 0 115 1 q 107 -1 110 -1 l 35 -1 q 23 5 27 -1 q 22 11 22 8 q 24 20 22 16 q 298 385 208 263 q 301 393 301 389 q 298 401 301 399 q 170 560 213 507 q 168 575 164 567 q 179 582 171 582 l 241 582 q 247 581 245 582 q 252 576 250 579 q 437 359 374 431 q 452 355 442 353 q 460 368 460 358 l 460 567 q 463 578 460 574 q 473 582 467 582 l 530 582 q 540 578 536 582 q 544 567 544 574 l 544 368 q 552 355 544 358 q 567 359 562 353 q 750 576 628 431 q 755 581 753 579 q 761 582 757 582 l 823 582 q 834 575 831 582 q 833 560 838 567 q 704 401 789 507 q 701 393 701 399 q 704 385 701 389 q 978 20 795 263 q 981 11 981 16 q 979 5 981 8 q 967 -1 975 -1 l 895 -1 q 890 0 892 -1 q 886 4 887 1 q 654 315 808 107 q 643 319 650 319 q 633 315 637 319 q 547 206 604 278 q 545 202 545 203 q 544 198 544 201 l 544 15 m 380 747 l 378 768 q 380 788 378 779 q 412 780 404 785 q 446 715 420 741 q 502 689 471 689 q 557 715 533 689 q 591 780 583 741 q 624 788 602 787 q 625 768 625 779 l 624 747 q 575 666 616 697 q 502 640 541 640 q 429 666 463 640 q 380 747 388 697 z "},"Ș":{"ha":667,"x_min":18,"x_max":627,"o":"m 315 -3 l 294 -3 q 275 -1 285 -3 q 151 26 213 4 q 24 87 88 49 q 18 98 19 91 l 18 102 q 20 110 18 106 q 47 153 28 125 q 58 161 52 159 q 71 159 65 163 q 301 81 203 79 q 461 109 399 85 q 530 178 498 122 q 525 345 564 233 q 473 403 515 373 q 381 458 433 431 q 326 487 353 473 q 270 513 297 500 q 189 552 228 533 q 123 590 149 571 q 61 661 81 618 q 41 760 39 704 q 47 822 41 796 q 56 853 54 849 q 62 869 57 857 q 81 899 68 882 q 152 964 103 929 q 290 1005 202 998 q 332 1006 312 1006 q 475 978 414 1006 q 579 922 551 943 q 585 910 585 918 q 581 898 586 903 q 564 879 575 891 q 547 859 559 872 q 536 852 543 853 q 525 856 530 852 q 442 899 502 872 q 297 921 381 928 q 202 894 236 916 q 152 852 167 872 q 140 834 144 842 q 136 825 137 826 l 134 823 q 127 792 134 821 q 126 727 119 762 q 140 692 130 709 q 170 661 151 674 q 229 627 193 644 q 305 590 266 609 q 492 494 404 544 q 604 373 579 442 q 625 271 623 323 q 627 247 627 259 q 618 178 627 210 q 572 85 606 123 q 488 28 538 47 q 401 5 445 14 q 315 -3 358 -3 m 278 -168 l 278 -60 l 323 -60 q 353 -71 340 -60 q 369 -99 366 -83 l 369 -213 l 323 -213 q 290 -201 304 -213 q 278 -168 278 -187 z "},"ș":{"ha":389,"x_min":18,"x_max":378,"o":"m 189 0 q 107 12 148 0 q 27 47 66 24 q 19 58 20 52 q 18 62 18 61 q 20 72 18 66 q 45 110 28 84 q 56 117 49 115 q 68 115 61 118 q 180 79 133 77 q 263 94 229 80 q 298 142 297 106 q 290 203 298 179 q 237 247 283 224 q 157 288 191 271 q 111 309 133 298 q 73 331 88 320 q 34 376 47 349 q 20 437 20 403 q 24 473 20 458 q 30 494 28 490 q 72 549 38 517 q 174 587 106 582 q 198 589 186 589 q 275 575 241 589 q 338 544 317 557 q 345 532 345 540 q 342 519 346 525 q 327 503 336 514 q 311 484 321 496 q 301 479 308 480 q 290 481 296 479 q 247 502 275 490 q 180 510 218 513 q 122 488 137 506 q 104 468 106 472 l 104 465 q 99 437 104 464 q 118 393 95 410 q 149 376 130 385 q 191 357 170 366 q 298 300 248 330 q 365 227 350 270 q 378 152 378 187 q 369 96 378 123 q 292 18 349 38 q 239 4 264 9 q 189 0 213 0 m 153 -168 l 153 -60 l 198 -60 q 228 -71 216 -60 q 244 -99 241 -83 l 244 -213 l 198 -213 q 165 -201 179 -213 q 153 -168 153 -187 z "},"Ț":{"ha":613,"x_min":33,"x_max":581,"o":"m 581 987 l 581 935 q 575 922 581 926 q 563 917 570 917 l 368 917 q 355 911 361 917 q 350 899 350 907 l 350 12 q 345 0 350 4 q 332 -5 340 -5 l 279 -5 q 267 0 273 -5 q 263 12 263 4 l 263 899 q 258 911 263 907 q 245 917 252 917 l 50 917 q 38 922 42 917 q 33 935 33 926 l 33 987 q 38 1000 33 994 q 50 1005 42 1005 l 562 1005 q 574 1000 570 1005 q 581 987 579 994 m 262 -168 l 262 -60 l 307 -60 q 336 -71 324 -60 q 353 -99 350 -83 l 353 -213 l 307 -213 q 274 -201 288 -213 q 262 -168 262 -187 z "},"ț":{"ha":473,"x_min":-1,"x_max":473,"o":"m 225 963 l 225 674 l 328 674 q 332 675 330 674 l 381 675 l 381 631 q 369 600 381 612 q 338 586 355 586 l 225 586 l 225 289 q 288 145 228 205 q 431 85 347 85 q 461 72 449 84 q 473 42 473 60 l 473 14 q 469 4 473 8 q 460 0 465 0 l 431 0 q 229 85 313 1 q 142 288 145 170 l 142 586 l -1 586 l -1 628 q 5 654 -1 642 q 26 673 14 667 q 39 675 33 675 q 52 674 46 675 l 142 674 l 142 1005 l 183 1005 q 213 993 201 1005 q 225 963 225 981 m 170 -168 l 170 -60 l 214 -60 q 244 -71 232 -60 q 260 -99 258 -83 l 260 -213 l 214 -213 q 182 -201 195 -213 q 170 -168 170 -187 z "},"Ă":{"ha":807,"x_min":34,"x_max":779,"o":"m 779 559 l 779 16 q 773 5 779 9 q 762 0 769 0 l 711 0 q 700 5 704 0 q 694 16 694 9 l 694 213 l 117 213 l 117 19 q 113 8 117 12 q 100 3 107 3 l 50 3 q 39 8 43 3 q 34 19 34 12 l 34 563 q 35 583 34 566 q 39 629 35 601 q 73 757 47 681 q 163 894 100 831 q 275 970 212 941 q 416 998 339 998 q 553 968 494 998 q 661 890 613 937 q 713 819 692 857 q 747 745 734 783 q 774 621 772 675 q 779 559 779 567 m 694 560 q 693 608 694 562 q 671 711 690 652 q 643 773 661 742 q 600 833 625 806 q 518 892 564 869 q 410 916 471 916 q 305 892 353 914 q 221 834 256 869 q 176 774 194 807 q 146 712 157 743 q 121 609 125 654 q 117 563 117 564 l 117 289 l 694 289 l 694 560 m 285 1138 l 283 1158 q 285 1179 283 1169 q 317 1171 309 1176 q 351 1105 326 1131 q 407 1080 376 1080 q 463 1105 438 1080 q 496 1171 488 1131 q 529 1179 507 1177 q 530 1158 530 1169 l 529 1138 q 480 1057 521 1088 q 407 1031 446 1031 q 334 1057 368 1031 q 285 1138 293 1088 z "},"ă":{"ha":667,"x_min":42,"x_max":621,"o":"m 621 286 l 621 14 q 617 4 621 7 q 608 0 613 0 l 335 0 q 133 81 220 0 q 42 278 46 163 l 42 289 q 77 429 42 365 q 182 537 117 498 q 258 570 217 559 q 331 579 293 579 l 343 579 q 538 487 457 574 q 621 286 621 400 m 538 95 l 538 286 q 481 431 538 370 q 339 496 423 494 l 332 496 q 186 435 247 496 q 125 289 125 374 l 125 282 q 189 140 127 198 q 335 81 251 81 l 526 81 q 534 85 530 81 q 538 95 538 90 m 210 741 l 209 761 q 210 781 209 772 q 243 773 235 779 q 277 708 251 734 q 332 682 301 682 q 388 708 363 682 q 422 773 414 734 q 454 781 433 780 q 456 761 456 772 l 454 741 q 406 659 446 690 q 332 633 372 633 q 259 659 293 633 q 210 741 218 690 z "},"Ą":{"ha":807,"x_min":34,"x_max":779,"o":"m 779 559 l 779 -100 q 747 -176 779 -145 q 670 -209 715 -209 l 563 -209 l 563 -95 q 594 -18 563 -50 q 670 14 625 14 l 694 14 l 694 213 l 117 213 l 117 19 q 113 8 117 12 q 100 3 107 3 l 50 3 q 39 8 43 3 q 34 19 34 12 l 34 563 q 35 583 34 566 q 39 629 35 601 q 73 757 47 681 q 163 894 100 831 q 275 970 212 941 q 416 998 339 998 q 553 968 494 998 q 661 890 613 937 q 713 819 692 857 q 747 745 734 783 q 774 621 772 675 q 779 559 779 567 m 694 560 q 693 608 694 562 q 671 711 690 652 q 643 773 661 742 q 600 833 625 806 q 518 892 564 869 q 410 916 471 916 q 305 892 353 914 q 221 834 256 869 q 176 774 194 807 q 146 712 157 743 q 121 609 125 654 q 117 563 117 564 l 117 289 l 694 289 l 694 560 z "},"ą":{"ha":667,"x_min":42,"x_max":621,"o":"m 621 286 l 621 14 q 620 7 621 9 l 621 7 l 621 -66 q 600 -118 621 -96 q 548 -140 578 -140 l 469 -140 l 469 -66 q 490 -15 469 -35 q 510 0 499 -5 l 335 0 q 133 81 220 0 q 42 278 46 163 l 42 289 q 77 429 42 365 q 182 537 117 498 q 258 570 217 559 q 331 579 293 579 l 343 579 q 538 487 457 574 q 621 286 621 400 m 538 95 l 538 286 q 481 431 538 370 q 339 496 423 494 l 332 496 q 186 435 247 496 q 125 289 125 374 l 125 282 q 189 140 127 198 q 335 81 251 81 l 526 81 q 534 85 530 81 q 538 95 538 90 z "},"Ć":{"ha":918,"x_min":28,"x_max":880,"o":"m 880 136 q 724 37 812 72 q 536 0 635 0 q 395 20 463 0 q 269 76 327 39 q 94 258 160 144 q 28 507 28 372 q 47 650 28 582 q 104 774 68 718 q 285 949 171 883 q 536 1016 399 1016 q 711 985 628 1016 q 860 898 795 952 q 799 836 840 876 q 677 905 743 879 q 534 929 609 929 q 327 875 422 929 q 178 730 233 819 q 130 625 148 682 q 114 509 114 570 q 170 301 114 396 q 313 151 224 208 q 418 104 361 121 q 534 88 473 88 q 689 117 617 88 q 818 198 762 146 l 880 136 m 463 1168 l 524 1168 l 524 1114 q 509 1076 524 1092 q 469 1059 492 1059 l 411 1059 l 411 1114 q 426 1153 411 1137 q 463 1168 441 1166 z "},"ć":{"ha":528,"x_min":27,"x_max":505,"o":"m 457 121 q 472 109 463 117 q 487 96 483 100 q 499 85 492 91 q 505 75 505 81 q 499 65 505 69 q 427 23 465 38 q 347 4 388 8 q 320 3 334 3 q 199 30 259 3 q 76 136 125 61 q 28 271 34 197 q 27 293 27 282 q 56 414 27 355 q 168 541 95 498 q 320 585 240 583 l 321 585 q 404 572 363 585 q 483 534 446 560 q 484 532 484 533 q 483 529 484 530 q 456 503 469 515 l 429 476 q 425 476 426 475 q 258 490 346 518 q 129 366 168 461 q 115 279 113 326 q 140 195 118 235 q 279 90 190 107 q 441 121 370 72 q 449 123 445 123 q 457 121 453 123 m 220 670 l 220 726 q 236 765 220 749 q 275 781 252 781 l 336 781 l 336 726 q 320 686 336 703 q 281 670 304 670 l 220 670 z "},"Č":{"ha":918,"x_min":28,"x_max":880,"o":"m 880 136 q 724 37 812 72 q 536 0 635 0 q 395 20 463 0 q 269 76 327 39 q 94 258 160 144 q 28 507 28 372 q 47 650 28 582 q 104 774 68 718 q 285 949 171 883 q 536 1016 399 1016 q 711 985 628 1016 q 860 898 795 952 q 799 836 840 876 q 677 905 743 879 q 534 929 609 929 q 327 875 422 929 q 178 730 233 819 q 130 625 148 682 q 114 509 114 570 q 170 301 114 396 q 313 151 224 208 q 418 104 361 121 q 534 88 473 88 q 689 117 617 88 q 818 198 762 146 l 880 136 m 570 1172 q 574 1168 570 1172 q 578 1157 578 1165 l 578 1156 q 574 1142 578 1147 l 468 1036 q 456 1031 463 1031 q 445 1036 450 1031 l 335 1145 q 331 1156 331 1149 q 338 1169 331 1162 q 353 1176 345 1176 q 368 1172 361 1177 l 445 1095 q 456 1090 449 1090 q 467 1095 461 1090 q 545 1175 517 1145 q 556 1179 549 1179 q 570 1172 563 1179 z "},"č":{"ha":528,"x_min":27,"x_max":505,"o":"m 457 121 q 472 109 463 117 q 487 96 483 100 q 499 85 492 91 q 505 75 505 81 q 499 65 505 69 q 427 23 465 38 q 347 4 388 8 q 320 3 334 3 q 199 30 259 3 q 76 136 125 61 q 28 271 34 197 q 27 293 27 282 q 56 414 27 355 q 168 541 95 498 q 320 585 240 583 l 321 585 q 404 572 363 585 q 483 534 446 560 q 484 532 484 533 q 483 529 484 530 q 456 503 469 515 l 429 476 q 425 476 426 475 q 258 490 346 518 q 129 366 168 461 q 115 279 113 326 q 140 195 118 235 q 279 90 190 107 q 441 121 370 72 q 449 123 445 123 q 457 121 453 123 m 382 779 q 389 765 389 773 l 389 764 q 385 751 389 757 l 279 644 q 269 640 274 640 q 256 644 262 640 l 146 754 q 142 764 142 758 q 146 774 142 770 l 151 779 q 165 785 156 784 q 179 780 174 785 l 256 704 q 267 699 262 699 q 278 704 274 699 l 358 783 q 368 787 362 787 q 378 783 374 787 l 382 779 z "},"Ď":{"ha":834,"x_min":68,"x_max":804,"o":"m 804 494 q 741 248 804 359 q 572 69 677 136 q 449 12 515 33 q 312 -11 384 -8 l 84 -11 q 72 -5 77 -11 q 68 7 68 0 l 68 982 q 72 994 68 989 q 84 998 77 998 l 312 998 q 449 977 384 997 q 571 920 515 956 q 741 741 677 852 q 804 494 804 628 m 307 911 l 171 911 q 159 907 163 911 q 153 895 153 902 l 153 92 q 159 80 153 85 q 171 76 163 76 l 307 76 q 422 94 366 76 q 524 141 476 111 q 665 289 612 197 q 718 494 718 382 q 701 609 718 553 q 656 712 685 665 q 510 856 602 800 q 307 911 418 910 m 428 1172 q 432 1168 428 1172 q 435 1157 435 1165 l 435 1156 q 431 1142 435 1147 l 326 1036 q 313 1031 320 1031 q 302 1036 308 1031 l 193 1145 q 189 1156 189 1149 q 195 1169 189 1162 q 210 1176 202 1176 q 225 1172 218 1177 l 302 1095 q 313 1090 307 1090 q 324 1095 319 1090 q 403 1175 374 1145 q 414 1179 407 1179 q 428 1172 420 1179 z "},"ď":{"ha":757,"x_min":27,"x_max":731,"o":"m 640 892 l 640 1001 l 685 1001 q 715 990 703 1001 q 731 962 728 978 l 731 848 l 685 848 q 652 860 666 848 q 640 892 640 873 m 530 94 l 530 297 q 529 305 530 301 l 529 309 q 461 444 521 389 q 320 499 403 499 q 171 437 233 499 q 111 290 111 376 l 111 286 q 175 140 113 199 q 324 80 237 80 l 517 80 q 526 84 522 80 q 530 94 530 88 m 613 12 q 609 3 613 7 q 598 -1 605 -1 l 320 -1 q 111 85 198 -1 q 27 289 28 170 l 27 294 q 117 499 30 415 q 323 582 203 583 q 422 563 374 581 q 506 514 468 545 q 521 513 513 509 q 528 525 528 515 l 528 962 q 540 990 528 978 q 570 1002 552 1002 l 613 1002 l 613 12 z "},"Đ":{"ha":977,"x_min":68,"x_max":947,"o":"m 210 452 l 68 452 l 68 486 q 79 522 68 511 l 84 528 q 106 537 94 536 l 210 537 l 210 982 q 214 994 210 989 q 227 998 220 998 l 454 998 q 591 977 526 997 q 713 920 658 956 q 883 741 819 852 q 947 494 947 628 q 883 248 947 359 q 715 69 819 136 q 591 12 658 33 q 454 -11 526 -8 l 227 -11 q 214 -5 220 -11 q 210 7 210 0 l 210 452 m 449 911 l 313 911 q 301 907 305 911 q 296 895 296 902 l 296 537 l 438 537 l 438 517 q 438 495 437 505 q 426 465 438 477 q 420 461 423 463 q 395 452 410 453 l 296 452 l 296 92 q 301 80 296 85 q 313 76 305 76 l 449 76 q 564 94 509 76 q 666 141 618 111 q 807 289 754 197 q 860 494 860 382 q 844 609 860 553 q 799 712 827 665 q 652 856 745 800 q 449 911 560 910 z "},"đ":{"ha":811,"x_min":27,"x_max":755,"o":"m 613 12 q 609 3 613 7 q 598 -1 605 -1 l 320 -1 q 111 85 198 -1 q 27 289 28 170 l 27 294 q 117 499 30 415 q 323 582 203 583 q 422 563 374 581 q 506 514 468 545 q 521 513 513 509 q 528 525 528 515 l 528 836 l 385 836 l 385 869 q 396 905 385 894 l 401 910 q 423 920 411 918 l 528 920 l 528 962 q 540 990 528 978 q 570 1002 552 1002 l 613 1002 l 613 920 l 755 920 l 755 899 q 755 878 754 887 q 743 849 755 861 q 738 845 741 846 q 712 836 727 837 l 613 836 l 613 12 m 530 94 l 530 297 q 529 305 530 301 l 529 309 q 461 444 521 389 q 320 499 403 499 q 171 437 233 499 q 111 290 111 376 l 111 286 q 175 140 113 199 q 324 80 237 80 l 517 80 q 526 84 522 80 q 530 94 530 88 z "},"Ě":{"ha":640,"x_min":33,"x_max":612,"o":"m 595 0 l 49 0 q 38 5 42 0 q 33 16 33 9 l 33 986 q 38 998 33 993 q 49 1002 42 1002 l 595 1002 q 608 997 602 1002 q 612 985 612 991 l 612 939 q 608 928 612 932 q 595 922 602 922 l 129 922 q 117 917 122 922 q 113 905 113 913 l 113 605 q 117 593 113 598 q 129 589 122 589 l 465 589 q 476 583 472 589 q 481 571 481 578 l 481 525 q 476 514 481 518 q 465 509 472 509 l 129 509 q 117 503 122 509 q 113 491 113 499 l 113 76 l 595 76 q 608 72 602 76 q 612 60 612 66 l 612 16 q 608 5 612 9 q 595 0 602 0 m 437 1172 q 441 1168 437 1172 q 445 1157 445 1165 l 445 1156 q 441 1142 445 1147 l 335 1036 q 323 1031 330 1031 q 312 1036 317 1031 l 202 1145 q 198 1156 198 1149 q 205 1169 198 1162 q 220 1176 212 1176 q 235 1172 228 1177 l 312 1095 q 323 1090 316 1090 q 334 1095 328 1090 q 412 1175 384 1145 q 423 1179 416 1179 q 437 1172 430 1179 z "},"ě":{"ha":583,"x_min":27,"x_max":538,"o":"m 536 486 q 538 476 538 481 l 538 475 q 536 468 538 471 l 194 126 q 317 83 248 84 q 441 121 385 81 q 449 123 445 123 q 457 119 453 123 l 502 81 q 506 72 506 79 q 500 61 506 65 q 320 0 420 0 l 312 0 q 125 75 205 3 q 27 271 37 152 l 27 296 q 94 480 27 399 q 279 585 167 570 q 321 587 301 587 q 486 536 410 587 q 513 511 503 521 q 536 486 522 503 m 129 205 q 140 198 133 199 l 142 198 q 151 202 146 198 l 411 463 q 415 472 415 467 l 415 475 q 408 484 415 481 q 323 503 366 503 q 278 499 301 503 q 163 433 210 486 q 113 321 121 384 q 111 293 111 307 q 129 205 110 247 m 407 765 l 407 764 q 403 751 407 757 l 297 644 q 286 640 292 640 q 274 644 279 640 l 164 754 q 160 764 160 758 q 164 774 160 770 l 168 779 q 183 785 174 784 q 197 780 191 785 l 274 704 q 285 699 279 699 q 296 704 292 699 l 376 783 q 385 787 380 787 q 396 783 392 787 l 400 779 q 407 765 407 773 z "},"ı":{"ha":195,"x_min":56,"x_max":170,"o":"m 113 665 l 56 665 l 56 722 q 72 762 56 746 q 113 779 88 779 q 153 762 136 779 q 170 722 170 745 q 153 682 170 699 q 113 665 137 665 m 72 4 q 62 7 66 4 q 60 16 60 11 l 60 576 q 64 586 60 582 q 73 590 68 590 l 129 590 q 138 586 134 590 q 142 576 142 582 l 142 16 q 138 7 142 11 q 130 4 136 4 l 72 4 z "},"Ł":{"ha":574,"x_min":56,"x_max":547,"o":"m 98 336 l 73 361 q 56 393 56 378 q 57 400 56 397 q 65 423 57 414 l 156 514 l 156 991 l 198 991 q 229 978 216 991 q 241 952 240 967 l 241 600 l 300 658 l 315 643 q 330 628 321 633 q 342 600 342 616 q 340 593 342 595 q 328 567 338 579 l 241 480 l 241 258 q 245 227 241 254 q 266 168 251 199 q 316 107 285 127 q 392 85 347 87 l 496 85 q 528 75 511 84 q 547 47 545 64 l 547 1 l 389 1 q 270 38 320 4 q 187 134 218 71 q 161 217 167 179 q 156 255 156 254 l 156 395 l 98 336 z "},"ł":{"ha":464,"x_min":37,"x_max":467,"o":"m 79 336 l 54 361 q 37 393 37 378 q 38 400 37 397 q 46 423 38 414 l 140 517 l 140 994 l 180 994 q 210 982 198 994 q 222 952 222 970 l 222 600 l 281 658 l 296 643 q 311 628 302 633 q 323 600 323 616 q 321 593 323 595 q 309 567 319 579 l 222 480 l 222 285 q 283 144 224 202 q 426 83 343 84 q 454 71 444 83 q 467 42 467 58 l 467 14 q 464 4 467 8 q 453 0 460 0 l 426 0 q 225 84 308 1 q 140 285 141 168 l 140 397 l 79 336 z "},"Ń":{"ha":891,"x_min":46,"x_max":861,"o":"m 845 -7 l 795 -7 q 784 -1 788 -7 q 779 9 779 3 l 779 553 l 777 600 q 755 703 774 644 q 727 766 745 734 q 684 825 709 798 q 586 888 643 867 q 457 910 529 910 q 330 888 387 909 q 233 826 274 867 q 187 766 206 799 q 157 704 170 735 q 133 601 136 646 l 129 556 l 129 12 q 123 1 129 5 q 113 -4 119 -4 l 62 -4 q 50 1 56 -4 q 46 12 46 5 l 46 556 q 50 613 46 560 q 81 738 54 667 q 118 812 95 774 q 174 884 141 850 q 298 964 228 939 q 457 991 369 991 q 618 964 547 991 q 743 882 690 936 q 798 811 776 849 q 831 736 818 773 q 859 614 856 669 q 861 553 861 566 l 861 11 q 857 -1 861 3 q 845 -7 852 -7 m 461 1168 l 522 1168 l 522 1114 q 507 1076 522 1092 q 468 1059 491 1059 l 410 1059 l 410 1114 q 425 1153 410 1137 q 461 1168 439 1166 z "},"ń":{"ha":585,"x_min":33,"x_max":553,"o":"m 553 292 l 553 15 q 551 4 553 8 q 541 1 547 1 q 492 0 525 0 q 483 4 487 0 q 479 14 479 8 l 479 290 q 425 437 479 376 q 293 498 370 498 q 161 437 216 498 q 107 290 107 376 l 107 9 q 102 3 104 5 q 95 1 99 1 l 46 1 q 37 4 41 1 q 33 15 33 8 l 33 292 q 109 495 33 411 q 293 581 184 581 q 476 495 400 581 q 553 292 553 411 m 247 670 l 247 726 q 263 765 247 749 q 302 781 279 781 l 363 781 l 363 726 q 347 686 363 703 q 308 670 331 670 l 247 670 z "},"Ň":{"ha":891,"x_min":46,"x_max":861,"o":"m 845 -7 l 795 -7 q 784 -1 788 -7 q 779 9 779 3 l 779 553 l 777 600 q 755 703 774 644 q 727 766 745 734 q 684 825 709 798 q 586 888 643 867 q 457 910 529 910 q 330 888 387 909 q 233 826 274 867 q 187 766 206 799 q 157 704 170 735 q 133 601 136 646 l 129 556 l 129 12 q 123 1 129 5 q 113 -4 119 -4 l 62 -4 q 50 1 56 -4 q 46 12 46 5 l 46 556 q 50 613 46 560 q 81 738 54 667 q 118 812 95 774 q 174 884 141 850 q 298 964 228 939 q 457 991 369 991 q 618 964 547 991 q 743 882 690 936 q 798 811 776 849 q 831 736 818 773 q 859 614 856 669 q 861 553 861 566 l 861 11 q 857 -1 861 3 q 845 -7 852 -7 m 570 1172 q 574 1168 570 1172 q 578 1157 578 1165 l 578 1156 q 574 1142 578 1147 l 468 1036 q 456 1031 463 1031 q 445 1036 450 1031 l 335 1145 q 331 1156 331 1149 q 338 1169 331 1162 q 353 1176 345 1176 q 368 1172 361 1177 l 445 1095 q 456 1090 449 1090 q 467 1095 461 1090 q 545 1175 517 1145 q 556 1179 549 1179 q 570 1172 563 1179 z "},"ň":{"ha":585,"x_min":33,"x_max":553,"o":"m 553 292 l 553 15 q 551 4 553 8 q 541 1 547 1 q 492 0 525 0 q 483 4 487 0 q 479 14 479 8 l 479 290 q 425 437 479 376 q 293 498 370 498 q 161 437 216 498 q 107 290 107 376 l 107 9 q 102 3 104 5 q 95 1 99 1 l 46 1 q 37 4 41 1 q 33 15 33 8 l 33 292 q 109 495 33 411 q 293 581 184 581 q 476 495 400 581 q 553 292 553 411 m 416 765 l 416 764 q 412 751 416 757 l 307 644 q 296 640 301 640 q 283 644 289 640 l 174 754 q 170 764 170 758 q 174 774 170 770 l 178 779 q 193 785 183 784 q 206 780 201 785 l 283 704 q 294 699 289 699 q 305 704 301 699 l 385 783 q 395 787 389 787 q 406 783 401 787 l 410 779 q 416 765 416 773 z "},"Œ":{"ha":1137,"x_min":41,"x_max":1108,"o":"m 1088 0 l 570 0 q 529 -1 549 -1 q 393 19 458 -1 q 271 72 328 38 q 104 247 168 137 q 41 487 41 355 q 60 623 41 557 q 114 743 80 688 q 289 910 179 846 q 529 974 397 974 l 529 985 q 534 997 529 991 q 545 1001 538 1001 l 1090 1001 q 1103 996 1097 1001 q 1108 983 1108 990 l 1108 937 q 1103 926 1108 930 q 1090 921 1097 921 l 625 921 q 613 916 618 921 q 609 903 609 911 l 609 605 q 613 593 609 597 q 625 587 618 587 l 960 587 q 972 582 967 587 q 978 571 978 578 l 978 525 q 972 513 978 518 q 960 507 967 507 l 625 507 q 613 503 618 507 q 609 491 609 498 l 609 76 l 1088 76 q 1100 71 1096 76 q 1105 58 1105 66 l 1105 16 q 1100 5 1105 9 q 1088 0 1096 0 m 420 873 q 320 829 366 857 q 182 685 233 776 q 129 486 129 594 q 145 373 129 427 q 189 273 160 319 q 334 134 243 186 q 529 81 422 81 l 529 890 q 420 873 471 888 z "},"œ":{"ha":1086,"x_min":33,"x_max":1042,"o":"m 1039 486 q 1042 476 1042 481 l 1042 475 q 1039 468 1042 471 l 697 126 q 821 83 751 84 q 944 121 888 81 q 952 123 948 123 q 960 119 956 123 l 963 117 q 985 99 975 107 q 1005 81 993 92 q 1009 72 1009 79 q 1004 61 1009 65 q 823 0 924 0 l 815 0 q 628 75 708 3 q 570 141 593 104 q 526 87 552 113 q 321 1 442 1 q 117 87 202 1 q 33 292 33 172 q 117 496 33 412 q 321 582 202 582 q 526 496 441 582 q 570 442 552 471 q 597 480 582 461 q 783 585 670 570 q 825 587 804 587 q 989 536 913 587 l 997 529 q 1016 511 1006 521 q 1032 495 1025 503 l 1039 486 m 321 500 q 174 439 235 500 q 113 292 113 378 q 175 144 113 206 q 321 83 236 83 q 469 144 408 83 q 530 282 526 202 l 530 292 q 469 439 530 378 q 321 500 408 500 m 632 205 q 643 198 636 199 l 646 198 q 654 202 650 198 l 914 463 q 918 472 918 467 q 918 475 920 473 q 911 484 918 481 q 826 503 869 503 q 781 499 804 503 q 666 433 713 486 q 616 321 624 384 q 614 293 614 307 q 632 205 613 247 z "},"Ř":{"ha":696,"x_min":28,"x_max":663,"o":"m 646 -8 l 582 -8 q 574 -5 578 -8 q 567 1 568 -3 l 372 400 l 127 400 q 118 396 122 400 q 114 387 114 392 l 114 31 q 103 1 114 14 q 75 -12 91 -11 l 28 -12 l 28 697 q 115 910 28 821 q 326 1001 202 1000 l 334 1001 q 544 911 457 1000 q 628 697 631 822 q 609 598 627 646 q 562 513 591 551 q 545 495 551 502 q 506 460 538 488 l 505 458 q 481 442 494 449 q 457 430 469 435 q 661 18 525 292 q 663 9 663 14 q 661 0 663 4 q 646 -8 655 -8 m 544 703 q 480 856 544 792 q 328 918 416 918 l 326 918 q 176 853 237 917 q 114 699 114 788 l 114 500 q 118 491 114 495 q 127 487 122 487 l 330 487 q 480 551 418 487 q 544 703 544 613 m 462 1172 q 466 1168 462 1172 q 469 1157 469 1165 l 469 1156 q 465 1142 469 1147 l 359 1036 q 347 1031 354 1031 q 336 1036 342 1031 l 227 1145 q 222 1156 222 1149 q 229 1169 222 1162 q 244 1176 236 1176 q 259 1172 252 1177 l 336 1095 q 347 1090 340 1090 q 358 1095 353 1090 q 437 1175 408 1145 q 448 1179 441 1179 q 462 1172 454 1179 z "},"ř":{"ha":361,"x_min":49,"x_max":323,"o":"m 133 85 l 133 16 q 129 7 133 11 q 119 3 125 3 l 62 3 q 53 7 57 3 q 49 16 49 11 l 49 294 q 123 488 49 407 q 308 582 199 571 l 311 582 q 319 579 315 582 q 323 570 323 575 l 323 513 q 320 505 323 509 q 311 500 316 500 q 183 431 235 490 q 132 294 132 373 l 132 85 l 133 85 m 302 779 q 309 765 309 773 l 309 764 q 305 751 309 757 l 199 644 q 189 640 194 640 q 176 644 182 640 l 66 754 q 62 764 62 758 q 66 774 62 770 l 71 779 q 85 785 76 784 q 99 780 94 785 l 176 704 q 187 699 182 699 q 198 704 194 699 l 278 783 q 288 787 282 787 q 298 783 294 787 l 302 779 z "},"Ś":{"ha":667,"x_min":18,"x_max":627,"o":"m 315 -3 l 294 -3 q 275 -1 285 -3 q 151 26 213 4 q 24 87 88 49 q 18 98 19 91 l 18 102 q 20 110 18 106 q 47 153 28 125 q 58 161 52 159 q 71 159 65 163 q 301 81 203 79 q 461 109 399 85 q 530 178 498 122 q 525 345 564 233 q 473 403 515 373 q 381 458 433 431 q 326 487 353 473 q 270 513 297 500 q 189 552 228 533 q 123 590 149 571 q 61 661 81 618 q 41 760 39 704 q 47 822 41 796 q 56 853 54 849 q 62 869 57 857 q 81 899 68 882 q 152 964 103 929 q 290 1005 202 998 q 332 1006 312 1006 q 475 978 414 1006 q 579 922 551 943 q 585 910 585 918 q 581 898 586 903 q 564 879 575 891 q 547 859 559 872 q 536 852 543 853 q 525 856 530 852 q 442 899 502 872 q 297 921 381 928 q 202 894 236 916 q 152 852 167 872 q 140 834 144 842 q 136 825 137 826 l 134 823 q 127 792 134 821 q 126 727 119 762 q 140 692 130 709 q 170 661 151 674 q 229 627 193 644 q 305 590 266 609 q 492 494 404 544 q 604 373 579 442 q 625 271 623 323 q 627 247 627 259 q 618 178 627 210 q 572 85 606 123 q 488 28 538 47 q 401 5 445 14 q 315 -3 358 -3 m 330 1168 l 391 1168 l 391 1114 q 376 1076 391 1092 q 336 1059 359 1059 l 278 1059 l 278 1114 q 293 1153 278 1137 q 330 1168 308 1166 z "},"ś":{"ha":389,"x_min":16,"x_max":378,"o":"m 189 0 q 107 12 148 0 q 27 47 66 24 q 18 58 20 52 q 17 64 16 62 q 20 72 18 66 q 45 110 28 84 q 56 117 49 115 q 68 115 61 118 q 180 79 133 77 q 263 94 229 80 q 298 142 297 106 q 290 203 298 179 q 237 247 283 224 q 157 288 191 271 q 111 309 133 298 q 73 331 88 320 q 34 376 47 349 q 20 437 20 403 q 24 473 20 458 q 30 494 28 490 q 72 549 38 517 q 174 587 106 582 q 198 589 186 589 q 275 575 241 589 q 338 544 317 557 q 345 532 345 540 q 342 519 346 525 q 327 503 336 514 q 311 484 321 496 q 301 479 308 480 q 290 481 296 479 q 247 502 275 490 q 180 510 218 513 q 122 488 137 506 q 99 437 106 472 q 118 393 95 410 q 149 376 130 385 q 191 357 170 366 q 298 300 248 330 q 365 227 350 270 q 378 152 378 187 q 369 96 378 123 q 292 18 349 38 q 239 4 264 9 q 189 0 213 0 m 152 670 l 152 726 q 168 765 152 749 q 208 781 184 781 l 269 781 l 269 726 q 252 686 269 703 q 213 670 236 670 l 152 670 z "},"Ş":{"ha":667,"x_min":18,"x_max":627,"o":"m 275 -1 q 151 26 213 4 q 24 87 88 49 q 18 98 19 91 l 18 102 q 20 110 18 106 q 47 153 28 125 q 58 161 52 159 q 71 159 65 163 q 301 81 203 79 q 461 109 399 85 q 530 178 498 122 q 525 345 564 233 q 473 403 515 373 q 381 458 433 431 q 326 487 353 473 q 270 513 297 500 q 189 552 228 533 q 123 590 149 571 q 61 661 81 618 q 41 760 39 704 q 47 822 41 796 q 56 853 54 849 q 62 869 57 857 q 81 899 68 882 q 152 964 103 929 q 290 1005 202 998 q 332 1006 312 1006 q 475 978 414 1006 q 579 922 551 943 q 585 910 585 918 q 581 898 586 903 q 564 879 575 891 q 547 859 559 872 q 536 852 543 853 q 525 856 530 852 q 442 899 502 872 q 297 921 381 928 q 202 894 236 916 q 152 852 167 872 q 140 834 144 842 q 136 825 137 826 l 134 823 q 127 792 134 821 q 126 727 119 762 q 140 692 130 709 q 170 661 151 674 q 229 627 193 644 q 305 590 266 609 q 492 494 404 544 q 604 373 579 442 q 625 271 623 323 q 627 247 627 259 q 618 178 627 210 q 572 85 606 123 q 488 28 538 47 q 412 7 450 15 q 475 -23 448 3 q 506 -99 506 -54 l 506 -208 l 392 -208 q 316 -176 347 -208 q 283 -99 283 -144 l 283 -3 l 275 -1 z "},"ş":{"ha":389,"x_min":16,"x_max":378,"o":"m 107 12 q 27 47 66 24 q 18 58 20 52 q 17 64 16 62 q 20 72 18 66 q 45 110 28 84 q 56 117 49 115 q 68 115 61 118 q 180 79 133 77 q 263 94 229 80 q 298 142 297 106 q 290 203 298 179 q 237 247 283 224 q 157 288 191 271 q 111 309 133 298 q 73 331 88 320 q 34 376 47 349 q 20 437 20 403 q 24 473 20 458 q 30 494 28 490 q 72 549 38 517 q 174 587 106 582 q 198 589 186 589 q 275 575 241 589 q 338 544 317 557 q 345 532 345 540 q 342 519 346 525 q 327 503 336 514 q 311 484 321 496 q 301 479 308 480 q 290 481 296 479 q 247 502 275 490 q 180 510 218 513 q 122 488 137 506 q 99 437 106 472 q 118 393 95 410 q 149 376 130 385 q 191 357 170 366 q 298 300 248 330 q 365 227 350 270 q 378 152 378 187 q 369 96 378 123 q 292 18 349 38 q 250 5 270 11 q 292 -15 274 3 q 312 -66 312 -35 l 312 -140 l 233 -140 q 182 -118 203 -140 q 160 -66 160 -96 l 160 1 q 107 12 133 4 z "},"Š":{"ha":667,"x_min":18,"x_max":627,"o":"m 315 -3 l 294 -3 q 275 -1 285 -1 q 151 26 213 4 q 24 87 88 49 q 18 98 19 91 l 18 102 q 20 110 18 106 q 47 153 28 125 q 58 161 52 159 q 71 159 65 163 q 301 81 203 79 q 461 109 399 85 q 530 178 498 122 q 525 345 564 233 q 473 403 515 373 q 381 458 433 431 q 326 487 353 473 q 270 513 297 500 q 189 552 228 533 q 123 590 149 571 q 61 661 81 618 q 41 760 39 704 q 47 822 41 796 q 56 853 54 849 q 62 869 57 857 q 81 899 68 882 q 152 964 103 929 q 290 1005 202 998 q 332 1006 312 1006 q 475 978 414 1006 q 579 922 551 943 q 585 910 585 918 q 581 898 586 903 q 564 879 575 891 q 547 859 559 872 q 536 852 543 853 q 525 856 530 852 q 442 899 502 872 q 297 921 381 928 q 202 894 236 916 q 152 852 167 872 q 140 834 144 842 q 136 825 137 826 l 134 823 q 127 792 134 821 q 126 727 119 762 q 140 692 130 709 q 170 661 151 674 q 229 627 193 644 q 305 590 266 609 q 492 494 404 544 q 604 373 579 442 q 625 271 623 323 q 627 247 627 259 q 618 178 627 210 q 572 85 606 123 q 488 28 538 47 q 401 5 445 14 q 315 -3 358 -3 m 439 1172 q 443 1168 439 1172 q 446 1157 446 1165 l 446 1156 q 442 1142 446 1147 l 336 1036 q 324 1031 331 1031 q 313 1036 319 1031 l 203 1145 q 199 1156 199 1149 q 206 1169 199 1162 q 221 1176 213 1176 q 236 1172 229 1177 l 313 1095 q 324 1090 317 1090 q 335 1095 330 1090 q 414 1175 385 1145 q 425 1179 418 1179 q 439 1172 431 1179 z "},"š":{"ha":389,"x_min":16,"x_max":378,"o":"m 189 0 q 107 12 148 0 q 27 47 66 24 q 18 58 20 52 q 17 64 16 62 q 20 72 18 66 q 45 110 28 84 q 56 117 49 115 q 68 115 61 118 q 180 79 133 77 q 263 94 229 80 q 298 142 297 106 q 290 203 298 179 q 237 247 283 224 q 157 288 191 271 q 111 309 133 298 q 73 331 88 320 q 34 376 47 349 q 20 437 20 403 q 24 473 20 458 q 30 494 28 490 q 72 549 38 517 q 174 587 106 582 q 198 589 186 589 q 275 575 241 589 q 338 544 317 557 q 345 532 345 540 q 342 519 346 525 q 327 503 336 514 q 311 484 321 496 q 301 479 308 480 q 290 481 296 479 q 247 502 275 490 q 180 510 218 513 q 122 488 137 506 q 99 437 106 472 q 118 393 95 410 q 149 376 130 385 q 191 357 170 366 q 298 300 248 330 q 365 227 350 270 q 378 152 378 187 q 369 96 378 123 q 292 18 349 38 q 239 4 264 9 q 189 0 213 0 m 315 779 q 321 765 321 773 l 321 764 q 317 751 321 757 l 212 644 q 201 640 206 640 q 189 644 194 640 l 79 754 q 75 764 75 758 q 79 774 75 770 l 83 779 q 98 785 88 784 q 111 780 106 785 l 189 704 q 199 699 194 699 q 210 704 206 699 l 290 783 q 300 787 294 787 q 311 783 307 787 l 315 779 z "},"Ţ":{"ha":613,"x_min":33,"x_max":581,"o":"m 381 8 q 458 -23 426 8 q 490 -99 490 -54 l 490 -208 l 376 -208 q 300 -176 331 -208 q 267 -99 267 -144 l 267 0 q 263 12 263 4 l 263 899 q 258 911 263 907 q 245 917 252 917 l 50 917 q 38 922 42 917 q 33 935 33 926 l 33 987 q 38 1000 33 994 q 50 1005 42 1005 l 562 1005 q 574 1000 570 1005 q 581 987 579 994 l 581 935 q 575 922 581 926 q 563 917 570 917 l 368 917 q 355 911 361 917 q 350 899 350 907 l 350 12 q 349 8 350 9 l 381 8 z "},"ţ":{"ha":473,"x_min":-1,"x_max":473,"o":"m 225 963 l 225 675 l 381 675 l 381 631 q 369 600 381 612 q 338 586 355 586 l 225 586 l 225 289 q 288 145 228 205 q 431 85 347 85 q 461 72 449 84 q 473 42 473 60 l 473 14 q 469 4 473 8 q 460 0 465 0 l 431 0 q 229 85 313 1 q 142 288 145 170 l 142 586 l -1 586 l -1 628 q 5 654 -1 642 q 26 673 14 667 q 39 675 33 675 l 142 675 l 142 1005 l 183 1005 q 213 993 201 1005 q 225 963 225 981 m 278 7 q 331 -15 309 7 q 351 -66 351 -35 l 351 -140 l 273 -140 q 221 -118 243 -140 q 199 -66 199 -96 l 199 7 l 278 7 z "},"Ť":{"ha":613,"x_min":33,"x_max":581,"o":"m 581 987 l 581 935 q 575 922 581 926 q 563 917 570 917 l 368 917 q 355 911 361 917 q 350 899 350 907 l 350 12 q 345 0 350 4 q 332 -5 340 -5 l 279 -5 q 267 0 273 -5 q 263 12 263 4 l 263 899 q 258 911 263 907 q 245 917 252 917 l 50 917 q 38 922 42 917 q 33 935 33 926 l 33 987 q 38 1000 33 994 q 50 1005 42 1005 l 562 1005 q 574 1000 570 1005 q 581 987 579 994 m 422 1172 q 426 1168 422 1172 q 430 1157 430 1165 l 430 1156 q 426 1142 430 1147 l 320 1036 q 308 1031 315 1031 q 297 1036 302 1031 l 187 1145 q 183 1156 183 1149 q 190 1169 183 1162 q 205 1176 197 1176 q 220 1172 213 1177 l 297 1095 q 308 1090 301 1090 q 319 1095 313 1090 q 397 1175 369 1145 q 408 1179 401 1179 q 422 1172 415 1179 z "},"ť":{"ha":473,"x_min":-1,"x_max":473,"o":"m 225 963 l 225 675 l 381 675 l 381 631 q 369 600 381 612 q 338 586 355 586 l 225 586 l 225 289 q 288 145 228 205 q 431 85 347 85 q 461 72 449 84 q 473 42 473 60 l 473 14 q 469 4 473 8 q 460 0 465 0 l 431 0 q 229 85 313 1 q 142 288 145 170 l 142 586 l -1 586 l -1 628 q 5 654 -1 642 q 26 673 14 667 q 39 675 33 675 l 142 675 l 142 1005 l 183 1005 q 213 993 201 1005 q 225 963 225 981 m 254 892 l 254 1001 l 298 1001 q 328 990 316 1001 q 345 962 342 978 l 345 848 l 298 848 q 266 860 279 848 q 254 892 254 873 z "}}}
